<svg
  width="246"
  height="172"
  viewBox="0 0 246 172"
  fill="none"
  xmlns="http://www.w3.org/2000/svg"
>
  <g filter="url(#filter0_dd_1105_9424)">
    <g clip-path="url(#clip0_1105_9424)">
      <rect x="12.5" y="5" width="221" height="147" fill="white" />
      <path d="M233.5 5H12.5V152H233.5V5Z" fill="#009B3A" />
      <path
        d="M36.3496 78.5L123.5 134.15L210.65 78.5L123.5 22.85L36.3496 78.5Z"
        fill="#FEDF00"
      />
      <path
        d="M123.5 115.25C143.796 115.25 160.25 98.7965 160.25 78.5C160.25 58.2035 143.796 41.75 123.5 41.75C103.204 41.75 86.75 58.2035 86.75 78.5C86.75 98.7965 103.204 115.25 123.5 115.25Z"
        fill="#002776"
      />
      <path
        d="M87.9189 69.275C92.7013 68.432 97.5789 68 102.501 68C123.255 68 143.217 75.6804 158.587 89.4671C159.174 87.5884 159.614 85.6449 159.893 83.6501C143.881 70.2033 123.575 62.75 102.501 62.75C98.252 62.75 94.0343 63.053 89.8767 63.647C89.0785 65.4514 88.4212 67.332 87.9189 69.275Z"
        fill="white"
      />
      <path
        d="M103.888 67.1219L107.036 67.2318L107.059 66.5822L104.51 66.4932L104.542 65.5938L106.541 65.6636L106.562 65.0639L104.563 64.9941L104.587 64.2946L106.986 64.3783L107.008 63.7287L104.01 63.624L103.888 67.1219Z"
        fill="#009B3A"
      />
      <path
        fill-rule="evenodd"
        clip-rule="evenodd"
        d="M101.094 67.1367L99.4443 67.1655L99.3832 63.666L101.033 63.6372C101.23 63.6338 101.426 63.6692 101.609 63.7414C101.792 63.8136 101.959 63.9211 102.101 64.058C102.243 64.1948 102.356 64.3582 102.435 64.5389C102.513 64.7195 102.556 64.9139 102.559 65.1108L102.568 65.6107C102.571 65.8077 102.536 66.0034 102.464 66.1867C102.391 66.3699 102.284 66.5372 102.147 66.6789C102.01 66.8206 101.847 66.934 101.666 67.0125C101.485 67.091 101.291 67.1333 101.094 67.1367ZM101.033 66.4877L100.083 66.5042L100.044 64.3046L100.994 64.288C101.246 64.2836 101.49 64.3795 101.671 64.5545C101.852 64.7295 101.956 64.9693 101.961 65.2213L101.966 65.5212C101.97 65.7731 101.875 66.0165 101.7 66.1977C101.525 66.379 101.285 66.4833 101.033 66.4877Z"
        fill="#009B3A"
      />
      <path
        fill-rule="evenodd"
        clip-rule="evenodd"
        d="M95.6669 67.3984L95.0209 67.4416L94.8148 63.9366L96.8025 63.8036C97.0924 63.7842 97.379 63.8815 97.5991 64.0742C97.8192 64.2669 97.9548 64.5391 97.9761 64.831C97.9974 65.1228 97.9027 65.4105 97.7128 65.6306C97.6553 65.6972 97.5905 65.756 97.52 65.8062C97.8935 66.0982 97.9484 66.8503 97.9769 67.2394L97.3802 67.2793C97.3559 66.9461 97.3121 66.3465 96.9626 66.0047L95.5719 66.0978L95.6669 67.3984ZM96.8661 65.3577L95.5244 65.4475L95.4586 64.547L96.8003 64.4572C96.9189 64.4493 97.0361 64.4891 97.1262 64.5679C97.2162 64.6468 97.2717 64.7581 97.2804 64.8775C97.2892 64.9969 97.2504 65.1146 97.1727 65.2046C97.095 65.2947 96.9847 65.3497 96.8661 65.3577Z"
        fill="#009B3A"
      />
      <path
        fill-rule="evenodd"
        clip-rule="evenodd"
        d="M93.1992 67.1131C92.946 67.4748 92.5709 67.7066 92.1562 67.7576C91.7416 67.8085 91.3216 67.6743 90.9884 67.3845C90.6552 67.0948 90.4363 66.6732 90.3797 66.2125C90.3232 65.7519 90.4336 65.2898 90.6868 64.9281C90.94 64.5664 91.3151 64.3345 91.7297 64.2836C92.1443 64.2327 92.5644 64.3669 92.8976 64.6567C93.2307 64.9464 93.4497 65.368 93.5062 65.8287C93.5628 66.2893 93.4524 66.7513 93.1992 67.1131ZM92.687 66.7129C92.5399 66.9388 92.3205 67.0825 92.077 67.1124C91.8335 67.1423 91.5859 67.0559 91.3886 66.8723C91.1913 66.6887 91.0604 66.4229 91.0249 66.1333C90.9893 65.8438 91.0519 65.5542 91.199 65.3283C91.346 65.1024 91.5654 64.9587 91.8089 64.9288C92.0524 64.8989 92.3001 64.9853 92.4974 65.1689C92.6947 65.3525 92.8255 65.6183 92.8611 65.9079C92.8966 66.1974 92.834 66.487 92.687 66.7129Z"
        fill="#009B3A"
      />
      <path
        d="M108.926 67.3632L108.328 67.3109L108.633 63.8242L109.505 63.9005L109.993 66.3524L110.9 64.0225L111.771 64.0988L111.466 67.5854L110.868 67.5331L111.078 65.1423L110.171 67.4721L109.623 67.4242L109.135 64.9723L108.926 67.3632Z"
        fill="#009B3A"
      />
      <path
        d="M115.58 68.1284L118.167 68.573L118.268 67.9816L116.273 67.6387L116.408 66.8503L118.034 67.1297L118.136 66.5384L116.51 66.2589L116.603 65.7169L118.537 66.0492L118.639 65.4579L116.113 65.0239L115.58 68.1284Z"
        fill="#009B3A"
      />
      <path
        fill-rule="evenodd"
        clip-rule="evenodd"
        d="M122.855 69.5967L122.226 69.4339L123.151 66.0579L125.087 66.5587C125.37 66.6317 125.611 66.814 125.76 67.0654C125.908 67.3167 125.95 67.6166 125.877 67.8991C125.804 68.1815 125.621 68.4234 125.37 68.5714C125.119 68.7195 124.819 68.7617 124.536 68.6886L123.181 68.3381L122.855 69.5967ZM124.651 68.0468L123.344 67.7088L123.569 66.8375L124.876 67.1755C124.992 67.2053 125.091 67.2799 125.151 67.3827C125.212 67.4856 125.229 67.6083 125.199 67.7238C125.169 67.8394 125.095 67.9383 124.992 67.9989C124.889 68.0594 124.766 68.0767 124.651 68.0468Z"
        fill="#009B3A"
      />
      <path
        fill-rule="evenodd"
        clip-rule="evenodd"
        d="M126.521 70.6102L127.134 70.7994L127.537 69.5482L128.858 69.9556L128.873 69.9601C129.064 70.4042 128.879 70.9793 128.776 71.2993L129.343 71.4742C129.464 71.0982 129.698 70.3701 129.459 69.9646C129.539 69.9428 129.617 69.9119 129.691 69.8719C129.95 69.7334 130.146 69.4979 130.237 69.2171C130.327 68.9363 130.304 68.6333 130.174 68.3747C130.043 68.1162 129.815 67.9232 129.54 67.8383L127.654 67.2563L126.521 70.6102ZM127.739 68.9226L129.012 69.3155C129.125 69.3503 129.248 69.3379 129.353 69.2813C129.459 69.2246 129.539 69.1282 129.576 69.0134C129.613 68.8985 129.604 68.7746 129.551 68.6688C129.497 68.563 129.404 68.4841 129.291 68.4493L128.018 68.0564L127.739 68.9226Z"
        fill="#009B3A"
      />
      <path
        fill-rule="evenodd"
        clip-rule="evenodd"
        d="M133.447 72.4098C133.055 72.6137 132.615 72.6461 132.224 72.4998C131.833 72.3536 131.522 72.0406 131.36 71.6297C131.199 71.2189 131.199 70.7438 131.362 70.3091C131.524 69.8744 131.836 69.5155 132.227 69.3116C132.619 69.1076 133.059 69.0752 133.45 69.2215C133.841 69.3678 134.152 69.6808 134.313 70.0916C134.475 70.5025 134.475 70.9775 134.312 71.4123C134.15 71.847 133.838 72.2058 133.447 72.4098ZM133.177 71.8183C132.942 71.9508 132.682 71.9769 132.452 71.891C132.222 71.8051 132.042 71.6142 131.952 71.3602C131.862 71.1062 131.868 70.81 131.971 70.5367C132.073 70.2635 132.262 70.0355 132.497 69.9031C132.731 69.7706 132.992 69.7444 133.222 69.8303C133.452 69.9163 133.632 70.1072 133.722 70.3612C133.812 70.6152 133.806 70.9114 133.703 71.1846C133.601 71.4579 133.412 71.6858 133.177 71.8183Z"
        fill="#009B3A"
      />
      <path
        d="M142.924 77.3529L145.666 78.904L145.986 78.3383L143.766 77.0826L144.209 76.2993L145.95 77.2841L146.246 76.7619L144.505 75.7771L144.85 75.1678L146.938 76.3496L147.258 75.7839L144.647 74.3066L142.924 77.3529Z"
        fill="#009B3A"
      />
      <path
        d="M148.454 79.959C148.033 79.6903 147.842 79.3614 148.03 79.0662L147.366 78.6431C146.894 79.3797 147.618 80.1081 148.103 80.4171C148.673 80.7798 149.526 81.1157 150.016 80.3461C150.409 79.7287 149.811 79.1538 149.324 78.6859C148.988 78.3629 148.705 78.0909 148.838 77.8913C149.033 77.5855 149.298 77.6806 149.625 77.8888C149.962 78.1037 150.184 78.4077 149.982 78.724L150.625 79.1337C151.099 78.413 150.49 77.7876 150.11 77.5458L150.062 77.5146C149.651 77.2504 148.701 76.6397 148.136 77.5036C147.748 78.1007 148.3 78.6423 148.775 79.1089C149.134 79.4608 149.449 79.7701 149.285 80.0284C149.163 80.2179 148.876 80.2276 148.454 79.959Z"
        fill="#009B3A"
      />
      <path
        d="M151.785 81.5492C151.582 81.8341 151.755 82.1726 152.162 82.4629C152.569 82.7533 152.856 82.7586 152.987 82.5757C153.165 82.3263 152.866 82.001 152.527 81.6308C152.076 81.1399 151.553 80.5702 151.973 79.9942C152.582 79.1611 153.498 79.8207 153.895 80.106L153.942 80.1397C154.308 80.401 154.884 81.0574 154.373 81.7524L153.752 81.3096C153.97 81.0043 153.765 80.6891 153.439 80.4568C153.124 80.2318 152.863 80.123 152.653 80.4181C152.509 80.6105 152.778 80.8969 153.097 81.2371C153.559 81.7298 154.126 82.3353 153.701 82.9313C153.171 83.6741 152.337 83.294 151.787 82.902C151.319 82.5681 150.633 81.8028 151.144 81.0919L151.785 81.5492Z"
        fill="#009B3A"
      />
      <path
        fill-rule="evenodd"
        clip-rule="evenodd"
        d="M156.527 85.8682C156.091 85.9412 155.663 85.8361 155.336 85.576C155.009 85.316 154.81 84.9223 154.783 84.4816C154.757 84.0409 154.904 83.5892 155.193 83.226C155.482 82.8628 155.889 82.6177 156.324 82.5448C156.76 82.4718 157.188 82.5769 157.515 82.8369C157.842 83.0969 158.04 83.4906 158.067 83.9313C158.094 84.3721 157.947 84.8237 157.658 85.1869C157.369 85.5502 156.962 85.7952 156.527 85.8682ZM156.453 85.2224C156.189 85.2758 155.933 85.2201 155.741 85.0673C155.549 84.9146 155.437 84.6775 155.429 84.408C155.422 84.1386 155.52 83.859 155.701 83.6306C155.883 83.4023 156.134 83.244 156.398 83.1906C156.662 83.1371 156.918 83.1929 157.11 83.3456C157.302 83.4983 157.414 83.7355 157.421 84.0049C157.429 84.2743 157.331 84.554 157.149 84.7823C156.968 85.0106 156.717 85.1689 156.453 85.2224Z"
        fill="#009B3A"
      />
      <path
        d="M137.529 74.143C137.13 74.3292 136.697 74.344 136.322 74.184C135.945 74.0227 135.658 73.6968 135.526 73.278C135.394 72.8593 135.427 72.382 135.617 71.9511C135.808 71.5203 136.141 71.1711 136.543 70.9806C136.944 70.79 137.382 70.7735 137.76 70.9349C138.137 71.0962 138.423 71.4221 138.556 71.8408C138.629 72.0721 138.651 72.3212 138.625 72.5704L137.988 72.2965C137.982 72.2258 137.97 72.1566 137.951 72.09C137.879 71.8315 137.714 71.633 137.493 71.5383C137.271 71.4435 137.011 71.4602 136.769 71.5847C136.528 71.7093 136.325 71.9314 136.205 72.2022C136.085 72.473 136.058 72.7704 136.13 73.0289C136.202 73.2874 136.367 73.4858 136.589 73.5806C136.811 73.6753 137.071 73.6586 137.313 73.5341C137.408 73.485 137.497 73.4206 137.578 73.344L137.071 73.126L137.276 72.6589L137.877 72.9171L137.879 72.9126L138.466 73.1649L138.464 73.1694L138.485 73.1787L138.484 73.1809L138.485 73.1814L137.778 74.7923L137.329 74.599L137.529 74.143Z"
        fill="#009B3A"
      />
      <path
        fill-rule="evenodd"
        clip-rule="evenodd"
        d="M139.538 75.6535L138.963 75.3695L140.6 72.2295L142.37 73.1031C142.628 73.2305 142.823 73.4574 142.912 73.7339C143.001 74.0104 142.976 74.3137 142.843 74.5773C142.71 74.8409 142.48 75.043 142.204 75.1392C142.124 75.167 142.042 75.1853 141.96 75.1943C142.131 75.6333 141.788 76.3149 141.61 76.6671L141.079 76.4048C141.23 76.1048 141.501 75.5662 141.382 75.0971L141.369 75.0906L140.13 74.479L139.538 75.6535ZM141.62 74.4815L140.426 73.8918L140.835 73.0788L142.03 73.6684C142.136 73.7206 142.215 73.8134 142.252 73.9265C142.288 74.0396 142.278 74.1637 142.224 74.2715C142.169 74.3794 142.075 74.4621 141.962 74.5014C141.849 74.5408 141.726 74.5336 141.62 74.4815Z"
        fill="#009B3A"
      />
      <path
        d="M133.976 68.3678L133.973 68.3794L134.002 68.349L134.899 67.6965L135.792 68.3473L135.824 68.3794L135.82 68.3672L135.829 68.374L135.81 68.3378L135.467 67.2954L136.379 66.6353L136.386 66.6318L136.384 66.6318L136.396 66.623L136.343 66.6313L135.254 66.6186L134.898 65.5249L134.543 66.6185L133.453 66.6313L133.4 66.623L133.412 66.6318L133.41 66.6318L133.417 66.6353L134.329 67.2957L133.986 68.3391L133.967 68.3745L133.976 68.3678Z"
        fill="white"
      />
      <path
        d="M92.5756 73.1672L92.5718 73.1787L92.6015 73.1483L93.4978 72.4957L94.3924 73.1471L94.4238 73.1792L94.4198 73.167L94.4292 73.1738L94.4102 73.1376L94.0674 72.0948L94.9792 71.4346L94.9863 71.4312L94.984 71.4311L94.9961 71.4224L94.9428 71.4306L93.8537 71.4179L93.4985 70.3247L93.1433 71.4179L92.0528 71.4306L91.9995 71.4224L92.0116 71.4311L92.0093 71.4312L92.0164 71.4346L92.9281 72.0948L92.585 73.1385L92.5664 73.1738L92.5756 73.1672Z"
        fill="white"
      />
      <path
        d="M95.8247 88.6289L95.8285 88.6173L95.8193 88.624L95.8379 88.5887L96.181 87.5452L95.2688 86.8848L95.2617 86.8813L95.2641 86.8813L95.252 86.8726L95.3053 86.8808L96.3956 86.868L96.751 85.7744L97.1063 86.8681L98.1952 86.8808L98.2485 86.8726L98.2364 86.8813L98.2388 86.8813L98.2317 86.8848L97.3199 87.545L97.6626 88.5873L97.6816 88.6235L97.6723 88.6167L97.6763 88.6289L97.6449 88.5968L96.7508 87.9458L95.8544 88.5985L95.8247 88.6289Z"
        fill="white"
      />
      <path
        d="M91.4795 91.7158L91.4828 91.7058L91.4751 91.7114L91.4907 91.6818L91.7766 90.8121L91.0176 90.2626L91.0107 90.2593L91.013 90.2592L91.0029 90.252L91.0474 90.2589L91.9536 90.2482L92.2495 89.3374L92.5454 90.2482L93.4546 90.2589L93.499 90.252L93.4889 90.2592L93.4912 90.2593L93.4843 90.2626L92.7238 90.8133L93.0093 91.6818L93.0249 91.7114L93.0172 91.7058L93.0205 91.7158L92.9948 91.6895L92.25 91.1472L91.5052 91.6895L91.4795 91.7158Z"
        fill="white"
      />
      <path
        d="M99.9087 85.7095L99.9107 85.7035L99.9058 85.707L99.9157 85.6881L100.078 85.1941L99.6348 84.873L99.6585 84.8767L100.18 84.8706L100.35 84.3501L100.519 84.8706L101.039 84.8767L101.062 84.873L101.058 84.877L101.055 84.8784L100.621 85.1929L100.784 85.6906L100.793 85.707L100.789 85.7039L100.791 85.7095L100.776 85.6949L100.349 85.384L99.9242 85.6936L99.9087 85.7095Z"
        fill="white"
      />
      <path
        d="M102.683 95.5029L102.686 95.4947L102.679 95.4995L102.693 95.474L102.921 94.7796L102.314 94.3404L102.309 94.3379L102.311 94.3379L102.303 94.332L102.338 94.3375L103.062 94.3291L103.299 93.6001L103.536 94.329L104.263 94.3376L104.299 94.332L104.291 94.3379L104.292 94.3379L104.288 94.3397L103.679 94.7809L103.907 95.4745L103.92 95.5L103.914 95.4952L103.917 95.5034L103.895 95.4817L103.299 95.0479L102.704 95.4813L102.683 95.5029Z"
        fill="white"
      />
      <path
        d="M141.236 106.894L141.233 106.902L141.255 106.881L141.85 106.447L142.446 106.881L142.467 106.902L142.465 106.894L142.471 106.899L142.458 106.873L142.23 106.18L142.839 105.739L142.842 105.737L142.841 105.737L142.849 105.731L142.814 105.736L142.086 105.728L141.85 104.999L141.613 105.728L140.887 105.736L140.852 105.731L140.86 105.737L140.858 105.737L140.863 105.739L141.471 106.18L141.243 106.873L141.229 106.899L141.236 106.894Z"
        fill="white"
      />
      <path
        d="M148.329 92.6676L148.325 92.6792L148.354 92.6488L149.251 91.9961L150.145 92.6476L150.177 92.6797L150.173 92.6675L150.182 92.6743L150.163 92.6381L149.82 91.595L150.732 90.9351L150.739 90.9316L150.736 90.9316L150.749 90.9229L150.695 90.9311L149.606 90.9184L149.251 89.8247L148.896 90.9183L147.805 90.9311L147.752 90.9229L147.764 90.9316L147.762 90.9316L147.769 90.9351L148.681 91.5955L148.338 92.6389L148.319 92.6743L148.329 92.6676Z"
        fill="white"
      />
      <path
        d="M149.983 95.7063L149.98 95.7163L150.006 95.69L150.751 95.1475L151.496 95.69L151.521 95.7163L151.518 95.7063L151.526 95.7119L151.51 95.6823L151.225 94.8138L151.985 94.2631L151.992 94.2598L151.99 94.2597L152 94.2524L151.956 94.2593L151.046 94.2487L150.75 93.3379L150.454 94.2487L149.548 94.2593L149.504 94.2524L149.514 94.2597L149.512 94.2598L149.519 94.2631L150.277 94.8123L149.991 95.6823L149.976 95.7119L149.983 95.7063Z"
        fill="white"
      />
      <path
        d="M141.127 103.417L141.13 103.407L141.123 103.412L141.138 103.383L141.424 102.512L140.666 101.963L140.659 101.959L140.661 101.959L140.651 101.952L140.695 101.959L141.603 101.948L141.899 101.038L142.195 101.948L143.103 101.959L143.147 101.952L143.137 101.959L143.139 101.959L143.132 101.963L142.373 102.512L142.659 103.382L142.675 103.412L142.667 103.406L142.67 103.416L142.645 103.39L141.899 102.847L141.153 103.39L141.127 103.417Z"
        fill="white"
      />
      <path
        d="M153.388 91.4372L154.114 91.4286L154.351 90.7002L154.588 91.4286L155.315 91.4372L155.35 91.4316L155.342 91.4375L155.343 91.4375L155.339 91.4393L154.729 91.8814L154.957 92.5746L154.97 92.6001L154.964 92.5953L154.966 92.6035L154.945 92.5818L154.35 92.1482L153.755 92.5814L153.733 92.603L153.736 92.5948L153.729 92.5996L153.743 92.5741L153.971 91.8796L153.364 91.44L153.359 91.4375L153.361 91.4375L153.353 91.4316L153.388 91.4372Z"
        fill="white"
      />
      <path
        d="M144.586 99.1374L145.311 99.1288L145.548 98.3999L145.785 99.1283L146.512 99.1369L146.548 99.1313L146.54 99.1372L146.541 99.1372L146.537 99.139L145.928 99.5803L146.156 100.274L146.169 100.3L146.163 100.295L146.166 100.303L146.144 100.282L145.549 99.8479L144.954 100.281L144.933 100.303L144.935 100.295L144.929 100.299L144.942 100.274L145.17 99.5803L144.562 99.1402L144.557 99.1377L144.559 99.1377L144.551 99.1318L144.586 99.1374Z"
        fill="white"
      />
      <path
        d="M147.297 97.209L148.204 97.1984L148.5 96.2871L148.797 97.1984L149.704 97.209L149.749 97.2021L149.738 97.2094L149.741 97.2095L149.734 97.2128L148.974 97.7626L149.26 98.632L149.276 98.6616L149.268 98.656L149.271 98.666L149.246 98.6397L148.5 98.0967L147.754 98.6397L147.729 98.666L147.732 98.656L147.724 98.6616L147.74 98.632L148.026 97.762L147.267 97.2128L147.26 97.2095L147.263 97.2094L147.252 97.2021L147.297 97.209Z"
        fill="white"
      />
      <path
        d="M140.788 98.4372L141.514 98.4286L141.751 97.7002L141.988 98.4286L142.715 98.4372L142.75 98.4316L142.742 98.4375L142.744 98.4375L142.74 98.4393L142.129 98.8817L142.357 99.5746L142.37 99.6001L142.363 99.5953L142.366 99.6035L142.345 99.5818L141.75 99.1483L141.155 99.5814L141.134 99.603L141.136 99.5948L141.13 99.5996L141.143 99.5741L141.372 98.8796L140.765 98.44L140.759 98.4375L140.761 98.4375L140.753 98.4316L140.788 98.4372Z"
        fill="white"
      />
      <path
        d="M108.732 81.0559L108.729 81.0659L108.754 81.0396L109.5 80.4965L110.245 81.0391L110.271 81.0654L110.268 81.0554L110.275 81.061L110.26 81.0314L109.974 80.1621L110.733 79.6127L110.74 79.6094L110.737 79.6093L110.748 79.6021L110.703 79.6089L109.796 79.5983L109.5 78.687L109.204 79.5978L108.296 79.6085L108.252 79.6016L108.262 79.6089L108.26 79.6089L108.267 79.6122L109.026 80.1618L108.74 81.0319L108.724 81.0615L108.732 81.0559Z"
        fill="white"
      />
      <path
        d="M132.886 77.4942L132.883 77.5024L132.904 77.4808L133.499 77.0476L134.095 77.4813L134.116 77.5029L134.114 77.4947L134.12 77.4995L134.107 77.474L133.879 76.7804L134.488 76.3392L134.492 76.3374L134.49 76.3374L134.499 76.3315L134.463 76.3371L133.736 76.3285L133.499 75.5996L133.262 76.3286L132.537 76.3371L132.501 76.3315L132.509 76.3374L132.507 76.3374L132.513 76.3399L133.121 76.7803L132.893 77.4735L132.879 77.499L132.886 77.4942Z"
        fill="white"
      />
      <path
        d="M122.578 96.2673L122.574 96.2788L122.603 96.2484L123.5 95.5958L124.394 96.2472L124.426 96.2793L124.422 96.2671L124.431 96.2739L124.412 96.2377L124.069 95.1944L124.98 94.5347L124.987 94.5312L124.985 94.5312L124.997 94.5225L124.944 94.5307L123.855 94.518L123.5 93.4243L123.144 94.518L122.054 94.5307L122.001 94.5225L122.013 94.5312L122.011 94.5312L122.018 94.5347L122.93 95.1951L122.587 96.2386L122.568 96.2739L122.578 96.2673Z"
        fill="white"
      />
      <path
        d="M126.982 88.7566L126.979 88.7666L127.005 88.7403L127.75 88.1976L128.495 88.7398L128.521 88.7661L128.517 88.7561L128.525 88.7617L128.509 88.7321L128.223 87.8624L128.982 87.3129L128.989 87.3096L128.987 87.3095L128.997 87.3022L128.953 87.3091L128.045 87.2985L127.749 86.3877L127.453 87.299L126.545 87.3096L126.501 87.3027L126.511 87.31L126.509 87.3101L126.516 87.3134L127.276 87.8638L126.99 88.7326L126.975 88.7622L126.982 88.7566Z"
        fill="white"
      />
      <path
        d="M122.733 85.4563L122.729 85.4663L122.755 85.44L123.501 84.8973L124.245 85.4395L124.271 85.4658L124.268 85.4558L124.275 85.4614L124.26 85.4318L123.974 84.5633L124.735 84.0126L124.742 84.0093L124.739 84.0092L124.75 84.002L124.705 84.0089L123.796 83.9982L123.5 83.0874L123.204 83.9987L122.298 84.0093L122.254 84.0024L122.264 84.0097L122.262 84.0098L122.269 84.0131L123.027 84.562L122.741 85.4323L122.725 85.4619L122.733 85.4563Z"
        fill="white"
      />
      <path
        d="M119.186 88.5445L119.183 88.5527L119.204 88.5311L119.8 88.0972L120.397 88.5315L120.418 88.5532L120.415 88.545L120.422 88.5498L120.408 88.5243L120.18 87.8304L120.789 87.3895L120.793 87.3877L120.792 87.3877L120.8 87.3818L120.764 87.3874L120.038 87.3788L119.801 86.6499L119.564 87.3788L118.838 87.3874L118.803 87.3818L118.811 87.3877L118.809 87.3877L118.814 87.3902L119.421 87.8294L119.193 88.5238L119.179 88.5493L119.186 88.5445Z"
        fill="white"
      />
      <path
        d="M121.211 90.8529L121.209 90.8589L121.224 90.843L121.65 90.5334L122.076 90.8438L122.09 90.8584L122.089 90.8529L122.093 90.856L122.084 90.8395L121.921 90.3423L122.355 90.0278L122.358 90.0264L122.362 90.0225L122.339 90.0261L121.819 90.02L121.649 89.4995L121.48 90.02L120.958 90.0261L120.935 90.0225L121.378 90.3438L121.216 90.8375L121.206 90.8564L121.211 90.8529Z"
        fill="white"
      />
      <path
        d="M123.192 107.673L123.191 107.677L123.199 107.668L123.501 107.449L123.8 107.666L123.81 107.677L123.809 107.673L123.812 107.675L123.806 107.664L123.691 107.315L123.994 107.095L123.998 107.094L123.996 107.094L124 107.091L123.983 107.094L123.618 107.089L123.5 106.725L123.381 107.09L123.02 107.094L123.002 107.091L123.31 107.314L123.195 107.665L123.189 107.675L123.192 107.673Z"
        fill="white"
      />
      <path
        d="M133.732 104.306L133.729 104.316L133.754 104.29L134.5 103.747L135.244 104.289L135.27 104.315L135.267 104.305L135.274 104.311L135.259 104.281L134.973 103.412L135.732 102.862L135.739 102.859L135.737 102.859L135.747 102.852L135.702 102.858L134.794 102.848L134.498 101.937L134.202 102.848L133.295 102.858L133.25 102.852L133.261 102.859L133.258 102.859L133.265 102.862L134.025 103.413L133.74 104.282L133.724 104.312L133.732 104.306Z"
        fill="white"
      />
      <path
        d="M107.828 99.2672L107.824 99.2788L107.853 99.2484L108.75 98.5957L109.644 99.2467L109.675 99.2788L109.671 99.2666L109.681 99.2734L109.662 99.2373L109.319 98.1949L110.231 97.5347L110.238 97.5312L110.235 97.5312L110.248 97.5225L110.194 97.5307L109.105 97.518L108.75 96.4243L108.395 97.5175L107.305 97.5303L107.251 97.522L107.264 97.5307L107.261 97.5308L107.268 97.5342L108.18 98.1945L107.837 99.2386L107.818 99.2739L107.828 99.2672Z"
        fill="white"
      />
      <path
        d="M103.632 92.0574L103.629 92.0674L103.655 92.0411L104.401 91.4979L105.147 92.0411L105.172 92.0674L105.169 92.0574L105.177 92.063L105.161 92.0334L104.875 91.1633L105.634 90.6137L105.641 90.6104L105.639 90.6103L105.649 90.603L105.604 90.6099L104.697 90.5993L104.401 89.6885L104.105 90.5998L103.197 90.6104L103.152 90.6035L103.162 90.6108L103.16 90.6108L103.167 90.6142L103.926 91.1637L103.64 92.0334L103.625 92.063L103.632 92.0574Z"
        fill="white"
      />
      <path
        d="M136.686 99.6886L137.412 99.6801L137.649 98.9512L137.886 99.6796L138.613 99.6881L138.648 99.6826L138.64 99.6885L138.642 99.6885L138.638 99.6903L138.028 100.132L138.257 100.826L138.27 100.851L138.263 100.846L138.266 100.854L138.245 100.833L137.649 100.399L137.054 100.832L137.033 100.854L137.036 100.846L137.029 100.851L137.043 100.825L137.271 100.132L136.662 99.6915L136.657 99.689L136.659 99.6889L136.651 99.6831L136.686 99.6886Z"
        fill="white"
      />
      <path
        d="M131.362 98.7797L130.637 98.7882L130.602 98.7827L130.61 98.7886L130.608 98.7886L130.613 98.7911L131.22 99.2303L130.991 99.9247L130.978 99.9502L130.985 99.9454L130.982 99.9536L131.003 99.9319L131.599 99.498L132.196 99.9324L132.217 99.9541L132.214 99.9459L132.221 99.9507L132.207 99.9252L131.979 99.2313L132.588 98.7904L132.592 98.7886L132.591 98.7886L132.599 98.7827L132.563 98.7882L131.836 98.7797L131.599 98.0508L131.362 98.7797Z"
        fill="white"
      />
    </g>
    <rect
      x="12.5"
      y="5"
      width="221"
      height="147"
      stroke="#A8B7D4"
      stroke-width="0.473616"
      stroke-linejoin="round"
    />
  </g>
  <defs>
    <filter
      id="filter0_dd_1105_9424"
      x="0.860955"
      y="0.962766"
      width="244.278"
      height="170.278"
      filterUnits="userSpaceOnUse"
      color-interpolation-filters="sRGB"
    >
      <feFlood flood-opacity="0" result="BackgroundImageFix" />
      <feColorMatrix
        in="SourceAlpha"
        type="matrix"
        values="0 0 0 0 0 0 0 0 0 0 0 0 0 0 0 0 0 0 127 0"
        result="hardAlpha"
      />
      <feOffset dy="7.60181" />
      <feGaussianBlur stdDeviation="5.70136" />
      <feComposite in2="hardAlpha" operator="out" />
      <feColorMatrix
        type="matrix"
        values="0 0 0 0 0.258824 0 0 0 0 0.278431 0 0 0 0 0.298039 0 0 0 0.08 0"
      />
      <feBlend
        mode="normal"
        in2="BackgroundImageFix"
        result="effect1_dropShadow_1105_9424"
      />
      <feColorMatrix
        in="SourceAlpha"
        type="matrix"
        values="0 0 0 0 0 0 0 0 0 0 0 0 0 0 0 0 0 0 127 0"
        result="hardAlpha"
      />
      <feOffset />
      <feGaussianBlur stdDeviation="0.475113" />
      <feComposite in2="hardAlpha" operator="out" />
      <feColorMatrix
        type="matrix"
        values="0 0 0 0 0.258824 0 0 0 0 0.278431 0 0 0 0 0.298039 0 0 0 0.32 0"
      />
      <feBlend
        mode="normal"
        in2="effect1_dropShadow_1105_9424"
        result="effect2_dropShadow_1105_9424"
      />
      <feBlend
        mode="normal"
        in="SourceGraphic"
        in2="effect2_dropShadow_1105_9424"
        result="shape"
      />
    </filter>
    <clipPath id="clip0_1105_9424">
      <rect x="12.5" y="5" width="221" height="147" fill="white" />
    </clipPath>
  </defs>
</svg>
