<svg xmlns="http://www.w3.org/2000/svg" width="128" height="128" fill="none"><path fill="#F34F29" d="M124.737 58.378 69.621 3.264c-3.172-3.174-8.32-3.174-11.497 0L46.68 14.71l14.518 14.518c3.375-1.14 7.243-.375 9.932 2.314 2.703 2.706 3.461 6.607 2.294 9.993l13.992 13.993c3.385-1.167 7.292-.413 9.994 2.295 3.78 3.777 3.78 9.9 0 13.679A9.675 9.675 0 0 1 81.622 60.98L68.574 47.933l-.002 34.34a9.7 9.7 0 0 1 2.559 1.829c3.778 3.777 3.778 9.898 0 13.683-3.779 3.777-9.904 3.777-13.679 0-3.778-3.784-3.778-9.905 0-13.683a9.7 9.7 0 0 1 3.167-2.11v-34.66a9.6 9.6 0 0 1-3.167-2.11c-2.862-2.86-3.551-7.06-2.083-10.576L41.056 20.333 3.264 58.123a8.133 8.133 0 0 0 0 11.5l55.117 55.114c3.174 3.174 8.32 3.174 11.499 0l54.858-54.858a8.133 8.133 0 0 0-.001-11.501"/></svg>