<svg xmlns="http://www.w3.org/2000/svg" width="128" height="128" fill="none"><path fill="#000" d="M93.81 92.112c.784-6.533.55-7.492 5.415-6.433l1.235.108c3.742.17 8.637-.602 11.513-1.938 6.191-2.873 9.861-7.668 3.758-6.409-13.924 2.873-14.881-1.842-14.881-1.842 14.703-21.815 20.849-49.508 15.543-56.287-14.47-18.489-39.517-9.746-39.936-9.52l-.134.025c-2.75-.571-5.83-.912-9.289-.968-6.3-.104-11.082 1.652-14.709 4.402 0 0-44.683-18.409-42.604 23.151.442 8.841 12.672 66.898 27.26 49.362 5.332-6.412 10.484-11.834 10.484-11.834 2.558 1.699 5.622 2.567 8.834 2.255l.25-.212c-.079.796-.045 1.575.098 2.497-3.757 4.199-2.653 4.936-10.166 6.482-7.602 1.566-3.136 4.355-.22 5.084 3.534.884 11.711 2.136 17.237-5.598l-.22.882c1.474 1.18 1.375 8.477 1.583 13.69.21 5.214.558 10.079 1.621 12.948s2.317 10.256 12.191 8.14c8.252-1.764 14.561-4.309 15.136-27.985"/><path fill="#000" d="M75.458 125.256c-4.367 0-7.211-1.689-8.938-3.32-2.607-2.46-3.641-5.629-4.259-7.522l-.267-.79c-1.244-3.358-1.666-8.193-1.916-14.419-.038-.935-.064-1.898-.093-2.919-.021-.747-.047-1.684-.085-2.664a18.8 18.8 0 0 1-4.962 1.568c-3.079.526-6.389.356-9.84-.507-2.435-.609-4.965-1.87-6.407-3.82-4.203 3.681-8.212 3.182-10.396 2.453-3.853-1.285-7.301-4.896-10.542-11.037-2.309-4.375-4.542-10.075-6.638-16.943-3.65-11.96-5.969-24.557-6.175-28.693C4.292 23.698 7.777 14.44 15.296 9.13 27.157.751 45.128 5.68 51.68 7.915c4.402-2.653 9.581-3.944 15.433-3.85 3.143.05 6.136.326 8.916.822 2.9-.912 8.628-2.22 15.185-2.139 12.081.144 22.092 4.852 28.949 13.615 4.894 6.252 2.474 19.381.597 26.651-2.642 10.226-7.271 21.102-12.957 30.57 1.544.011 3.781-.174 6.961-.83 6.274-1.296 8.109 2.068 8.607 3.574 1.995 6.042-6.677 10.608-9.382 11.864-3.466 1.61-9.117 2.59-13.745 2.377l-.202-.013-1.216-.107-.12 1.014-.116.991c-.311 11.999-2.025 19.598-5.552 24.619-3.697 5.264-8.835 6.739-13.361 7.709-1.544.33-2.947.474-4.219.474m-9.19-43.67c2.819 2.255 3.066 6.5 3.287 14.433.028.99.054 1.927.089 2.802.106 2.65.355 8.855 1.327 11.477.137.371.26.747.39 1.146 1.083 3.316 1.626 4.979 6.309 3.978 3.931-.843 5.952-1.599 7.534-3.851 2.299-3.274 3.585-9.86 3.821-19.575l4.783.116-4.75-.57.14-1.186c.455-3.91.783-6.734 3.396-8.602 2.097-1.498 4.486-1.353 6.389-1.01-2.091-1.58-2.669-3.433-2.823-4.193l-.399-1.965 1.121-1.663c6.457-9.58 11.781-21.354 14.609-32.304 2.906-11.25 2.02-17.226 1.134-18.356-11.729-14.987-32.068-8.799-34.192-8.097l-.359.194-1.8.335-.922-.19c-2.542-.529-5.366-.82-8.393-.87-4.756-.08-8.593 1.044-11.739 3.431l-2.183 1.655-2.533-1.043c-5.412-2.213-21.308-6.662-29.696-.72-4.656 3.297-6.777 9.76-6.305 19.206.156 3.12 2.275 14.926 5.771 26.377 4.831 15.825 9.221 21.082 11.054 21.693.32.108 1.15-.537 1.976-1.529a271 271 0 0 1 10.694-12.07l2.77-2.915 3.349 2.225c1.35.897 2.839 1.406 4.368 1.502l7.987-6.812-1.157 11.808c-.026.265-.039.626.065 1.296l.348 2.238-1.51 1.688-.174.196 4.388 2.025z"/><path fill="#336791" d="M115.731 77.44c-13.925 2.873-14.882-1.842-14.882-1.842 14.703-21.816 20.849-49.51 15.545-56.287C101.924.823 76.875 9.566 76.457 9.793l-.135.024c-2.75-.571-5.83-.911-9.29-.967-6.302-.103-11.08 1.652-14.708 4.402 0 0-44.684-18.408-42.606 23.15.442 8.843 12.672 66.9 27.26 49.364 5.332-6.412 10.483-11.834 10.483-11.834 2.56 1.699 5.622 2.567 8.833 2.255l.25-.212c-.078.796-.042 1.575.1 2.497-3.758 4.199-2.654 4.936-10.167 6.482-7.602 1.566-3.136 4.355-.22 5.084 3.534.884 11.712 2.136 17.237-5.598l-.22.882c1.472 1.18 2.506 7.672 2.333 13.557-.174 5.885-.29 9.926.871 13.082 1.16 3.156 2.316 10.256 12.192 8.14 8.252-1.768 12.528-6.351 13.124-13.995.422-5.435 1.377-4.631 1.438-9.49l.767-2.3c.884-7.367.14-9.743 5.225-8.638l1.235.108c3.742.17 8.639-.602 11.514-1.938 6.19-2.871 9.861-7.667 3.758-6.408"/><path fill="#fff" d="M75.957 122.307c-8.232 0-10.84-6.519-11.907-9.185-1.562-3.907-1.899-19.069-1.551-31.503a1.59 1.59 0 0 1 1.64-1.55 1.593 1.593 0 0 1 1.55 1.64c-.401 14.34.168 27.336 1.324 30.228 1.804 4.509 4.54 8.453 12.275 6.796 7.343-1.575 10.093-4.359 11.318-11.46.94-5.449 2.799-20.95 3.028-24.01a1.593 1.593 0 0 1 2.8-.921c.276.32.413.737.382 1.16-.239 3.184-2.089 18.656-3.065 24.314-1.446 8.387-5.185 12.191-13.794 14.037-1.463.313-2.792.453-4 .454m-44.636-31.84a6.7 6.7 0 0 1-2.116-.35c-5.347-1.785-10.44-10.493-15.138-25.886-3.576-11.717-5.842-23.947-6.041-27.922-.589-11.784 2.445-20.12 9.02-24.778 13.007-9.216 34.888-.44 35.813-.062a1.597 1.597 0 0 1-1.207 2.955c-.211-.086-21.193-8.492-32.768-.285-5.622 3.986-8.203 11.392-7.672 22.011.167 3.35 2.284 15.285 5.906 27.15 4.194 13.741 8.967 22.412 13.096 23.79.648.215 2.62.872 5.439-2.518A245 245 0 0 1 45.88 73.046a1.596 1.596 0 0 1 2.304 2.208c-.048.05-4.847 5.067-10.077 11.36-2.477 2.978-4.851 3.852-6.786 3.852M100.75 77.02a1.597 1.597 0 0 1-1.322-2.487c14.863-22.055 20.08-48.704 15.612-54.414-5.624-7.186-13.565-10.939-23.604-11.156-7.433-.16-13.341 1.738-14.307 2.07l-.243.098c-.971.305-1.716-.227-1.997-.849a1.6 1.6 0 0 1 .631-2.025c.046-.027.192-.089.429-.176l-.021.006.021-.007c1.641-.6 7.639-2.4 15.068-2.315 11.108.118 20.284 4.401 26.534 12.388 2.957 3.78 2.964 12.485.019 23.887-3.002 11.625-8.651 24.118-15.497 34.277-.306.457-.81.703-1.323.703m.76 10.21c-2.538 0-4.813-.358-6.175-1.174-1.4-.839-1.667-1.979-1.702-2.584-.382-6.71 3.32-7.878 5.208-8.41-.263-.399-.637-.867-1.024-1.35-1.101-1.376-2.609-3.26-3.771-6.078-.182-.44-.752-1.463-1.412-2.648-3.579-6.418-11.026-19.773-6.242-26.612 2.214-3.165 6.623-4.41 13.119-3.716C97.6 28.837 88.5 10.625 66.907 10.271c-6.494-.108-11.82 1.89-15.822 5.93-8.96 9.05-8.636 25.422-8.631 25.586a1.595 1.595 0 0 1-3.19.084c-.02-.727-.354-17.909 9.554-27.916C53.455 9.272 59.559 6.96 66.96 7.081c13.814.227 22.706 7.25 27.732 13.101 5.479 6.377 8.165 13.411 8.386 15.76.165 1.745-1.088 2.094-1.341 2.146l-.576.013c-6.375-1.02-10.465-.312-12.156 2.104-3.639 5.201 3.406 17.834 6.414 23.23.768 1.375 1.322 2.37 1.576 2.984.988 2.396 2.277 4.006 3.312 5.3.911 1.138 1.7 2.125 1.982 3.283.131.23 1.99 2.98 13.021.703 2.765-.57 4.423-.083 4.93 1.45.997 3.015-4.597 6.532-7.694 7.97-2.775 1.29-7.204 2.106-11.036 2.106m-4.696-4.02c.35.352 2.101.961 5.727.805 3.224-.138 6.624-.839 8.664-1.786 2.609-1.212 4.351-2.567 5.253-3.492l-.5.092c-7.053 1.456-12.042 1.262-14.828-.577a6 6 0 0 1-.54-.4c-.302.118-.581.196-.78.252-1.58.443-3.214.902-2.996 5.105m-45.562 8.914c-1.752 0-3.596-.239-5.479-.71-1.951-.488-5.24-1.957-5.19-4.37.057-2.707 3.994-3.519 5.476-3.824 5.354-1.103 5.703-1.545 7.376-3.67.488-.619 1.095-1.39 1.923-2.314 1.229-1.376 2.572-2.073 3.992-2.073.989 0 1.8.335 2.336.558 1.708.708 3.133 2.42 3.719 4.467.529 1.847.276 3.625-.71 5.006-3.237 4.533-7.886 6.93-13.443 6.93m-7.222-4.943c.481.372 1.445.87 2.518 1.137 1.631.408 3.213.615 4.705.615 4.546 0 8.196-1.882 10.847-5.594.553-.774.387-1.757.239-2.274-.31-1.083-1.08-2.068-1.873-2.397-.43-.178-.787-.314-1.115-.314-.176 0-.712 0-1.614 1.01q-.934 1.05-1.794 2.161c-2.084 2.646-3.039 3.544-9.239 4.821-1.513.31-2.289.626-2.674.835m12.269-7.36a1.596 1.596 0 0 1-1.575-1.354 8 8 0 0 1-.08-.799c-4.064-.076-7.985-1.82-10.962-4.926-3.764-3.927-5.477-9.368-4.699-14.927.845-6.037.529-11.366.359-14.229-.047-.796-.081-1.37-.079-1.769.003-.505.013-1.844 4.489-4.113 1.592-.807 4.784-2.215 8.271-2.576 5.777-.597 9.585 1.976 10.725 7.246 3.077 14.228.244 20.521-1.825 25.117-.385.856-.749 1.664-1.04 2.447l-.257.69c-1.093 2.931-2.038 5.463-1.748 7.354a1.597 1.597 0 0 1-1.335 1.82zM42.464 42.26l.062 1.14c.176 2.973.504 8.507-.384 14.86-.641 4.584.759 9.06 3.843 12.275 2.437 2.542 5.644 3.945 8.94 3.945h.068c.369-1.555.982-3.197 1.642-4.966l.255-.686c.329-.884.714-1.74 1.122-2.646 1.991-4.424 4.47-9.93 1.615-23.132-.565-2.615-1.936-4.128-4.189-4.627-4.628-1.022-11.525 2.46-12.974 3.837m9.63-.677c-.08.564 1.033 2.07 2.485 2.271 1.449.203 2.689-.975 2.768-1.539s-1.033-1.186-2.485-1.388-2.691.092-2.768.656m2.818 2.826-.407-.028c-.9-.125-1.81-.692-2.433-1.518-.219-.29-.576-.852-.505-1.354.101-.736.999-1.177 2.4-1.177.313 0 .639.023.967.07.766.105 1.477.326 2.002.62.91.507.977 1.074.936 1.367-.112.813-1.405 2.02-2.96 2.02m-2.289-2.732c.045.348.907 1.496 2.029 1.651l.261.018c1.036 0 1.81-.815 1.901-1.082-.096-.182-.762-.634-2.025-.81a6 6 0 0 0-.821-.059c-.812 0-1.243.183-1.345.282m43.605-1.245c.079.564-1.033 2.07-2.484 2.272-1.45.202-2.691-.975-2.771-1.539-.076-.564 1.036-1.187 2.486-1.388 1.45-.203 2.689.092 2.769.655m-2.819 2.56c-1.396 0-2.601-1.086-2.7-1.79-.115-.847 1.278-1.49 2.712-1.689.316-.044.629-.066.93-.066 1.238 0 2.058.363 2.14.95.053.378-.238.963-.739 1.491-.331.347-1.026.948-1.973 1.08zm.943-3.013q-.416 0-.856.061c-1.441.201-2.301.78-2.259 1.09.048.34.968 1.331 2.173 1.331l.297-.02c.787-.11 1.378-.624 1.66-.92.443-.465.619-.903.598-1.052-.028-.198-.56-.49-1.613-.49m3.965 32.843a1.593 1.593 0 0 1-1.324-2.483c3.398-5.075 2.776-10.25 2.175-15.255-.257-2.132-.521-4.337-.453-6.453.07-2.177.347-3.973.614-5.71.317-2.058.617-4.002.493-6.31a1.596 1.596 0 1 1 3.186-.172c.142 2.638-.197 4.838-.525 6.967-.253 1.643-.515 3.342-.578 5.327-.061 1.874.178 3.864.431 5.97.64 5.322 1.365 11.354-2.691 17.411a1.6 1.6 0 0 1-1.328.708"/></svg>