<svg xmlns="http://www.w3.org/2000/svg" width="220" height="160" fill="none" viewBox="0 0 332 242"><path fill="#01E4A6" d="m165.879 2.048 81.916 32.65-163.832 69.636-81.915-36.84z" opacity=".1"/><path fill="#01E4A6" fill-rule="evenodd" d="m73.184 179.56 5.09-11.182 87.605 39.872 87.606-39.872 5.089 11.182-92.695 42.189z" clip-rule="evenodd" opacity=".1"/><path fill="#01E4A6" fill-rule="evenodd" d="m73.184 155 5.09-11.182 87.605 39.872 87.606-39.872L258.574 155l-92.695 42.189z" clip-rule="evenodd" opacity=".1"/><path fill="#01E4A6" fill-rule="evenodd" d="M165.555.145a2.05 2.05 0 0 1 1.519.002l163.398 65.446a2.046 2.046 0 0 1 .08 3.767l-163.398 73.681a2.05 2.05 0 0 1-1.68.002L1.21 69.362a2.048 2.048 0 0 1 .08-3.77zM7.3 67.605l159.01 71.324 158.172-71.324L166.31 4.253z" clip-rule="evenodd"/><path fill="#01E4A6" fill-rule="evenodd" d="M74.618 123.129a2.05 2.05 0 0 1 1.953-.146l89.737 40.503 88.872-40.5a2.047 2.047 0 0 1 2.897 1.863v73.681c0 .801-.467 1.529-1.196 1.862l-89.717 41.03a2.05 2.05 0 0 1-1.696.003l-90.584-41.03a2.05 2.05 0 0 1-1.203-1.865v-73.681c0-.695.353-1.343.937-1.72m3.158 4.891v69.189l88.532 40.101 87.674-40.096v-69.182l-86.821 39.566a2.05 2.05 0 0 1-1.691.003z" clip-rule="evenodd"/><path fill="#01E4A6" d="M315.408 73.706v66.457l-20.515 10.258V82.808z" opacity=".4"/></svg>