<svg
  width="70"
  height="91"
  viewBox="0 0 70 91"
  fill="none"
  xmlns="http://www.w3.org/2000/svg"
>
  <g filter="url(#filter0_f_116_418)">
    <path
      d="M17.3732 85.3226C16.9434 85.3226 16.5136 85.1856 16.1547 84.9022C15.4131 84.3166 15.1911 83.2917 15.6209 82.4557L31.9346 52.2615H7.95058C7.12876 52.2615 5.88185 52.1151 5.29619 50.8588C4.75775 49.7111 5.02697 48.6201 5.51817 47.5385L22.4884 5.03149C22.8568 4.71505 55.0874 6.88763 55.5502 6.88763C55.9753 6.88763 56.4099 7.0246 56.7641 7.30798C57.5056 7.89363 57.7276 8.91852 57.2931 9.75922L39.2649 38.0972H63.0317C63.8535 38.0972 64.5856 38.6073 64.8784 39.3772C65.1618 40.147 64.9398 41.0161 64.3164 41.5545L18.6626 84.8455C18.2895 85.162 17.8314 85.3226 17.3732 85.3226Z"
      fill="#00E3A5"
    />
  </g>
  <path
    d="M17.3732 85.3226C16.9434 85.3226 16.5136 85.1856 16.1547 84.9022C15.4131 84.3166 15.1911 83.2917 15.6209 82.4557L31.9346 52.2615H7.95058C7.12876 52.2615 5.88185 52.1151 5.29619 50.8588C4.75775 49.7111 5.02697 48.6201 5.51817 47.5385L22.4884 5.03149C22.8568 4.71505 55.0874 6.88763 55.5502 6.88763C55.9753 6.88763 56.4099 7.0246 56.7641 7.30798C57.5056 7.89363 57.7276 8.91852 57.2931 9.75922L39.2649 38.0972H63.0317C63.8535 38.0972 64.5856 38.6073 64.8784 39.3772C65.1618 40.147 64.9398 41.0161 64.3164 41.5545L18.6626 84.8455C18.2895 85.162 17.8314 85.3226 17.3732 85.3226Z"
    fill="#00E3A5"
  />
  <defs>
    <filter
      id="filter0_f_116_418"
      x="0"
      y="0"
      width="70"
      height="90.3225"
      filterUnits="userSpaceOnUse"
      color-interpolation-filters="sRGB"
    >
      <feFlood flood-opacity="0" result="BackgroundImageFix" />
      <feBlend
        mode="normal"
        in="SourceGraphic"
        in2="BackgroundImageFix"
        result="shape"
      />
      <feGaussianBlur
        stdDeviation="2.5"
        result="effect1_foregroundBlur_116_418"
      />
    </filter>
  </defs>
</svg>
