<svg xmlns="http://www.w3.org/2000/svg" width="70" height="91" fill="none"><g filter="url(#a)"><path fill="#00E3A5" d="M17.373 85.323a1.97 1.97 0 0 1-1.752-2.867L31.935 52.26H7.95c-.822 0-2.07-.146-2.655-1.402-.538-1.148-.269-2.239.222-3.32L22.488 5.03c.369-.316 32.6 1.857 33.062 1.857a1.968 1.968 0 0 1 1.743 2.872L39.265 38.096h23.767c.822 0 1.554.51 1.846 1.28.284.77.062 1.64-.562 2.177L18.663 84.846a2 2 0 0 1-1.29.477"/></g><path fill="#00E3A5" d="M17.373 85.323a1.97 1.97 0 0 1-1.752-2.867L31.935 52.26H7.95c-.822 0-2.07-.146-2.655-1.402-.538-1.148-.269-2.239.222-3.32L22.488 5.03c.369-.316 32.6 1.857 33.062 1.857a1.968 1.968 0 0 1 1.743 2.872L39.265 38.096h23.767c.822 0 1.554.51 1.846 1.28.284.77.062 1.64-.562 2.177L18.663 84.846a2 2 0 0 1-1.29.477"/><defs><filter id="a" width="70" height="90.323" x="0" y="0" color-interpolation-filters="sRGB" filterUnits="userSpaceOnUse"><feFlood flood-opacity="0" result="BackgroundImageFix"/><feBlend in="SourceGraphic" in2="BackgroundImageFix" result="shape"/><feGaussianBlur result="effect1_foregroundBlur_116_418" stdDeviation="2.5"/></filter></defs></svg>