<svg xmlns="http://www.w3.org/2000/svg" width="1573" height="961" fill="none"><g clip-path="url(#a)"><mask id="b" width="1573" height="961" x="0" y="0" maskUnits="userSpaceOnUse" style="mask-type:luminance"><path fill="#fff" d="M0 0h1573v961H0z"/></mask><g fill="#01E4A6" fill-opacity=".1" mask="url(#b)"><path d="M1330.81 961c-45.06 0-90.48-.04-135.45-.183l-941.693-.154-253.176.308v-2.282l253.17-.308 512.347-.457 429.352.611 222.75.148h154.06v2.283c-51.36-.063-103.57-.035-154.06 0zm-23.45-16.32c-38.57 0-77.32-.565-115.75-2.288-30.83-1.387-62.27-3.475-92.68-5.501-68.98-4.588-140.307-9.33-210.117-6.266-33.494 1.472-67.582 3.784-100.54 6.02-51.119 3.47-103.972 7.053-155.981 7.601-63.792.674-128.663-2.322-191.405-5.21l-137.404-4.998c-59.361-1.005-119.722 2.014-178.102 4.936L.514 943.852l-.04-2.282c41.59-.713 83.888-2.83 124.792-4.873 58.415-2.922 118.821-5.94 178.257-4.942 45.815.776 92.406 2.922 137.467 4.999 62.702 2.893 127.544 5.877 191.273 5.21 51.946-.548 104.772-4.132 155.85-7.595l100.598-6.026c69.935-3.07 141.329 1.677 210.379 6.265l92.62 5.495c75.02 3.373 151.29 2.306 225.06 1.273l155.43-.719-.04 2.282c-51.8-.73-104.44.006-155.36.719zm-16.77-15.396c-33.19 0-66.46-.924-99.54-3.515-35.49-2.779-71.49-6.431-106.3-9.963l-56.12-5.575-13.87-1.335c-43.697-4.234-88.884-8.611-133.186-5.073-33.511 2.676-67.525 6.842-100.42 10.87-45.569 5.581-92.691 11.35-139.282 13.267-44.348 1.826-90.025-1.894-134.201-5.495l-35.67-2.802-22.779-1.666-160.468-9.552c-55.896-1.769-112.552 3.789-167.347 9.164-39.58 3.88-80.508 7.898-120.87 9.13l-.069-2.282c40.283-1.227 81.176-5.239 120.716-9.119 54.864-5.381 111.594-10.95 167.639-9.176 53.613 1.695 107.985 5.695 160.565 9.558l22.779 1.667 35.686 2.801c44.108 3.595 89.717 7.316 133.922 5.49 46.499-1.917 93.575-7.681 139.099-13.256l100.518-10.882c44.501-3.555 89.796.833 133.598 5.079l13.86 1.335 56.13 5.575 106.26 9.958c75.22 5.889 151.6 3.155 225.47.513 50.92-1.82 103.58-3.703 155.49-2.762l-.04 2.283c-51.85-.947-104.47.936-155.37 2.756zm-12.06-14.505c-29.42 0-58.9-1.187-88.29-4.331-36.14-3.863-72.7-9.016-108.07-13.998l-56.97-7.846-14.88-1.986c-43.562-5.86-88.611-11.92-132.491-7.036-32.067 3.572-64.523 9.302-95.91 14.848-42.938 7.584-87.336 15.424-131.512 17.878-24.498 1.358-49.8-.799-74.269-2.893l-16.898-1.404c-29.647-2.311-58.643-5.204-85.561-7.989l-23.401-2.436c-54.743-5.724-111.347-11.635-167.261-14.123-54.755-2.431-109.909 5.455-163.248 13.09-38.981 5.575-79.292 11.344-119.221 13.062l-.097-2.283c39.814-1.712 80.068-7.469 118.998-13.039 53.442-7.646 108.705-15.549 163.671-13.107 55.982 2.488 112.621 8.411 167.398 14.134l23.396 2.437 85.503 7.983 16.916 1.404c24.394 2.088 49.616 4.24 73.948 2.887 44.039-2.448 88.369-10.277 131.244-17.849 31.422-5.547 63.912-11.287 96.059-14.865 44.159-4.919 89.351 1.164 133.056 7.041l14.86 1.986 57 7.846 107.99 13.987c75.78 8.103 152.39 3.172 226.48-1.592 50.78-3.27 103.28-6.648 155.23-5.832l-.03 2.282c-51.86-.816-104.31 2.562-155.05 5.826-45.49 2.928-91.95 5.918-138.59 5.918"/><path d="M1278.87 901.774c-31.09 0-60.18-1.866-88.39-5.592-36.27-4.793-72.87-11.276-108.26-17.547l-57.05-9.866-14.01-2.34c-43.643-7.338-88.766-14.922-132.429-8.976-31.108 4.234-62.462 11.282-92.788 18.095-41.007 9.21-83.408 18.739-125.934 21.501-25.211 1.632-51.444-1.204-76.814-3.948l-16.065-1.695c-30.184-3.03-59.625-6.831-86.948-10.483l-23.55-3.172c-55.673-7.533-113.248-15.322-170.293-18.546-55.405-3.133-110.822 6.91-164.412 16.617C82.306 883 41.339 890.419.554 892.513l-.114-2.277c40.637-2.083 81.53-9.49 121.081-16.657 53.722-9.729 109.282-19.789 164.95-16.645 57.135 3.23 114.75 11.025 170.47 18.563l23.544 3.172 86.873 10.477 16.082 1.701c25.274 2.733 51.415 5.563 76.426 3.943 42.349-2.751 84.659-12.257 125.581-21.45 30.371-6.825 61.771-13.878 92.982-18.124 44.005-5.991 89.305 1.627 133.111 8.988l14 2.334 57.08 9.872 108.16 17.529c55.56 7.344 114.54 7.424 185.61.263l36.48-3.823c52.07-5.564 105.91-11.31 159.32-10.882l-.02 2.282c-53.28-.445-107.05 5.307-159.05 10.865l-36.5 3.829c-35.19 3.526-67.43 5.301-97.75 5.301m-6.5-11.755c-28.98 0-56.85-3.641-80.86-7.355-36.02-5.575-72.25-13.233-107.29-20.64l-56.47-11.641-11.53-2.277c-43.924-8.708-89.345-17.718-133.156-11.019-30.662 4.691-61.422 12.822-91.166 20.686-39.797 10.522-80.948 21.398-122.578 24.252-25.816 1.769-52.796-1.729-78.886-5.113l-14.056-1.792c-30.212-3.715-60.749-8.588-86.645-12.862l-23.264-3.869c-55.508-9.267-112.901-18.854-170.008-22.734-57.278-3.892-114.293 8.109-169.425 19.721C85.8 864.061 43.154 873.037.554 875.365l-.126-2.277c42.429-2.322 84.984-11.281 126.134-19.943 55.292-11.641 112.461-23.681 170.054-19.767 57.215 3.892 114.664 13.484 170.224 22.763l23.258 3.869c25.868 4.268 56.382 9.135 86.549 12.844l14.066 1.792c25.982 3.367 52.848 6.848 78.442 5.096 41.413-2.836 82.46-13.689 122.149-24.183 29.801-7.881 60.618-16.029 91.407-20.737 44.204-6.762 89.825 2.282 133.939 11.036l11.53 2.271 56.5 11.647c35.01 7.401 71.21 15.053 107.17 20.617 27.64 4.279 60.45 8.462 94.09 7.053 32.98-1.387 65.79-5.513 90.69-8.959l36.56-5.244c51.85-7.573 105.45-15.402 158.98-15.516v2.283c-53.36.114-106.88 7.931-158.64 15.492l-36.59 5.25c-24.95 3.452-57.83 7.589-90.91 8.976-4.55.197-9.11.294-13.66.291m-2.92-12.645c-27.59 0-53.76-3.84-76.37-7.795-35.51-6.214-71.08-14.905-105.49-23.31l-55.44-13.176-7.42-1.672c-44.504-10.06-90.53-20.463-135.066-13.273-30.771 4.97-61.486 13.992-91.184 22.723-39.323 11.561-79.994 23.51-121.475 26.266-26.473 1.763-54.127-2.397-80.874-6.414l-10.698-1.592c-29.641-4.337-59.534-10.055-84.87-15.076l-22.625-4.52c-54.361-10.899-110.565-22.174-166.793-26.608-60.452-4.771-120.722 9.09-179.005 22.5-42.926 9.872-87.313 20.08-131.575 22.837l-.143-2.277c44.079-2.745 88.369-12.931 131.204-22.78 58.454-13.444 118.895-27.345 179.696-22.551 56.359 4.445 112.638 15.732 167.062 26.648l22.619 4.52c25.302 5.015 55.16 10.728 84.755 15.053l10.704 1.592c26.627 4 54.156 8.137 80.383 6.397 41.23-2.739 81.775-14.66 120.984-26.181 29.767-8.748 60.55-17.798 91.464-22.785 44.97-7.258 91.212 3.19 135.937 13.301l7.42 1.672 55.48 13.188c34.36 8.394 69.91 17.073 105.34 23.276 27.1 4.742 59.31 9.312 92.88 7.252 32.95-2.02 65.7-7.327 90.54-11.726l36.68-6.728c51.58-9.621 104.91-19.573 158.58-20.303l.03 2.283c-53.48.724-106.71 10.659-158.19 20.263l-36.71 6.727c-24.9 4.411-57.73 9.73-90.79 11.755-5.67.347-11.36.518-17.04.514m-1.94-12.748c-27.01 0-52.41-4.126-72.55-8.012-34.85-6.727-69.6-16.303-103.2-25.564l-54.16-14.505-1.3-.326c-45.638-11.515-92.835-23.424-138.986-15.96-31.462 5.09-62.719 14.848-92.942 24.286-39.62 12.371-80.594 25.165-122.669 27.67-27.431 1.638-55.925-3.258-83.482-7.989l-5.504-.942c-28.659-4.89-57.449-11.378-81.832-17.084l-21.677-5.113c-52.374-12.4-106.53-25.228-161.085-30.084-52.779-4.702-105.233 7.276-155.957 18.854l-1.936.445-23.412 5.421C99.29 826.793 50.148 838.246.565 841.139l-.131-2.277c49.388-2.876 98.434-14.306 145.864-25.359l23.424-5.421 1.935-.439c50.896-11.618 103.527-23.636 156.672-18.905 54.715 4.873 108.956 17.718 161.41 30.135l21.671 5.113c24.349 5.7 53.099 12.183 81.696 17.056l5.509.941c27.426 4.708 55.788 9.581 82.957 7.961 41.801-2.488 82.637-15.242 122.126-27.567 30.304-9.461 61.634-19.248 93.262-24.361 46.62-7.538 94.05 4.428 139.92 16.001l1.29.325c18.13 4.577 36.47 9.627 54.2 14.517 33.57 9.25 68.27 18.814 103.03 25.524 24.77 4.782 57.54 9.924 91.37 7.224 32.9-2.63 65.59-9.084 90.39-14.414l36.81-8.194c51.28-11.618 104.32-23.63 158.19-24.931l.05 2.283c-53.63 1.295-106.55 13.284-157.73 24.874l-36.84 8.199c-24.87 5.347-57.65 11.818-90.69 14.46-6.54.514-13.03.742-19.44.742m-1.94-13.067c-20.45 0-42.46-2.631-68.69-8.092-34.14-7.116-68.02-17.444-100.78-27.436l-52.8-15.618c-47.226-13.113-93.361-24.298-138.462-17.302-32.763 5.085-65.196 15.442-96.561 25.462-40.699 13.005-82.786 26.449-126.208 28.583-50.548 2.482-104.829-12.446-152.727-25.61l-10.43-2.865-20.501-5.649c-49.68-13.741-101.049-27.944-153.269-33.074-53.556-5.255-107.18 7.339-159.041 19.522l-5.406 1.266-25.354 6.038C105.068 808.841 53.076 821.309.554 824.014l-.12-2.277c52.317-2.687 104.2-15.133 154.371-27.167l25.365-6.038 5.406-1.266c52.043-12.223 105.856-24.868 159.789-19.573 52.419 5.147 103.886 19.379 153.657 33.142l20.495 5.644 10.436 2.864c47.733 13.125 101.831 27.99 152.013 25.536 43.125-2.117 85.064-15.521 125.626-28.48 31.445-10.049 63.963-20.434 96.904-25.547 45.558-7.065 91.943 4.182 139.414 17.358 17.71 4.913 35.58 10.363 52.86 15.636 32.71 9.974 66.53 20.291 100.58 27.384 35.52 7.401 63.21 9.564 89.78 7.025 32.68-3.127 63.96-10.272 90.26-16.851l36.96-9.587c50.99-13.455 103.72-27.361 157.79-29.096l.08 2.282c-53.81 1.724-106.42 15.601-157.28 29.023l-36.99 9.592c-26.38 6.596-57.76 13.769-90.59 16.908-7.15.69-14.37 1.033-21.79 1.033"/><path d="M1264.47 837.806c-20.07 0-41.52-2.619-65.86-7.983-33.53-7.384-66.59-18.346-98.58-28.954l-51.54-16.548c-41.16-12.343-89.108-24.931-137.423-18.009-34.716 4.976-68.993 15.841-102.145 26.346-42.577 13.495-86.605 27.447-132.129 29.131q-4.034.147-8.078.148c-49.417 0-100.483-16.166-145.818-30.517l-19.148-6.112c-46.414-14.887-94.41-30.277-143.781-35.487-54.235-5.729-108.99 7.378-161.935 20.052l-7.947 1.9-27.146 6.579C110.212 791.243 55.691 804.567.554 806.895l-.097-2.282c54.909-2.317 109.321-15.618 161.941-28.48l27.157-6.585 7.941-1.901c53.134-12.719 108.077-25.866 162.706-20.097 49.605 5.238 97.715 20.662 144.237 35.584l19.143 6.112c47.63 15.076 101.625 32.172 153.126 30.266 45.215-1.672 89.088-15.578 131.523-29.028 33.238-10.534 67.612-21.427 102.516-26.432 48.766-6.99 97.013 5.667 138.403 18.084 17.3 5.187 34.74 10.973 51.61 16.565 31.92 10.585 64.94 21.536 98.34 28.891 33.71 7.424 61.78 9.558 88.35 6.728 32.65-3.487 63.88-11.487 90.13-18.86l37.1-10.807c50.72-15.042 103.16-30.598 157.46-32.503l.08 2.282c-54.01 1.895-106.31 17.41-156.88 32.412l-37.14 10.819c-26.34 7.395-57.7 15.43-90.51 18.934-7.59.804-15.3 1.209-23.22 1.209"/><path d="M1263.64 823.13c-19.95 0-41.01-2.574-63.76-7.755-31.73-7.23-63.61-18.648-94.45-29.696-61.22-21.935-124.542-44.617-190.646-36.126-37.36 4.799-74.206 16.097-109.835 27.025-45.261 13.877-92.063 28.229-140.464 29.444l-5.812.074c-55.268 0-107.483-19.561-158.047-38.5-41.995-15.732-85.424-32.001-130.319-36.954-54.749-6.037-110.366 7.475-164.156 20.548l-9.106 2.209-28.653 7.058C113.9 774.01 57.552 788.019.531 789.776l-.069-2.282c56.776-1.752 113.004-15.732 167.382-29.251l28.67-7.064 9.106-2.208c53.979-13.119 109.795-26.683 164.944-20.6 45.175 4.987 88.74 21.301 130.873 37.085 52.122 19.527 106.027 39.71 162.997 38.284 48.081-1.21 94.734-15.516 139.847-29.348 35.726-10.956 72.664-22.283 110.217-27.105 66.658-8.565 130.232 14.215 191.712 36.241 30.77 11.025 62.58 22.42 94.18 29.621 31.94 7.276 60.49 9.37 87.29 6.392 32.63-3.624 63.83-12.28 90.04-20.269l37.23-11.79c50.48-16.291 102.68-33.136 157.2-34.859l.07 2.282c-54.2 1.712-106.24 18.511-156.57 34.752l-37.26 11.8c-26.31 8.018-57.64 16.708-90.46 20.355-8.07.886-16.18 1.326-24.29 1.318m-4.54-16.72c-20.1 0-39.49-2.191-58.64-6.602-32.76-7.544-64.93-19.224-96.04-30.517-60.13-21.833-122.316-44.407-189.596-36.834-40.757 4.587-80.942 16.274-119.803 27.578-48.744 14.18-99.148 28.84-151.185 29.65l-3.135.023c-51.923 0-99.29-19.955-145.139-39.271-38.798-16.343-78.915-33.245-121.601-37.987-55.086-6.117-111.16 7.755-165.389 21.171l-8.273 2.043-29.732 7.48C115.378 757.171 58.306 771.682.525 772.663l-.04-2.282c57.512-.976 114.454-15.453 169.517-29.445l29.749-7.487 8.273-2.042c54.423-13.462 110.697-27.385 166.188-21.228 43.017 4.776 83.288 21.741 122.241 38.153 46.551 19.612 94.689 39.887 147.354 39.071 51.735-.805 101.985-15.425 150.586-29.559 38.952-11.333 79.235-23.048 120.185-27.659 30.44-3.429 62.405-1.055 97.722 7.247 31.47 7.402 62.7 18.74 92.91 29.707 31.05 11.27 63.15 22.928 95.78 30.438 67.25 15.481 129.82.217 176.81-14.814l37.31-12.434c50.32-17.113 102.35-34.808 157.07-35.881l.04 2.283c-54.36 1.067-106.22 18.705-156.38 35.761l-37.34 12.445c-33.29 10.648-61.29 16.931-88.12 19.773-10.67 1.135-21.07 1.7-31.28 1.7m5.6-17.929c-19.45 0-39.82-2.499-62.51-7.601-31.87-7.161-63.71-18.174-94.5-28.828-62.33-21.553-126.768-43.842-194.494-35.219-41.875 5.329-83.431 17.455-123.61 29.182-51.809 15.121-105.388 30.757-160.348 32.052-51.581 1.193-98.52-20.497-143.924-41.496-36.155-16.72-73.543-34.01-113.054-39.636-51.21-7.282-104.675 5.78-156.375 18.414l-15.928 3.869-29.179 7.138C115.498 740.006 58.34 754.112.525 755.544l-.057-2.282c57.569-1.421 114.602-15.504 169.762-29.12l29.19-7.138 15.917-3.869c49.491-12.097 105.593-25.804 157.236-18.46 39.843 5.666 77.386 23.031 113.695 39.824 45.163 20.885 91.857 42.472 142.907 41.285 54.663-1.289 108.088-16.879 159.76-31.961 40.271-11.749 81.907-23.903 123.965-29.256 68.262-8.691 132.96 13.69 195.53 35.328 30.73 10.631 62.52 21.621 94.26 28.754 32.3 7.258 59.86 9.216 86.74 6.146 33.05-3.772 65.24-12.828 89.58-20.292l36.03-11.447c50.4-16.291 102.5-33.136 157.09-35.173l.09 2.282c-54.27 2.02-106.23 18.819-156.47 35.06l-36.07 11.458c-24.44 7.498-56.76 16.588-89.99 20.377-8.3.953-16.64 1.427-24.99 1.421m5.19-22.209c-19 0-39.31-2.322-63.13-7.116-31.34-6.305-63.24-16.017-94.1-25.41-65.13-19.829-132.486-40.332-200.645-31.134-42.624 5.752-85.075 17.679-126.134 29.211-53.454 15.013-108.722 30.535-165.133 32.686-42.543 1.615-85.463-17.536-123.336-34.438l-15.831-7.133c-35.687-16.166-72.59-32.885-111.993-39.242-48.806-7.875-103.047 4.776-150.906 15.944l-19.97 4.61-28.202 6.471C115.276 723.503 58.157 736.719.531 738.437l-.069-2.283c57.398-1.706 114.408-14.899 169.534-27.658l28.214-6.477 19.953-4.605c48.064-11.213 102.539-23.915 151.79-15.972 39.706 6.408 76.746 23.191 112.57 39.419l15.819 7.133c37.645 16.8 80.308 35.841 122.315 34.238 56.136-2.14 111.279-17.627 164.601-32.6 41.133-11.55 83.665-23.499 126.443-29.273 68.662-9.268 136.249 11.309 201.619 31.207 30.8 9.376 62.65 19.077 93.88 25.359 34.12 6.865 60.97 8.634 87.06 5.729 25.75-2.859 52.95-8.485 88.19-18.226l33.87-9.643c50.15-14.483 102.01-29.462 155.8-32.001l.11 2.282c-53.53 2.528-105.25 17.467-155.27 31.916l-33.9 9.649c-35.36 9.781-62.67 15.424-88.54 18.3-8.08.885-16.23 1.341-24.63 1.341m-659.281-17.895c-38.718 0-78.601-16.639-113.979-31.402l-3.226-1.346-15.74-6.62C442 693.933 405.12 678.344 366.191 672.055c-47.761-7.72-101.032 3.715-148.034 13.804l-21.334 4.519-27.089 5.667C114.682 707.657 57.758 719.657.525 721.306l-.069-2.282c57.027-1.638 113.848-13.621 168.803-25.211l27.1-5.672 21.318-4.513c47.196-10.129 100.689-21.61 148.878-13.821 39.198 6.334 76.209 21.981 111.999 37.108l15.728 6.619 3.226 1.347c36.771 15.339 78.447 32.714 118.307 31.122 56.901-2.299 113.135-17.004 167.524-31.225 41.522-10.853 84.453-22.083 127.442-27.732 50.53-6.642 100.029 2.465 146.389 12.365l54.03 12.235c33.51 7.806 68.16 15.875 102.68 21.535 25.29 4.143 55.48 7.961 87.73 4.851 25.14-2.426 52.47-7.196 86-15.019l31.1-7.43c49.6-11.989 100.89-24.389 153.41-26.763l.1 2.283c-52.3 2.368-103.48 14.739-152.97 26.7l-31.12 7.435c-33.64 7.846-61.06 12.634-86.31 15.065-32.7 3.15-64.38-.948-88.32-4.873-34.6-5.667-69.28-13.747-102.84-21.565l-53.98-12.222c-46.17-9.861-95.449-18.934-145.614-12.338-42.846 5.633-85.709 16.84-127.162 27.676-54.503 14.249-110.857 28.988-168.009 31.293-1.747.069-3.517.103-5.287.103zm-2.004-18.386c-38.021 0-77.619-14.579-112.74-27.515l-5.087-1.872-15.797-5.855c-36.252-13.489-73.737-27.441-112.706-33.159-47.676-6.99-98.126 2.579-146.915 11.829l-20.895 3.915-25.856 4.781C113.848 692.318 57.227 702.864.525 704.182l-.051-2.283c56.519-1.312 113.049-11.846 167.718-22.032l25.862-4.782 20.883-3.908c48.972-9.29 99.616-18.894 147.674-11.847 39.21 5.746 76.809 19.744 113.169 33.279l15.786 5.849 5.092 1.872c36.617 13.484 78.133 28.771 117.354 27.271 56.953-2.175 113.574-15.43 168.335-28.247 41.675-9.758 84.767-19.841 127.749-24.993 52.192-6.254 106.014 1.951 149.254 8.548l56.15 9.061c34.88 5.781 70.94 11.761 106.63 15.978 26.04 3.081 56.94 5.917 88.67 3.623 24.7-1.78 51.14-5.266 83.24-10.956l27.91-5.05c48.81-8.913 99.27-18.129 150.19-19.875l.08 2.283c-50.75 1.74-101.14 10.944-149.86 19.841l-27.93 5.05c-32.17 5.706-58.7 9.198-83.47 10.984-31.93 2.306-62.95-.542-89.1-3.635-35.75-4.228-71.84-10.208-106.74-15.994l-56.12-9.056c-54.82-8.36-100.577-14.3-148.635-8.537-42.857 5.136-85.886 15.207-127.499 24.948-54.863 12.845-111.593 26.124-168.769 28.303-1.826.08-3.659.114-5.492.114m1.313-19.926c-39.603 0-79.331-12.263-117.764-24.126l-6.634-2.043-12.486-3.858c-37.776-11.709-76.837-23.812-116.794-28.394-48.361-5.547-98.817 2.602-147.611 10.488l-20.039 3.201-21.363 3.373C112.838 677.334 56.599 686.253.52 687.08l-.034-2.283c55.919-.827 112.079-9.734 166.383-18.345l21.368-3.373 20.022-3.201c48.948-7.909 99.559-16.086 148.233-10.5 40.174 4.605 79.338 16.748 117.211 28.486l12.48 3.858 6.64 2.048c38.512 11.887 78.35 24.172 117.839 24.024 44.199-.177 89.231-8.959 132.779-17.456l15.483-3.007 19.884-3.852c41.796-8.131 85.018-16.537 128.11-21.102 50.267-5.324 101.262-.764 150.572 3.647l2.13.188 60.73 5.775 109.44 9.706c54.98 3.858 110.85 2.551 170.82-3.994l25.68-2.853c47.63-5.336 96.88-10.859 145.87-11.715l.04 2.282c-48.89.856-98.09 6.368-145.66 11.698l-25.68 2.853c-60.11 6.557-116.12 7.869-171.23 4-36.56-2.562-73.65-6.197-109.51-9.712l-60.7-5.775-2.13-.188c-49.21-4.399-100.088-8.953-150.133-3.652-42.988 4.554-86.16 12.953-127.909 21.073l-19.89 3.858-15.477 3.007c-43.651 8.514-88.792 17.324-133.208 17.501-.245-.011-.503-.011-.755-.011m1.924-21.188c-48.931 0-97.235-12.171-143.969-23.943-37.782-9.518-76.854-19.362-115.96-22.689-50.154-4.262-101.717 2.397-151.579 8.834l-14.495 1.86-19.965 2.562C111.85 662.469 55.988 669.67.502 669.95l-.011-2.283c55.343-.28 111.131-7.475 165.092-14.431l19.97-2.562 14.49-1.861c49.982-6.453 101.671-13.13 152.07-8.844 39.294 3.344 78.452 13.21 116.326 22.751 46.979 11.84 95.562 24.052 144.619 23.875 57.433-.24 115.327-9.963 171.315-19.362 40.015-6.722 81.393-13.666 122.264-17.096 45.495-3.817 91.954-2.339 136.883-.907l18.74.582 63.23 2.031 113.96 3.344c62.38 1.319 125.73-.348 186.99-1.963l145.74-2.436v2.282c-48.6-.114-97.95 1.182-145.68 2.437-61.29 1.615-124.67 3.287-187.1 1.963l-113.99-3.344-63.22-2.031-18.75-.583c-44.866-1.426-91.257-2.904-136.62.902-40.78 3.424-82.107 10.363-122.076 17.073-56.073 9.416-114.059 19.156-171.68 19.396zm5.007-21.792h-.245c-49.583-.017-99.045-8.93-146.881-17.553-39.814-7.172-80.982-14.596-121.978-16.833-63.472-3.47-127.824 3.161-190.052 9.581-51.46 5.307-104.679 10.802-157.196 10.556l.011-2.282c52.408.245 105.553-5.244 156.951-10.545 62.319-6.426 126.762-13.068 190.412-9.587 41.139 2.248 82.38 9.684 122.263 16.868 47.739 8.605 97.098 17.501 146.475 17.518h.246c56.119 0 112.832-7.235 167.695-14.237 39.923-5.096 81.205-10.363 121.944-12.805 36.549-2.191 73.823-2.807 109.876-3.401l48.49-.936 65.67-1.66 118.45-2.956c67.73-1.632 136.22 1.649 202.46 4.816l120.77 4.742-.05 2.282c-40.37-.895-81.28-2.853-120.84-4.747-66.19-3.167-134.64-6.443-202.29-4.816l-118.44 2.955-65.68 1.661-48.5.936-109.773 3.395c-40.665 2.437-81.907 7.698-121.795 12.788-54.938 7.013-111.731 14.26-167.993 14.26m3.511-21.861c-49.651 0-99.564-5.832-147.874-11.475-41.395-4.833-84.201-9.838-126.573-11.133-60.675-1.86-122.178 2.317-181.66 6.351C110.64 632.608 55.2 636.368.491 635.712l.029-2.283c54.618.662 110.011-3.104 163.579-6.739 59.533-4.04 121.093-8.223 181.882-6.357 42.469 1.301 85.326 6.306 126.774 11.15 49.582 5.792 100.86 11.767 151.727 11.447 52.751-.348 106.17-4.919 157.83-9.335 41.493-3.55 84.396-7.219 126.74-8.685 78.264-2.711 157.588-8.417 234.298-13.929l116.22-8.001 6.86-.433c28.23-1.792 57.44-3.647 86.25-1.815 22.29 1.421 45.4 3.926 70.65 7.669l14.44 2.152c43.8 6.545 89.08 13.312 134.45 15.036l-.08 2.282c-45.51-1.734-90.85-8.508-134.71-15.064l-14.43-2.152c-25.19-3.732-48.24-6.231-70.46-7.652-28.67-1.826-57.8.023-85.97 1.815l-6.87.433-116.19 8.001-234.39 13.935c-42.28 1.466-85.155 5.13-126.619 8.679-51.706 4.422-105.171 8.993-158.013 9.347zm6.674-21.37c-49.348 0-99.296-3.184-147.617-6.265-44.753-2.854-91.035-5.804-136.661-6.215-55.092-.49-111.057 1.632-165.178 3.681-58.026 2.203-118.022 4.474-177.098 3.538l.034-2.283c59.014.942 118.981-1.335 176.972-3.532 54.15-2.054 110.144-4.177 165.287-3.686 45.694.405 92.006 3.361 136.787 6.214 48.714 3.104 99.096 6.323 148.787 6.26 50.81-.057 102.385-2.625 152.264-5.107l128.424-4.913c80.485-1.227 161.625-10.854 240.105-20.167l118.03-13.01 4.43-.416c29.3-2.751 59.6-5.598 89.51-2.922 21.95 1.963 44.25 5.695 68.16 11.407l12.95 3.11c43.77 10.545 85.11 20.502 130 22.574l-.1 2.282c-45.12-2.082-86.56-12.068-130.43-22.637l-12.95-3.109c-23.8-5.684-45.99-9.399-67.83-11.356-29.7-2.659-59.9.177-89.09 2.922l-4.44.416c-39.39 3.681-79.34 8.423-117.98 13.005-78.53 9.318-159.732 18.956-240.337 20.183-42.811.651-86.297 2.813-128.343 4.907-49.908 2.483-101.512 5.056-152.373 5.113z"/><path d="M623.18 603.42c-45.694 0-92.028-1.216-136.889-2.391l-147.897-2.368-129.114 1.575L.48 601.48l.034-2.283c69.53.993 140.298-.143 208.731-1.244l129.143-1.575c49.343-.217 99.479 1.096 147.965 2.368l141.389 2.391 141.594-1.934 137.21-1.923c82.494-.24 165.154-12.777 245.094-24.897l119.49-16.685 2.02-.234c30.56-3.544 62.16-7.201 93.27-4.103 21.66 2.157 44.14 6.905 66.84 14.112l13.99 4.474c41.37 13.29 80.44 25.838 124.98 27.744l-.1 2.282c-44.85-1.923-84.06-14.517-125.58-27.852l-13.98-4.474c-22.54-7.156-44.87-11.869-66.37-14.015-30.86-3.075-62.34.571-92.78 4.097l-2.03.234c-39.91 4.622-80.32 10.751-119.4 16.68-80.02 12.137-162.767 24.685-245.427 24.925l-137.176 1.923-141.634 1.934zm-376.518-18.466c-82.027 0-164.453-.143-246.171-.599l.011-2.283 461.771.377 167.222-.211 114.185-.228 162.911-.211h1.079c82.289 0 164.14-13.975 243.31-27.499l123.49-19.236c51.33-6.471 106.4-9.615 161.35 11.03 8.12 3.053 16.25 6.465 24.1 9.764 10.79 4.531 21.94 9.21 33.21 13.01 23.97 8.086 49.84 12.36 79.08 13.079l-.05 2.282c-29.48-.724-55.56-5.038-79.76-13.198-11.34-3.823-22.53-8.525-33.36-13.068l-24.03-9.729c-54.48-20.468-109.21-17.341-160.25-10.905-41.35 5.21-83.06 12.337-123.4 19.225-79.25 13.535-161.207 27.527-243.69 27.527h-1.085c-54.298-.085-109.509.069-162.899.211l-114.186.228-167.221.212zm183.087-14.996c-31.143 0-62.365-.485-93.348-1.872-74.051-3.309-149.272-2.442-222.016-1.603l-113.894.753.006-2.282 113.86-.754c72.778-.839 148.028-1.706 222.147 1.609 67.863 3.036 136.924 1.747 203.714.503l91.143-1.313 156.906.166 118.946.302c55.743-.085 109.517-4.576 164.377-13.741l71.89-12.85c42.6-7.864 86.65-16.001 130.36-21.564 32.39-4.126 58.42-5.53 81.93-4.411 29.4 1.392 55.59 6.756 80.08 16.388 7.82 3.082 15.65 6.505 23.22 9.821 11.15 4.879 22.67 9.929 34.38 13.94 23.39 8.018 48.55 11.921 76.85 11.921l1.87-.006.01 2.282-1.88.006c-28.56 0-53.96-3.943-77.6-12.046-11.79-4.04-23.36-9.107-34.55-14.009l-23.14-9.786c-54.69-21.519-112.02-18.061-160.87-11.835-43.66 5.558-87.68 13.689-130.24 21.547l-71.93 12.856c-54.99 9.182-108.877 13.69-164.751 13.77-39.654.062-79.971-.126-118.958-.303l-156.882-.165-91.116 1.312zm7.701-13.107c-33.243 0-66.544-1.336-99.501-5.239-55.121-6.522-106.467-8.947-156.974-7.407l-63.461 2.568c-38.33 1.741-77.974 3.538-117.029 3.344l.011-2.282c39.009.205 78.613-1.598 116.914-3.339l63.495-2.567c50.622-1.547 102.077.884 157.311 7.418 69.37 8.211 140.389 5.033 209.074 1.957l97.19-3.218c49.993-.485 100.809.336 149.952 1.13l120.208 1.272c55.32-.028 108.65-4.788 163.06-14.545l67.11-12.874c41.78-8.28 84.98-16.833 127.95-22.465 31.55-4.138 57.56-5.387 81.85-3.949 28.91 1.717 55.03 7.315 79.84 17.124 7.29 2.882 14.61 6.032 21.69 9.079 12.19 5.244 24.8 10.671 37.61 14.876 24.17 7.932 49.8 11.236 78.39 10.112l.09 2.283c-28.86 1.141-54.76-2.203-79.18-10.22-12.92-4.24-25.57-9.684-37.8-14.951l-21.63-9.05c-57.37-22.683-115.94-18.882-160.56-13.033-42.89 5.62-86.06 14.174-127.8 22.443l-67.15 12.884c-54.54 9.787-108.007 14.551-163.459 14.58H912.9c-39.524 0-79.663-.651-118.496-1.278l-149.895-1.13c-32.301.314-65.248 1.792-97.11 3.218-36.189 1.609-73.029 3.259-109.949 3.259"/><path d="M446.682 543.304c-36.469 0-72.915-2.317-108.739-9.25l-12.314-2.425c-21.129-4.206-41.082-8.172-62.474-9.484-23.521-1.444-48.469-1.313-80.896.439-21.272 1.147-42.869 2.825-63.758 4.451-38.615 3.007-78.538 6.123-118.016 5.969l.006-2.283c39.369.154 79.263-2.961 117.833-5.963l63.809-4.456c32.519-1.752 57.547-1.889 81.159-.434 21.54 1.324 41.573 5.307 62.776 9.524l12.303 2.425c72.333 13.998 147.372 9.096 219.933 4.36 33.58-2.192 68.308-4.457 102.185-4.799 48.612-.491 97.988 1.135 145.733 2.71l117.285 2.768c54.087.279 106.183-4.668 159.243-15.111l63.98-13.501c39.81-8.685 80.97-17.661 122.03-23.481 30.42-4.308 57.32-5.598 82.24-3.932 28.53 1.906 54.76 7.635 80.19 17.507 7.02 2.728 14.08 5.672 20.91 8.525 13.27 5.541 27 11.276 40.97 15.596 24.84 7.686 50.68 10.391 79 8.257l.17 2.277c-28.61 2.151-54.73-.577-79.85-8.349-14.07-4.354-27.85-10.106-41.18-15.669l-20.85-8.503c-47.37-18.391-97.11-22.54-161.29-13.444-40.97 5.804-82.09 14.774-121.86 23.453l-64.03 13.507c-53.21 10.465-105.461 15.43-159.702 15.15-39.135-.2-78.898-1.506-117.348-2.773l-145.636-2.705c-33.814.343-68.507 2.602-102.059 4.793-36.817 2.403-74.291 4.851-111.753 4.851m10.584-13.906c-40.14 0-80.085-3.367-118.969-13.65l-14.37-3.909c-19.97-5.512-38.838-10.722-59.813-12.411-23.184-1.86-48.035-1.535-80.582 1.056-21.369 1.7-43.034 4.137-63.986 6.488-38.895 4.371-79.109 8.884-119.049 8.907v-2.282c39.814-.023 79.96-4.531 118.786-8.891l64.061-6.493c32.672-2.603 57.638-2.928 80.947-1.056 21.198 1.7 40.163 6.939 60.241 12.485l14.341 3.903c75.935 20.081 156.198 13.633 233.817 7.39 35.853-2.882 72.932-5.86 108.813-6.123 46.865-.336 94.393 2.254 140.35 4.759l113.517 4.657c51.826.73 102.1-4.451 153.7-15.83 20.1-4.433 40.46-9.421 60.14-14.248 37.4-9.17 76.07-18.649 114.78-24.737 61.01-9.592 112.79-5.239 162.95 13.695l8.8 3.338c44.38 16.851 86.31 32.771 136.3 27.145l.26 2.265c-7.1.799-14.04 1.17-20.84 1.17-41.61 0-78.16-13.877-116.53-28.451l-8.8-3.333c-49.78-18.791-101.19-23.105-161.79-13.575-38.62 6.071-77.24 15.538-114.59 24.697l-60.19 14.26c-51.78 11.412-102.233 16.605-154.23 15.88-37.919-.53-76.397-2.63-113.608-4.662-45.924-2.505-93.416-5.095-140.207-4.759-35.801.257-72.835 3.236-108.648 6.112-38.159 3.087-76.968 6.203-115.601 6.203m505.821-14.643q-6.975.002-13.947-.182c-36.509-.942-73.48-3.932-109.23-6.82-43.879-3.549-89.26-7.195-134.075-7.115-36.463.08-73.48 3.172-109.276 6.168l-61.851 4.634c-65.419 3.76-134.423 5.735-195.835-14.483l-16.83-5.803c-18.748-6.614-36.457-12.862-57.009-14.877-29.282-2.87-58.278-.536-80.269 1.809-21.46 2.294-43.188 5.513-64.197 8.623C81.433 492.506 40.951 498.504.502 498.76l-.017-2.282c40.288-.257 80.685-6.237 119.752-12.029l64.289-8.634c22.099-2.362 51.249-4.702 80.736-1.814 20.826 2.037 38.661 8.331 57.546 14.996l16.785 5.786c61.034 20.098 129.793 18.118 194.99 14.369 20.592-1.182 41.533-2.934 61.788-4.628 35.841-2.996 72.904-6.095 109.458-6.174 44.907-.075 90.339 3.572 134.264 7.127 35.721 2.887 72.664 5.871 109.104 6.813 49.223 1.267 97.313-4.177 147.003-16.651 18.68-4.685 37.56-9.975 55.83-15.082 34.68-9.712 70.55-19.749 106.66-26.152 28.74-5.095 55.76-6.505 82.63-4.314 27.28 2.22 53.67 8.092 80.68 17.947l8.53 3.127c46.33 17.004 90.1 33.056 141.48 25.33l.34 2.254c-51.96 7.823-95.99-8.337-142.61-25.444l-8.52-3.122c-52.46-19.145-105.49-23.567-162.13-13.529-36 6.379-71.81 16.405-106.45 26.1l-55.88 15.099c-45.2 11.344-89.07 16.902-133.673 16.902m17.921-11.452c-5.681 0-11.367-.115-17.076-.337-35.002-1.375-70.334-5.313-104.503-9.119-41.704-4.645-84.829-9.449-127.618-9.626-38.69-.149-77.985 3.435-115.989 6.91l-65.979 5.353c-32.244 1.951-69.707 3.857-106.284 1.837-40.277-2.225-74.285-8.902-103.966-20.411-6.583-2.551-12.937-5.285-19.08-7.921-17.663-7.595-34.345-14.762-54.555-17.09-28.847-3.321-57.877-.337-79.948 2.636-21.552 2.899-43.32 6.916-64.375 10.796-39.392 7.265-80.125 14.774-121.121 15.31l-.029-2.282c40.802-.531 81.439-8.023 120.739-15.27 21.084-3.886 42.881-7.909 64.489-10.814 22.202-2.99 51.415-5.991 80.514-2.642 20.541 2.363 37.371 9.598 55.194 17.262l19 7.892c63.986 24.805 138.476 22.705 209.291 18.425 21.956-1.329 44.301-3.372 65.91-5.346 38.056-3.481 77.408-7.07 116.206-6.922 42.909.171 86.097 4.987 127.864 9.638 34.128 3.8 69.415 7.732 104.343 9.107 47.435 1.866 91.825-3.698 139.725-17.518 17.17-4.953 34.5-10.557 51.25-15.967 31.82-10.282 64.72-20.913 98.11-27.641 27.89-5.621 54.96-7.15 82.75-4.673 26.43 2.356 52.88 8.291 80.85 18.151l8.44 2.985c48.38 17.142 94.08 33.325 146.82 23.367l.42 2.243a178 178 0 0 1-33.16 3.093c-39.89 0-76.53-12.982-114.84-26.558l-8.43-2.984c-56.03-19.744-109.16-24.121-162.39-13.387-33.27 6.705-66.11 17.319-97.86 27.579l-51.32 15.989c-41.74 12.023-82.26 17.935-123.392 17.935m17.127-11.447a386 386 0 0 1-22.528-.674c-32.496-1.917-65.145-6.67-96.716-11.27-40.231-5.854-81.838-11.914-123.411-12.131-40.368-.211-81.37 3.817-121.019 7.715l-72.401 6.214c-74.376 4.542-152.572 6.608-219.327-21.753-7.336-3.115-14.324-7.07-21.084-10.887-8.152-4.605-16.578-9.37-25.564-12.617-9.146-3.304-19.285-5.678-30.132-7.059-27.409-3.486-54.864-.176-75.724 3.093-22.648 3.55-45.455 8.583-67.52 13.444-39.632 8.737-80.611 17.77-122.189 18.586l-.046-2.283c41.35-.81 82.215-9.82 121.738-18.534 22.094-4.873 44.941-9.906 67.657-13.472 21.009-3.293 48.675-6.625 76.363-3.105 11.013 1.404 21.318 3.818 30.623 7.173 9.163 3.31 17.681 8.126 25.913 12.777 6.703 3.789 13.633 7.709 20.85 10.773 66.298 28.166 144.197 26.101 218.294 21.576 24.092-1.473 48.612-3.881 72.321-6.209 39.706-3.903 80.765-7.926 121.259-7.726 41.732.217 83.419 6.288 123.73 12.154 31.525 4.588 64.124 9.336 96.522 11.247 46.636 2.757 89.376-2.921 134.496-17.872 16.03-5.312 32.16-11.372 47.75-17.227 29.36-11.03 59.71-22.432 90.91-29.41 50.5-11.299 102.35-6.905 163.17 13.843l7.95 2.722c50.38 17.267 97.97 33.582 151.91 21.319l.5 2.225c-13.31 3.025-26.23 4.337-38.88 4.337-39.23 0-75.94-12.582-114.27-25.724l-7.95-2.716c-60.4-20.6-111.85-24.977-161.93-13.775-31.04 6.944-61.32 18.323-90.61 29.319l-47.84 17.256c-38.04 12.616-74.41 18.671-112.815 18.671m15.395-11.755c-7.89 0-15.886-.303-24.033-.908-31.194-2.311-62.314-7.96-92.406-13.427-38.107-6.916-77.505-14.071-117.273-14.459-42.464-.417-85.629 4.143-127.373 8.553l-76.392 7.014c-25.342 1.62-51.09 2.95-76.649 2.95-54.72 0-108.602-6.095-155.981-28.492-8.7-4.114-16.755-8.845-24.548-13.421-16.402-9.638-31.902-18.74-51.992-21.69-26.878-3.943-54.418-.051-75.404 3.783-22.733 4.155-45.575 9.981-67.663 15.619C83.945 435.808 42.709 446.331.525 447.404l-.057-2.283c41.927-1.067 83.031-11.561 122.783-21.707 22.128-5.649 45.01-11.487 67.817-15.652 21.163-3.863 48.943-7.789 76.146-3.795 20.53 3.013 36.212 12.229 52.814 21.981 7.747 4.554 15.763 9.256 24.366 13.324 69.016 32.623 152.207 30.398 231.51 25.325 25.405-1.627 51.278-4.36 76.295-7.002 41.807-4.417 85.041-8.982 127.636-8.565 39.963.394 79.463 7.566 117.662 14.5 30.035 5.449 61.092 11.087 92.165 13.392 45.138 3.35 85.738-2.573 127.778-18.625 14.58-5.569 29.19-11.943 43.3-18.1 26.57-11.59 54.05-23.579 82.74-30.832 26.34-6.659 53.41-8.325 82.73-5.095 24.49 2.699 50.21 8.702 80.94 18.893l8.18 2.722c52.27 17.427 101.63 33.896 156.55 19.282l.58 2.208c-55.58 14.785-105.26-1.78-157.86-19.321l-8.18-2.722c-43.65-14.477-101.55-29.131-162.38-13.747-28.51 7.207-55.9 19.156-82.39 30.711-14.14 6.169-28.77 12.549-43.4 18.141-34.77 13.267-68.57 19.664-104.72 19.664m13.04-12.434c-8.22 0-16.59-.377-25.18-1.124-30.105-2.625-59.854-9.085-88.627-15.333-36.212-7.864-73.658-15.995-111.936-16.469-44.188-.548-89.14 4.594-132.614 9.57-26.239 3.001-53.368 6.106-80.006 7.92-84.327 5.741-172.656 8.223-244.338-29.028-9.095-4.725-17.373-10.3-25.371-15.692-15.768-10.625-30.663-20.657-50.65-24.007-26.472-4.433-54.041-.011-75.102 4.337-22.813 4.714-45.688 11.304-67.811 17.678-40.117 11.556-81.604 23.51-124.41 24.771l-.069-2.282c42.52-1.256 83.865-13.165 123.845-24.686 22.162-6.385 45.083-12.987 67.976-17.718 21.255-4.388 49.092-8.856 75.941-4.354 20.478 3.43 35.573 13.599 51.552 24.366 7.953 5.353 16.168 10.894 25.148 15.561 71.157 36.983 159.127 34.495 243.128 28.777 26.593-1.809 53.693-4.907 79.903-7.909 43.543-4.981 88.569-10.134 132.9-9.581 38.507.48 76.066 8.634 112.392 16.52 28.705 6.232 58.38 12.68 88.339 15.293 44.36 3.869 83.19-2.26 122.21-19.287 13.31-5.803 26.54-12.457 39.33-18.894 24.07-12.103 48.95-24.617 75.49-32.081 25.76-7.241 52.92-9.021 83.02-5.443 23.83 2.836 48.9 8.81 81.28 19.372l8.01 2.625c54.1 17.747 105.2 34.506 160.92 17.49l.66 2.186c-25.33 7.737-52.29 9.13-82.39 4.251-26.83-4.348-53.81-13.199-79.9-21.753l-8.01-2.624c-48.62-15.864-106-29.924-162.98-13.907-26.33 7.401-51.11 19.87-75.07 31.921-12.83 6.449-26.08 13.119-39.45 18.945-31.82 13.884-63.52 20.589-98.13 20.589"/><path d="M1035.96 454.171c-7.71 0-15.57-.365-23.61-1.084-32.336-2.91-64.009-11.612-91.955-19.293-37.919-10.42-72.549-15.584-105.867-15.778-44.844-.28-90.476 5.427-134.629 10.933-28.116 3.51-57.192 7.133-85.709 9.176-39.095 2.796-84.533 5.467-128.988 1.718-49.486-4.172-89.717-15.63-122.983-35.031-9.02-5.262-17.001-11.396-24.726-17.33-15.043-11.561-29.253-22.477-49.536-26.192-26.039-4.771-53.579.182-74.668 5.027-22.619 5.198-45.272 12.405-67.183 19.379-40.386 12.85-82.147 26.14-125.581 27.481l-.069-2.282c43.114-1.336 84.721-14.574 124.958-27.374 21.951-6.984 44.655-14.208 67.36-19.43 21.3-4.896 49.143-9.894 75.593-5.05 20.832 3.812 35.252 14.894 50.518 26.632 7.667 5.889 15.592 11.983 24.486 17.17 71.796 41.867 163.191 39.265 250.653 33.011 28.459-2.037 57.501-5.661 85.589-9.159 44.222-5.518 89.962-11.23 134.92-10.95 33.523.2 68.348 5.387 106.461 15.864 27.854 7.652 59.425 16.331 91.556 19.224 42.65 3.84 80.45-2.568 115.56-19.59 12.58-6.1 24.97-13.164 36.94-20 20.76-11.841 42.22-24.092 65.51-31.767 25.11-8.28 52.05-10.722 82.35-7.458 30.02 3.229 59.08 11.68 81.03 18.676l14.78 4.771c52.74 17.124 107.28 34.831 163.08 15.51l.74 2.157c-56.51 19.572-111.42 1.746-164.53-15.493l-14.77-4.765c-51.76-16.503-107.21-29.279-161.97-11.224-23.07 7.606-44.43 19.795-65.09 31.584-12.01 6.853-24.42 13.935-37.08 20.069-28.85 13.964-59.52 20.863-93.14 20.868m6.24-14.87c-8.02 0-16.3-.4-24.93-1.193-29.851-2.756-56.969-10.545-89.316-20.451-36.28-11.105-70.317-16.509-104.069-16.52h-.097c-28.762 0-57.957 3.789-86.194 7.452l-14.147 1.821-5.303.667c-38.724 4.891-78.761 9.946-118.348 13.102-40.162 3.201-86.833 6.288-132.539 2.328-51.124-4.428-92.16-16.936-125.455-38.226-9.163-5.861-17.098-12.811-24.777-19.539-14.324-12.548-27.854-24.4-48.007-28.651-25.513-5.376-51.928-.411-74.399 5.153-22.693 5.62-45.398 13.449-67.354 21.016C86.611 380.275 44.581 394.769.537 396.047l-.069-2.283c43.696-1.267 85.56-15.703 126.049-29.661 22.002-7.584 44.758-15.43 67.548-21.079 22.728-5.627 49.457-10.642 75.422-5.17 20.74 4.371 34.487 16.417 49.04 29.165 7.615 6.671 15.482 13.569 24.503 19.333 71.853 45.953 170.121 42.443 256.584 35.55 39.534-3.155 79.549-8.206 118.244-13.09l5.304-.668 14.141-1.82c28.305-3.675 57.575-7.47 86.485-7.47h.097c33.98.012 68.24 5.444 104.737 16.617 32.222 9.866 59.219 17.627 88.858 20.36 44.29 4.086 80.55-2.242 114.13-19.915 11.85-6.231 23.4-13.495 34.57-20.514 19.33-12.149 39.32-24.708 61.54-32.412 24.87-8.622 51.96-11.064 82.81-7.452 29.06 3.401 57.47 11.703 81.42 19.378l15.06 4.891c53.68 17.541 109.19 35.681 164.76 14.037l.82 2.129c-18.42 7.178-36.81 10.054-55.1 10.054-37.61 0-74.81-12.16-111.19-24.046l-15.05-4.885c-53.24-17.056-109.81-30.312-162.79-11.943-21.97 7.618-41.84 20.109-61.07 32.189-11.2 7.042-22.79 14.329-34.72 20.6-17.74 9.335-36.1 15.447-56.15 18.694-11 1.774-22.36 2.665-34.32 2.665m4.71-16.925c-9.42 0-19.23-.542-29.5-1.621-30.248-3.178-58.125-11.487-87.629-20.286l-2.546-.759c-34.157-10.18-66.476-15.23-98.805-15.441-28.123-.188-56.634 3.566-84.225 7.196l-12.959 1.689-8.415 1.078c-39.238 5.039-79.818 10.249-119.94 13.501-41.019 3.327-88.684 6.528-135.269 2.42-52.517-4.634-94.289-17.753-127.721-40.098-8.815-5.889-16.373-12.731-23.692-19.339-14.056-12.708-27.335-24.708-47.83-28.971-25.382-5.278-51.763-.114-74.217 5.632-22.253 5.695-44.541 13.553-66.093 21.153C87.188 362.945 44.907 377.855.525 378.922l-.057-2.282c44.022-1.056 86.126-15.904 126.842-30.261 21.597-7.618 43.931-15.493 66.287-21.21 22.705-5.815 49.4-11.031 75.244-5.655 21.107 4.388 34.603 16.588 48.898 29.513 7.256 6.556 14.752 13.335 23.429 19.139 72.025 48.144 172.765 44.498 261.54 37.302 40.071-3.247 80.622-8.457 119.837-13.495l8.415-1.079 12.954-1.689c27.666-3.641 56.285-7.401 84.533-7.219 32.547.212 65.076 5.296 99.439 15.533l2.546.759c29.401 8.771 57.175 17.05 87.218 20.206 46.31 4.862 83.16-1.233 115.97-19.173 11.49-6.289 22.66-13.615 33.45-20.703 18.95-12.439 38.55-25.296 60.64-33.005 55.76-19.458 114.11-3.207 164.41 13.553l14.05 4.736c54.29 18.42 110.44 37.462 165.55 12.856l.93 2.083c-19.13 8.542-38.35 11.915-57.52 11.915-36.9 0-73.7-12.486-109.69-24.697l-14.04-4.731c-49.94-16.639-107.85-32.783-162.94-13.564-21.82 7.618-41.3 20.4-60.13 32.76-10.84 7.11-22.04 14.466-33.61 20.794-25.95 14.186-54.35 21.062-87.81 21.068m5.2-18.397c-13.55 0-26.58-1.256-38.83-2.865-25.741-3.384-51.243-9.05-75.906-14.528-38.638-8.583-78.59-17.462-119.763-17.536h-.942c-42.806 0-86.331 5.113-128.435 10.066-28.927 3.401-58.836 6.916-88.226 8.737-40.66 2.522-87.919 4.833-134.235.348-51.844-5.022-93.456-17.718-127.225-38.803-8.044-5.028-15.249-10.711-22.208-16.206-15.032-11.869-29.23-23.077-50.028-26.546-25.65-4.28-51.94.885-74.279 6.5-21.397 5.381-42.875 12.616-63.638 19.612C87.347 346.59 44.895 360.89.52 361.815l-.046-2.283c44.033-.919 86.308-15.162 127.196-28.937 20.809-7.013 42.326-14.26 63.809-19.663 22.562-5.678 49.143-10.894 75.21-6.54 21.38 3.567 35.801 14.956 51.067 27.008 6.914 5.461 14.067 11.104 22.002 16.063 72.898 45.531 172.486 43.551 260.107 38.118 29.327-1.82 59.208-5.329 88.101-8.725 42.48-4.993 86.4-10.162 129.645-10.077 41.419.074 81.496 8.976 120.254 17.587 24.611 5.467 50.068 11.122 75.705 14.494 35 4.605 76.38 6.271 117.92-16.28 12.07-6.551 23.75-14.254 35.04-21.707 19.04-12.559 38.73-25.547 60.91-33.439 56.06-19.949 114.16-2.494 164.21 15.441l12.34 4.463c55.22 20.063 112.32 40.817 167.66 12.325l1.04 2.032c-25.19 12.97-53.09 16.965-85.32 12.228-28.42-4.182-56.76-14.476-84.16-24.434l-12.33-4.462c-49.68-17.798-107.32-35.14-162.67-15.436-21.92 7.801-41.49 20.708-60.42 33.194-11.34 7.475-23.06 15.207-35.21 21.804-27.51 14.927-54.92 19.39-80.47 19.39m1.24-19.202c-17.04 0-33.98-2.054-48.81-4.194l-53.95-8.565c-48.075-7.989-97.789-16.246-148.011-16.457l-2.774-.006c-40.06 0-80.731 3.555-120.094 6.996-31.422 2.745-63.918 5.586-95.905 6.602-39.518 1.255-81.759 1.775-122.955-2.853-46.602-5.239-85.029-16.309-117.473-33.844-9.117-4.925-17.304-10.603-25.222-16.086-16.728-11.59-32.524-22.535-54.829-25.205-25.834-3.093-51.981 2.151-74.149 7.681-20.232 5.05-40.579 11.612-60.264 17.952-41.27 13.307-83.95 27.059-128.4 27.898l-.046-2.283c44.113-.827 86.628-14.534 127.738-27.784 19.719-6.357 40.106-12.925 60.407-17.998 22.368-5.586 48.772-10.87 74.97-7.732 22.871 2.74 38.896 13.844 55.857 25.599 7.867 5.449 16.002 11.087 25.011 15.955 70.986 38.363 160.725 38.917 239.269 36.423 31.919-1.016 64.386-3.852 95.779-6.596 40.323-3.521 82.021-7.162 123.08-6.996 50.405.211 100.21 8.485 148.377 16.485l53.904 8.56c47.16 6.802 81.71 6.996 118.79-12.115 13.82-7.127 27.09-15.806 39.91-24.206 19.69-12.896 40.05-26.232 62.96-34.266 25.38-8.902 52.73-10.757 83.6-5.672 28.08 4.622 55.52 14.34 80.98 24.154l10.13 3.926c56.34 21.918 114.6 44.584 170.37 12.412l1.14 1.974c-25.39 14.648-53.74 19.304-86.67 14.243-28.99-4.457-57.8-15.664-85.67-26.506l-10.12-3.926c-51.98-20.035-107.39-37.958-163-18.46-22.65 7.943-42.9 21.199-62.47 34.021-12.87 8.429-26.18 17.148-40.11 24.326-18.35 9.461-37.63 14.74-58.93 16.143-4.12.28-8.28.4-12.42.4m-1.92-18.198c-14.23 0-28.53-2.339-42.41-4.61l-13.546-2.14c-77.499-11.321-148.559-16.782-217.238-16.64-34.145.063-68.833 1.895-102.385 3.669-31.873 1.684-64.831 3.43-97.303 3.652-39.067.269-80.817-.194-121.442-5.375-45.906-5.855-83.922-16.891-116.223-33.753-7.639-3.988-14.729-8.416-21.586-12.696-16.23-10.135-31.559-19.71-52.06-22.426-27.54-3.646-55.993 1.957-80.194 7.915-19.256 4.742-38.655 10.727-57.421 16.519-41.55 12.822-84.521 26.084-129.114 26.871l-.04-2.282c44.267-.788 87.079-13.998 128.481-26.774 18.794-5.798 38.227-11.795 57.546-16.554 24.412-6.015 53.128-11.658 81.045-7.96 20.986 2.779 36.52 12.479 52.968 22.751 6.816 4.257 13.872 8.662 21.431 12.611 70.654 36.879 159.172 39.396 236.592 38.865 32.421-.222 65.35-1.963 97.195-3.646 33.574-1.775 68.296-3.612 102.499-3.675 68.793-.125 139.967 5.324 217.575 16.662l13.59 2.146c15.05 2.465 30.63 5.01 45.93 4.519 19.81-.639 40.37-6.265 61.1-16.736 14.52-7.327 28.44-16.326 41.9-25.028 18.82-12.16 38.28-24.737 59.74-33.011 59.22-22.837 117-2.956 171.12 19.373l8.81 3.652c57.59 23.932 117.16 48.68 173.57 12.982l1.22 1.929c-25.69 16.257-54.57 21.495-88.29 16.011-29.62-4.816-58.99-17.016-87.38-28.816l-8.81-3.652c-53.68-22.152-110.99-41.89-169.42-19.351-21.24 8.189-40.6 20.703-59.32 32.8-13.51 8.737-27.49 17.764-42.11 25.148-21.04 10.619-41.91 16.331-62.07 16.976-1.32.051-2.63.075-3.95.074m-7.6-19.818c-14.71 0-29.52-2.716-43.846-5.346l-20.752-3.515c-60.298-8.486-121.709-7.675-181.089-6.894l-42.103.44-64.232.81c-43.023.702-87.507 1.432-131.249.068-71.796-2.236-154.103-7.515-222.331-41.992-5.926-2.996-11.52-6.095-16.927-9.096-17.492-9.701-34.02-18.865-56.176-20.834-27.906-2.476-56.199 3.156-80.2 8.993-18.189 4.423-36.543 9.844-54.292 15.088C88.706 296.865 45.352 309.676.52 310.452l-.04-2.282c44.524-.776 87.724-13.536 129.508-25.878 17.777-5.25 36.16-10.683 54.401-15.116 24.183-5.878 52.711-11.55 80.941-9.045 22.642 2.009 39.369 11.287 57.079 21.108l16.847 9.05c67.811 34.266 149.821 39.516 221.371 41.747 43.685 1.364 88.147.634 131.141-.068l64.255-.811 42.086-.439c59.471-.782 120.968-1.592 181.437 6.916 6.937.976 14.01 2.277 20.844 3.532 14.64 2.688 29.81 5.473 44.71 5.307 18.72-.205 38.29-4.959 58.16-14.129 17.17-7.92 33.42-18.243 49.14-28.223 19.34-12.286 39.34-24.988 61.29-33.388 27.39-10.482 56.28-12.639 88.33-6.602 29 5.467 57.9 17.17 84.8 29.005l7.65 3.378c56.19 24.84 119.86 52.989 177.05 13.867l1.29 1.883c-26.04 17.821-55.5 23.578-90.06 17.61-30.29-5.233-60.24-18.472-89.19-31.271l-7.65-3.372c-54.11-23.796-111.91-45.126-171.39-22.358-21.74 8.32-41.65 20.959-60.9 33.182-15.78 10.021-32.09 20.383-49.4 28.372-20.17 9.307-40.05 14.129-59.09 14.34-.43-.011-.87-.006-1.3-.006m-9.33-20q-2.04 0-4.05-.069c-12.96-.45-25.91-3.127-38.43-5.717-7.518-1.558-15.294-3.167-22.95-4.263-53.898-7.721-108.545-4.183-161.393-.759-25.467 1.649-51.809 3.355-77.813 3.795-56.279.947-117.359-.856-181.534-5.37-66.892-4.702-143.843-12.371-210.513-44.024-5.029-2.385-9.933-5.13-14.678-7.783-8.198-4.588-16.675-9.325-25.838-12.223-10.573-3.339-22.425-5.319-35.219-5.878-26.992-1.181-53.779 4.086-76.42 9.398-18.029 4.229-36.241 9.376-53.847 14.346C89.448 280.18 45.655 292.552.514 293.333l-.04-2.282c44.844-.776 88.489-13.108 130.701-25.028 17.635-4.982 35.864-10.129 53.944-14.374 22.796-5.347 49.771-10.654 77.043-9.456 12.994.571 25.039 2.585 35.807 5.981 9.385 2.967 17.971 7.766 26.267 12.405 4.71 2.636 9.585 5.358 14.546 7.715 66.316 31.482 143.01 39.117 209.696 43.807 64.112 4.508 125.124 6.312 181.335 5.364 25.953-.439 52.26-2.14 77.705-3.789 52.967-3.429 107.734-6.979 161.866.776 7.724 1.107 15.534 2.722 23.093 4.286 12.433 2.573 25.283 5.232 38.043 5.672 20.53.713 42.29-4.12 64.64-14.363 17.54-8.034 34.22-18.42 50.36-28.463 20.38-12.691 41.46-25.81 64.54-34.381 60.87-22.597 117.5-.393 174.97 26.426l5.86 2.739c57.47 26.9 122.61 57.394 180.61 14.894l1.35 1.843c-21.29 15.595-43.44 21.581-65.79 21.581-39.7 0-80-18.865-117.14-36.246l-5.85-2.739c-57.02-26.609-113.17-48.647-173.21-26.358-22.87 8.491-43.84 21.553-64.13 34.181-16.19 10.083-32.93 20.503-50.61 28.6-21.22 9.724-41.93 14.637-61.62 14.637"/><path d="M691.785 307.787c-54.058 0-109.664-5.74-161.918-12.011-63.141-7.573-130.016-18.255-191.233-44.898-4.602-2.003-9.106-4.228-13.468-6.379-9.728-4.799-18.919-9.336-29.413-11.824-10.995-2.608-22.727-3.92-35.863-4.017-26.421-.2-52.82 4.987-72.864 9.529-17.858 4.046-35.904 8.919-53.356 13.627-43 11.607-87.467 23.601-133.15 24.4l-.04-2.282c45.403-.793 89.728-12.754 132.596-24.32l53.448-13.65c20.164-4.571 46.733-9.786 73.383-9.587 13.313.103 25.211 1.433 36.372 4.08 10.744 2.545 20.484 7.35 29.898 12.001 4.333 2.14 8.82 4.354 13.37 6.334 60.949 26.523 127.624 37.171 190.594 44.726 54.932 6.591 113.575 12.599 170.156 11.943 33.13-.382 66.561-4.348 98.891-8.188 49.742-5.906 101.175-12.012 152.504-5.147 9.631 1.289 19.291 3.515 28.631 5.672 12.668 2.921 25.767 5.94 38.847 6.613 19.52.999 40.23-3.013 61.56-11.926 20.31-8.48 39.39-20.166 57.86-31.465 19.43-11.892 39.52-24.194 61.15-32.845 29.35-11.744 58.35-15.048 86.22-9.815 32.33 6.072 62.68 20.914 89.45 34.015l11.34 5.593c58.94 29.153 125.75 62.193 184.73 16.217l1.4 1.797c-21.64 16.868-44.23 23.339-67.06 23.339-40.61 0-81.97-20.457-120.09-39.311l-11.33-5.586c-26.64-13.033-56.84-27.807-88.87-33.821-27.43-5.147-56.02-1.889-84.96 9.689-21.44 8.582-41.45 20.828-60.8 32.674-18.53 11.344-37.7 23.077-58.16 31.625-21.66 9.044-42.71 13.118-62.56 12.097-13.28-.679-26.482-3.726-39.247-6.665-9.288-2.14-18.897-4.36-28.425-5.632-51.044-6.825-102.333-.742-151.933 5.147-32.393 3.846-65.887 7.823-99.136 8.206zm-23.526-13.044c-51.324 0-103.887-9.25-154.811-18.209l-2.557-.451c-49.76-8.753-114.734-21.981-175.968-46.775l-7.724-3.201c-11.196-4.696-21.775-9.13-34.009-11.07-11.235-1.78-23.138-2.448-36.4-2.049-26.387.799-52.666 6.055-72.601 10.546-16.043 3.612-32.29 7.789-47.996 11.823C92.326 246.633 46.962 258.297.52 259.095l-.04-2.282c46.174-.793 91.406-12.423 135.148-23.67l48.064-11.84c20.039-4.514 46.454-9.792 73.035-10.597 13.405-.405 25.451.274 36.829 2.077 12.514 1.986 23.212 6.471 34.539 11.224l7.696 3.19c61.034 24.72 125.854 37.913 175.505 46.644l2.558.45c53.635 9.439 109.098 19.196 162.877 18.089 35.709-.736 71.607-6.63 106.318-12.337 50.096-8.228 101.899-16.742 153.982-9.86 10.859 1.432 21.592 4.217 31.971 6.916 11.709 3.041 23.823 6.185 36.008 7.332 21.35 2.02 44.31-2.042 68.23-12.063 20.58-8.622 40.02-20.348 58.82-31.687 20.45-12.331 41.59-25.085 64.35-33.952 30.06-11.71 59.42-14.603 87.27-8.6 31.89 6.871 61.45 22.078 90.03 36.789l9.55 4.941c60.22 31.225 128.48 66.622 188.2 17.222l1.46 1.758c-27.19 22.488-58.5 29.712-95.73 22.106-32.45-6.637-64.24-23.116-94.98-39.06l-9.54-4.936c-28.46-14.642-57.88-29.781-89.47-36.583-27.41-5.9-56.34-3.047-85.96 8.497-22.58 8.793-43.63 21.495-64 33.775-18.86 11.385-38.38 23.151-59.11 31.836-24.28 10.169-47.6 14.283-69.33 12.229-12.369-1.17-24.569-4.337-36.369-7.396-10.316-2.676-20.981-5.444-31.696-6.859-51.752-6.836-103.384 1.649-153.315 9.849-34.791 5.718-70.768 11.63-106.644 12.366zm-16.494-14.454c-46.882 0-94.86-10.911-141.285-21.462l-6.446-1.466c-59.573-13.507-117.097-29.936-170.978-48.818-25.148-8.816-47.407-12.32-72.167-11.361-28.174 1.09-55.651 6.482-78.813 11.612-14.175 3.139-28.544 6.648-42.446 10.038-45.038 10.99-91.606 22.357-139.116 23.144l-.04-2.282c47.253-.788 93.696-12.115 138.608-23.076l42.492-10.049c23.264-5.153 50.867-10.568 79.223-11.67 25.063-.97 47.585 2.574 73.013 11.487 53.801 18.854 111.245 35.26 170.727 48.749l6.451 1.467c46.967 10.676 95.545 21.735 142.804 21.398 39.192-.268 78.327-8.239 116.178-15.954 51.078-10.409 103.892-21.171 157.51-13.119 10.99 1.649 21.746 4.839 32.148 7.926 11.726 3.475 23.852 7.07 36.194 8.4 20.168 2.162 41.878-1.136 64.498-9.804 23.39-8.959 45.22-22.032 66.35-34.671 20.98-12.56 42.68-25.548 65.98-34.569 28.7-11.122 56.09-14.317 81.41-9.501 33.87 6.442 64.97 23.19 95.04 39.385l2.46 1.324 8.39 4.53c31.13 16.845 63.31 34.267 96.1 41.257 37.29 7.949 68.49.354 95.37-23.219l1.51 1.718c-20.48 17.952-43.39 26.836-69.48 26.842-8.91 0-18.19-1.038-27.87-3.104-33.11-7.059-65.45-24.56-96.71-41.485l-8.38-4.525-2.47-1.324c-29.92-16.115-60.86-32.771-94.38-39.151-24.89-4.736-51.86-1.575-80.16 9.387-23.11 8.953-44.73 21.889-65.63 34.398-21.2 12.69-43.13 25.809-66.7 34.842-22.97 8.799-45.03 12.149-65.562 9.946-12.554-1.346-24.777-4.97-36.6-8.479-10.327-3.065-21.003-6.232-31.839-7.858-53.219-7.989-105.833 2.733-156.717 13.102-37.959 7.732-77.208 15.732-116.617 16z"/><path d="M637.219 263.763c-46.037 0-92.623-13.164-137.724-25.906l-7.878-2.226c-25.108-7.07-50.45-14.865-74.953-22.403l-80.017-23.818c-54.498-15.145-109.789-5.387-157.334 4.942l-34.842 7.88C97.812 212.988 49.56 224.116.514 224.858l-.034-2.283c48.806-.742 96.933-11.841 143.478-22.574l34.87-7.886c47.813-10.391 103.43-20.195 158.43-4.913 26.843 7.458 53.904 15.783 80.08 23.835l74.901 22.391 7.884 2.226c46.152 13.039 93.873 26.529 140.778 25.792 39.272-.61 78.538-9.683 116.509-18.459 51.969-12.012 105.707-24.429 160.262-15.339 11.515 1.917 22.608 5.683 33.335 9.33 11.11 3.772 22.596 7.675 34.414 9.444 21.859 3.275 45.669-.046 70.769-9.867 23.38-9.147 45.28-22.22 66.47-34.871 20.1-12 40.88-24.406 62.96-33.496 31.25-12.867 60.69-16.462 87.48-10.682 33.35 7.19 63.84 24.315 93.33 40.874l4.39 2.465 11.09 6.26c28.85 16.332 58.66 33.222 90.97 41.365 37.1 9.353 70.25.742 98.53-25.598l1.56 1.672c-21.35 19.881-45.42 29.872-71.83 29.872-9.33 0-18.94-1.244-28.82-3.737-32.6-8.217-62.56-25.182-91.53-41.588l-11.09-6.254-4.39-2.465c-29.34-16.48-59.68-33.513-92.69-40.635-26.33-5.683-55.31-2.128-86.13 10.563-21.92 9.027-42.63 21.387-62.66 33.347-21.27 12.697-43.26 25.821-66.81 35.037-25.48 9.969-49.68 13.33-71.936 9.997-12.018-1.797-23.607-5.734-34.813-9.541-10.642-3.612-21.643-7.349-32.976-9.238-54.103-9.016-107.619 3.355-159.371 15.31-38.085 8.799-77.471 17.901-116.989 18.517zm-5.509-19.03c-47.008 0-93.588-14.991-138.683-29.502l-2.552-.822-34.887-11.532c-39.141-13.108-79.606-26.66-120.751-34.278-51.118-9.461-104.017.023-158.23 11.464l-25.062 5.387C102.528 196.086 51.843 207.082.508 207.727l-.029-2.282c51.107-.645 101.671-11.618 150.58-22.226l25.073-5.393c54.447-11.492 107.592-21.016 159.115-11.475 41.299 7.646 81.85 21.227 121.059 34.357l34.865 11.522 2.552.821c46.397 14.928 94.375 30.375 142.57 29.342 38.256-.816 76.769-10.385 114.014-19.647 52.534-13.056 106.855-26.563 161.524-15.812 11.629 2.288 22.653 6.636 33.318 10.848 10.601 4.182 21.562 8.514 32.98 10.722 21.951 4.251 45.931 1.632 71.271-7.784 25.27-9.392 48.75-23.515 71.46-37.17 20.76-12.486 42.23-25.399 65.09-34.729 31.63-12.908 60.17-16.029 87.24-9.535 32.76 7.852 62.6 25.267 91.47 42.107l6.15 3.583 9.95 5.821c29.19 17.113 59.37 34.814 92.3 43.059 37.11 9.296 70.18-.148 98.31-28.069l1.61 1.621c-28.73 28.526-62.53 38.169-100.47 28.662-33.25-8.331-63.58-26.112-92.91-43.305l-9.94-5.814-6.16-3.584c-28.72-16.754-58.42-34.084-90.84-41.856-26.6-6.374-54.67-3.292-85.84 9.433-22.7 9.267-44.09 22.129-64.78 34.574-22.8 13.713-46.37 27.887-71.85 37.354-25.73 9.564-50.12 12.217-72.489 7.886-11.629-2.254-22.693-6.619-33.386-10.842-10.567-4.171-21.488-8.485-32.918-10.728-54.172-10.648-108.242 2.79-160.531 15.789-37.365 9.29-76.003 18.894-114.516 19.716l-4.641.04zm5.143-20.857h-.976c-56.901-.251-110.954-19.476-163.231-38.072-44.804-15.938-91.138-32.418-139.048-36.869-53.099-4.936-107.02 6.152-159.172 16.874l-.205.04-12.046 2.488C109.658 179.196 55.354 190.426.497 190.62l-.006-2.283c54.624-.194 108.813-11.401 161.221-22.237l12.052-2.488.206-.04c52.311-10.757 106.409-21.878 159.845-16.914 48.195 4.48 94.661 21.005 139.602 36.989 52.094 18.528 105.964 37.695 162.477 37.941h.965c38.21 0 76.969-9.883 114.459-19.447 52.951-13.507 107.712-27.47 162.004-13.946 10.773 2.681 20.946 7.195 30.789 11.566 11.549 5.124 23.492 10.426 36.297 12.668 20.882 3.652 43.812.913 68.152-8.131 25.76-9.57 49.66-23.99 72.77-37.93 20.45-12.331 41.59-25.079 64.01-34.5 31.43-13.199 59.57-16.583 86.04-10.346 32.7 7.704 62.39 25.308 91.08 42.335l5.7 3.373 10.86 6.465c28.77 17.181 58.53 34.945 91.01 43.739 38.61 10.454 72.7.776 101.33-28.754l1.64 1.586c-21.64 22.323-46.34 33.536-73.71 33.536-9.63 0-19.59-1.387-29.86-4.166-32.79-8.879-62.68-26.722-91.59-43.984l-10.85-6.459-5.7-3.379c-28.56-16.936-58.08-34.449-90.45-42.072-25.99-6.123-53.66-2.779-84.62 10.225-22.27 9.353-43.34 22.061-63.72 34.347-23.2 13.997-47.2 28.469-73.16 38.118-24.72 9.187-48.05 11.96-69.331 8.24-13.08-2.288-25.154-7.647-36.829-12.828-9.751-4.325-19.833-8.805-30.412-11.435-53.738-13.382-108.213.513-160.89 13.946-37.628 9.598-76.535 19.515-115.025 19.521m7.879-16.577c-58.825 0-115.476-19.19-170.288-37.758-43.787-14.831-89.065-30.17-135.114-35.596-53.019-6.254-106.775 5.067-158.761 16.012l-8.089 1.7C116.64 163.412 58.905 175.572.457 173.495l.08-2.282c58.163 2.06 115.766-10.066 171.469-21.793l8.089-1.7c52.169-10.985 106.113-22.341 159.498-16.046 46.288 5.46 91.68 20.833 135.582 35.704 55.297 18.728 112.49 38.09 171.681 37.627 37.085-.296 74.542-9.643 110.765-18.688 50.65-12.645 103.03-25.718 155.456-14.38 10.544 2.283 20.603 6.277 30.326 10.146 10.927 4.343 22.23 8.839 34.128 10.819 21.934 3.652 46.199.776 72.109-8.554 25.15-9.061 48.83-22.397 71.73-35.293 19.93-11.23 40.54-22.837 62.12-31.63 33.05-13.473 60.75-17.033 87.17-11.207 33.01 7.281 63.31 24.092 92.61 40.355l5.33 2.956 10.31 5.74c29.43 16.434 59.87 33.422 92.77 41.559 37.57 9.29 71.13.771 99.72-25.319l1.54 1.684c-29.19 26.637-63.45 35.333-101.81 25.849-33.2-8.205-63.76-25.273-93.33-41.781l-10.31-5.735-5.33-2.956c-29.16-16.183-59.31-32.914-91.99-40.121-25.95-5.724-53.22-2.197-85.83 11.087-21.44 8.737-41.99 20.315-61.86 31.505-22.98 12.942-46.74 26.329-72.07 35.453-26.29 9.461-50.934 12.377-73.262 8.657-12.137-2.021-23.555-6.563-34.596-10.951-9.637-3.829-19.605-7.795-29.966-10.032-51.906-11.224-104.018 1.781-154.417 14.363-36.355 9.073-73.942 18.454-111.302 18.751-.708.017-1.422.017-2.135.017m10.036-17.25c-49.131 0-98.143-14.443-145.556-28.417l-5.72-1.684-23.424-6.978c-46.574-13.958-94.735-28.395-143.769-33.554-50.548-5.318-101.609 5.467-150.997 15.892l-6.4 1.353C124.159 148.188 62.108 161.255.411 156.376l.183-2.277c61.366 4.856 120.579-7.612 177.84-19.669l6.4-1.353c49.559-10.465 100.803-21.29 151.71-15.932 49.251 5.182 97.515 19.647 144.192 33.639l23.412 6.973 5.721 1.683c47.515 14.004 96.658 28.509 145.71 28.321 36.789-.12 73.748-9.159 109.492-17.901 48.641-11.892 98.931-24.195 149.627-14.266 10.105 1.98 19.844 5.416 29.27 8.737 11.184 3.943 22.75 8.023 34.842 9.603 20.541 2.688 43.18.212 67.29-7.349 26.43-8.297 51.48-21.125 75.71-33.531 21.14-10.824 43-22.02 65.75-30.209 31.28-11.253 57.24-14.317 81.71-9.643 33.4 6.385 64.44 22.152 94.46 37.399l3.61 1.837 7.32 3.726c63.02 32.104 134.44 68.493 196.81 18.181l1.43 1.774c-28.35 22.871-61.08 30.141-100.07 22.221-33.96-6.899-67.13-23.801-99.21-40.144l-7.32-3.726-3.61-1.838c-29.87-15.173-60.76-30.865-93.86-37.193-24.04-4.594-49.62-1.558-80.5 9.546-22.62 8.137-44.41 19.299-65.48 30.09-24.32 12.451-49.45 25.324-76.07 33.678-24.43 7.664-47.395 10.169-68.267 7.435-12.332-1.609-24.012-5.729-35.304-9.717-9.346-3.299-19.011-6.705-28.951-8.651-50.199-9.832-100.249 2.408-148.644 14.243-35.876 8.77-72.967 17.843-110.029 17.963-.274.023-.549.023-.817.023m9.129-17.986c-48.172 0-96.796-12.874-143.861-25.336l-11.172-2.95-22.773-6.049c-46.957-12.543-95.511-25.513-144.563-30.843-56.644-6.151-112.969 5.33-167.438 16.435C117.725 134.812 59.442 146.693.354 139.257l.285-2.265c58.711 7.39 116.812-4.457 172.994-15.909 54.64-11.139 111.148-22.66 168.141-16.469 49.228 5.347 97.869 18.34 144.905 30.906l22.761 6.048 11.179 2.95c47.995 12.708 97.629 25.856 146.566 25.239 35.39-.439 70.837-8.827 105.12-16.936 46.088-10.905 93.741-22.18 141.976-14.346 10.276 1.667 20.256 4.782 29.909 7.795 10.899 3.401 22.168 6.916 33.792 8.309 21.089 2.522 43.458.359 68.378-6.608 26.29-7.35 51.57-18.78 76.01-29.833 20.13-9.101 40.95-18.517 62.28-25.638 34.2-11.413 62.52-14.368 89.12-9.3 31.96 6.088 62.16 19.817 91.37 33.102l.32.148 9.36 4.274c62.69 28.686 133.75 61.206 196.7 16.469l1.32 1.86c-22.89 16.268-46.77 22.528-70.89 22.528-43.33 0-87.44-20.189-128.07-38.78l-9.36-4.274-.33-.148c-29.08-13.222-59.15-26.9-90.84-32.937-26.21-4.993-54.16-2.06-87.97 9.227-21.22 7.082-41.98 16.469-62.05 25.553-24.52 11.087-49.88 22.557-76.34 29.952-25.22 7.053-47.873 9.233-69.265 6.677-11.829-1.415-23.201-4.965-34.203-8.394-9.573-2.99-19.479-6.077-29.589-7.721-47.79-7.76-95.22 3.458-141.086 14.312-34.402 8.137-69.975 16.554-105.616 16.999zm6.268-18.648c-45.278 0-91.446-10.745-136.193-21.159l-17.104-3.955-24.92-5.763c-49.274-11.459-100.232-23.31-151.402-28.075-53.744-5.004-107.157 5.324-158.818 15.31C122.88 121.151 62.034 132.912.297 122.133l.394-2.249c61.32 10.711 121.961-1.015 180.603-12.354 51.821-10.02 105.399-20.377 159.469-15.344 51.324 4.782 102.356 16.645 151.705 28.126l24.908 5.764 17.11 3.96c47.681 11.093 96.978 22.568 144.922 20.948 32.992-1.119 66.19-8.56 98.292-15.761 45.546-10.214 92.651-20.771 140.109-13.53 9.357 1.427 18.543 3.983 27.42 6.454 9.843 2.739 20.016 5.569 30.378 6.836 22.779 2.791 47.233.765 74.753-6.197 24.87-6.288 49.18-15.704 72.7-24.817 21.88-8.479 44.52-17.244 67.59-23.492 31.8-8.61 58.29-10.773 83.38-6.808 32.71 5.176 64.06 17.712 94.37 29.838l6.85 2.739c62.35 24.92 133.03 53.166 196.32 13.787l1.2 1.94c-21.48 13.364-45.09 19.978-71.61 19.978-8.97 0-18.26-.754-27.92-2.26-33.55-5.233-66.74-18.494-98.84-31.322l-6.85-2.739c-30.19-12.08-61.41-24.566-93.88-29.707-24.76-3.915-50.94-1.769-82.41 6.756-22.97 6.22-45.54 14.962-67.37 23.419-23.58 9.136-47.96 18.58-72.97 24.896-27.8 7.031-52.528 9.074-75.593 6.249-10.527-1.29-20.786-4.143-30.708-6.905-8.815-2.453-17.932-4.987-27.152-6.397-47.042-7.172-93.924 3.339-139.265 13.502-32.21 7.218-65.511 14.688-98.714 15.812q-4.66.161-9.323.16m8.016-19.39c-46.254 0-93.485-9.41-139.254-18.535l-19.964-3.948-22.373-4.394c-50.799-10.026-103.333-20.394-155.781-24.543-51.078-4.04-101.991 5.187-151.225 14.112-61.52 11.15-125.13 22.677-189.344 8.28l.502-2.226c63.769 14.294 127.15 2.808 188.442-8.303 49.377-8.948 100.438-18.203 151.813-14.14 52.58 4.16 105.177 14.54 156.044 24.577l22.367 4.394 19.97 3.949c48.55 9.672 98.749 19.681 147.537 18.374 32.93-.879 65.899-7.806 97.784-14.5 42.104-8.839 85.64-17.986 129.719-13.369 10.693 1.118 21.232 3.612 31.422 6.025 10.1 2.391 20.547 4.862 31.074 5.975 21.415 2.254 44.296.907 69.956-4.114 26.21-5.125 52.05-13.41 77.05-21.416 21.27-6.819 43.27-13.866 65.44-18.956 32.13-7.378 58.8-9.415 83.95-6.414 33.14 3.96 65.32 14.876 96.44 25.427l5.35 1.815c65.29 22.151 132.8 45.062 196.54 10.779l1.09 2.008c-28.93 15.556-61.43 20.754-99.4 15.893-33.42-4.28-66.74-15.584-98.96-26.518l-5.35-1.815c-31.01-10.517-63.07-21.393-95.98-25.325-24.88-2.973-51.3-.947-83.16 6.374-22.08 5.073-44.03 12.103-65.26 18.905-25.05 8.029-50.97 16.331-77.3 21.484-25.89 5.062-48.997 6.42-70.64 4.143-10.676-1.124-21.191-3.612-31.365-6.02-10.116-2.397-20.581-4.873-31.131-5.98-43.719-4.577-87.079 4.525-129.011 13.33-31.982 6.716-65.054 13.661-98.189 14.545zm8.877-20.087c-48.823 0-98.405-8.051-146.378-15.846l-16.156-2.614-24.315-3.937c-51.289-8.343-104.326-16.976-157.025-20.503-48.772-3.27-97.692 4.97-145.008 12.93C133.59 94.84 66.806 106.081.194 87.866l.605-2.203c66.121 18.083 132.654 6.882 197-3.949 47.441-7.989 96.504-16.246 145.539-12.959 52.808 3.538 105.896 12.177 157.236 20.531l24.309 3.937 16.162 2.614c48.732 7.915 99.12 16.092 148.594 15.812 34.105-.2 68.239-6.745 101.248-13.073 41.048-7.869 83.5-16.012 126.414-12.08 10.122.924 20.17 2.973 29.887 4.953 8.906 1.815 18.109 3.686 27.306 4.68 23.218 2.51 48.256 1.5 76.546-3.083 24.82-4.023 49.61-10.305 73.58-16.383 21.13-5.352 42.97-10.888 64.79-14.87 33.75-6.158 63.55-7.653 91.11-4.566 31.13 3.487 61.75 11.966 91.37 20.166l3.02.84c65.21 18.065 132.63 36.742 196.79 7.497l.95 2.077c-64.91 29.587-132.75 10.796-198.35-7.378l-3.02-.839c-29.53-8.177-60.07-16.628-91.01-20.098-27.33-3.059-56.92-1.575-90.45 4.542-21.74 3.966-43.55 9.495-64.63 14.836-24.02 6.09-48.86 12.383-73.78 16.423-28.5 4.616-53.732 5.626-77.162 3.093-9.3-1.004-18.56-2.893-27.517-4.713-9.66-1.969-19.645-4-29.641-4.913-42.595-3.897-84.881 4.211-125.775 12.052-33.112 6.351-67.348 12.913-101.665 13.119l-2.592.005zm-.696-20.799c-47.579 0-95.9-6.254-142.685-12.303l-18.086-2.328-24.057-3.093c-51.615-6.659-104.989-13.547-157.819-16.314-56.2-2.939-108.739 6.186-164.368 15.846l-.171.03C125.946 84.22 63.044 90.947.143 70.73l.696-2.174c62.433 20.07 124.987 13.376 177.949 4.177l.171-.028c55.76-9.684 108.419-18.83 164.876-15.875 52.922 2.768 106.335 9.661 157.995 16.326l24.058 3.087 18.086 2.328c48.315 6.248 98.263 12.714 147.269 12.263 34.02-.314 68.199-5.883 101.254-11.27 40.517-6.602 82.415-13.433 124.507-10.677 10.665.696 21.3 2.465 31.582 4.177 8.387 1.392 17.059 2.836 25.674 3.681 23.264 2.288 48.44 1.77 76.97-1.575 24.93-2.922 50.01-7.675 74.26-12.274 21.33-4.046 43.4-8.229 65.31-11.156 68.14-9.107 130.19 1.01 181.9 12.11l1.96.421c65.16 13.986 132.54 28.452 197.13 4.308l.8 2.14c-25.45 9.512-51.3 13.102-77.23 13.102-40.51 0-81.25-8.748-121.18-17.319l-1.96-.422c-51.52-11.059-113.33-21.136-181.12-12.074-21.84 2.922-43.88 7.1-65.18 11.133-24.29 4.605-49.41 9.364-74.42 12.297-28.69 3.367-54.028 3.88-77.457 1.581-8.689-.856-17.401-2.3-25.828-3.703-10.224-1.7-20.803-3.458-31.353-4.148-41.824-2.739-83.597 4.07-123.988 10.654-33.135 5.398-67.4 10.985-101.597 11.3l-4.915.022zm-10.933-21.45c-43.56 0-87.776-4.417-130.673-8.696l-26.307-2.59-18.474-1.78c-50.633-4.886-102.996-9.94-154.673-11.96-58.009-2.266-112.393 6.841-164.978 15.646-35.048 5.872-63.889 8.297-90.767 7.641C57.181 69.155 27.923 63.808.103 53.6l.788-2.14c63.632 23.345 126.219 17.45 179.056 8.6 52.7-8.829 107.192-17.953 165.44-15.676 51.747 2.02 104.138 7.076 154.805 11.966l18.474 1.78 26.313 2.591c47.436 4.736 96.493 9.632 144.403 8.531 33.215-.765 66.755-4.982 99.188-9.062 40.99-5.153 83.373-10.477 125.597-8.919 12.183.451 24.389 1.986 36.195 3.475 8.963 1.13 18.234 2.3 27.409 2.98 21.779 1.614 45.229 1.454 71.679-.492 25.81-1.895 51.91-5.3 77.16-8.599 23.02-3.007 46.84-6.11 70.39-8.069 52.47-4.36 106.63-1.575 175.59 9.04l1.78.273c65.11 10.026 132.43 20.39 197.49 1.552l.64 2.191c-65.55 18.98-133.12 8.576-198.48-1.489l-1.78-.274c-68.77-10.585-122.77-13.37-175.06-9.022-23.49 1.952-47.28 5.056-70.27 8.057-25.28 3.298-51.41 6.711-77.29 8.611-26.57 1.952-50.121 2.111-72.015.491-9.237-.685-18.537-1.855-27.529-2.99-11.754-1.478-23.909-3.013-35.995-3.458-42.035-1.552-84.327 3.76-125.226 8.902-32.496 4.086-66.093 8.308-99.422 9.073zM104.994 56.031C65.996 56.031 32.13 49.59.063 36.464l.868-2.11C51.672 55.117 107.02 59.008 180.392 46.98c52.431-8.594 106.644-17.478 164.407-16.035 46.745 1.17 94.295 4.6 140.276 7.91 63.569 4.581 129.302 9.317 193.922 8.165 34.699-.616 69.872-3.635 103.886-6.557 42.384-3.629 86.217-7.395 129.606-6.55 17.988.347 36.115 1.466 53.641 2.544 27.203 1.678 55.34 3.407 83.37 2.282 25.93-1.044 52.26-3.104 77.71-5.096l70.84-4.799c52.67-2.459 109.93-.588 175.07 5.735l.71.07c65.15 6.316 132.52 12.85 198.12-.36l.45 2.237c-65.93 13.284-133.48 6.733-198.8.394l-.71-.069c-65.01-6.305-122.17-8.177-174.73-5.723-23.62 1.101-47.58 2.98-70.77 4.793l-77.79 5.101c-28.16 1.13-56.347-.605-83.607-2.282l-53.544-2.539c-43.263-.839-87.039 2.916-129.372 6.551-34.048 2.922-69.261 5.946-104.04 6.562-64.728 1.147-130.513-3.595-194.134-8.177-45.951-3.31-93.473-6.734-140.166-7.903-57.541-1.444-111.651 7.424-163.979 16-27.535 4.514-52.557 6.796-75.764 6.796m5.309-14.255a311 311 0 0 1-21.003-.69C57.158 38.935 27.957 31.818.029 19.333l.931-2.083c51.477 23.013 106.934 27.926 179.82 15.926l28.642-4.999 45.587-7.612c30.577-4.342 60.583-4.633 88.46-4.29 44.622.541 89.991 2.236 133.864 3.874 60.121 2.248 122.292 4.571 183.424 3.954 37.28-.37 75.159-2.03 111.787-3.635 44.999-1.969 91.532-4.006 137.376-3.68 19.895.142 40.071.85 59.584 1.528 26.176.92 53.246 1.866 79.936 1.455l78.18-2.208 71.18-2.088c54.91-1.02 112.03-.126 174.61 2.74 65.09 2.983 132.4 6.065 198.64-1.074l.25 2.271c-66.42 7.156-133.81 4.07-198.99 1.084-62.54-2.864-119.61-3.76-174.48-2.739l-71.14 2.09-78.22 2.207c-26.75.405-53.847-.542-80.052-1.455l-59.521-1.529c-45.781-.325-92.292 1.712-137.261 3.68l-111.862 3.635c-61.189.61-123.382-1.712-183.532-3.96l-133.807-3.875c-27.786-.337-57.689-.05-88.112 4.268-15.221 2.163-30.618 4.925-45.501 7.601l-28.676 5.004c-25.776 4.251-49.149 6.352-70.843 6.352m3.014-14.802c-8.249 0-16.281-.32-24.131-.953C57.17 23.425 27.997 15.631 0 2.197L.988.137c51.444 24.685 108.67 30.5 180.112 18.306l30.863-5.644 43.188-7.652C284.65.622 313.988.012 341.271.035l124.473.223 167.69.228L956.55.217l242.6-.21 137.49.187L1572.16.03l.02 2.283-235.55.165-137.48-.188-242.6.211-323.116.268c-55.897.04-112.735-.097-167.696-.228l-124.473-.223c-27.203-.029-56.427.582-85.771 5.09-14.421 2.214-29.007 4.97-43.114 7.635l-30.903 5.65c-24.577 4.2-47.093 6.282-68.16 6.282"/></g></g><defs><clipPath id="a"><path fill="#fff" d="M0 0h1573v961H0z"/></clipPath></defs></svg>