<svg
  width="1573"
  height="961"
  viewBox="0 0 1573 961"
  fill="none"
  xmlns="http://www.w3.org/2000/svg"
>
  <g clip-path="url(#clip0_128_418)">
    <mask
      id="mask0_128_418"
      style="mask-type: luminance"
      maskUnits="userSpaceOnUse"
      x="0"
      y="0"
      width="1573"
      height="961"
    >
      <path d="M0 0H1573V961H0V0Z" fill="white" />
    </mask>
    <g mask="url(#mask0_128_418)">
      <path
        d="M1330.81 961C1285.75 961 1240.33 960.96 1195.36 960.817L253.667 960.663L0.490989 960.971V958.689L253.661 958.381L766.008 957.924L1195.36 958.535L1418.11 958.683H1572.17V960.966C1520.81 960.903 1468.6 960.931 1418.11 960.966L1330.81 961ZM1307.36 944.68C1268.79 944.68 1230.04 944.115 1191.61 942.392C1160.78 941.005 1129.34 938.917 1098.93 936.891C1029.95 932.303 958.623 927.561 888.813 930.625C855.319 932.097 821.231 934.409 788.273 936.645C737.154 940.115 684.301 943.698 632.292 944.246C568.5 944.92 503.629 941.924 440.887 939.036L303.483 934.038C244.122 933.033 183.761 936.052 125.381 938.974L0.513989 943.852L0.473989 941.57C42.064 940.857 84.362 938.74 125.266 936.697C183.681 933.775 244.087 930.757 303.523 931.755C349.338 932.531 395.929 934.677 440.99 936.754C503.692 939.647 568.534 942.631 632.263 941.964C684.209 941.416 737.035 937.832 788.113 934.369L888.711 928.343C958.646 925.273 1030.04 930.02 1099.09 934.608L1191.71 940.103C1266.73 943.476 1343 942.409 1416.77 941.376L1572.2 940.657L1572.16 942.939C1520.36 942.209 1467.72 942.945 1416.8 943.658L1307.36 944.68ZM1290.59 929.284C1257.4 929.284 1224.13 928.36 1191.05 925.769C1155.56 922.99 1119.56 919.338 1084.75 915.806L1028.63 910.231L1014.76 908.896C971.063 904.662 925.876 900.285 881.574 903.823C848.063 906.499 814.049 910.665 781.154 914.693C735.585 920.274 688.463 926.043 641.872 927.96C597.524 929.786 551.847 926.066 507.671 922.465L472.001 919.663L449.222 917.997L288.754 908.445C232.858 906.676 176.202 912.234 121.407 917.609C81.827 921.489 40.899 925.507 0.536989 926.739L0.467989 924.457C40.751 923.23 81.644 919.218 121.184 915.338C176.048 909.957 232.778 904.388 288.823 906.162C342.436 907.857 396.808 911.857 449.388 915.72L472.167 917.387L507.853 920.188C551.961 923.783 597.57 927.504 641.775 925.678C688.274 923.761 735.35 917.997 780.874 912.422L881.392 901.54C925.893 897.985 971.188 902.373 1014.99 906.619L1028.85 907.954L1084.98 913.529L1191.24 923.487C1266.46 929.376 1342.84 926.642 1416.71 924C1467.63 922.18 1520.29 920.297 1572.2 921.238L1572.16 923.521C1520.31 922.574 1467.69 924.457 1416.79 926.277L1290.59 929.284ZM1278.53 914.779C1249.11 914.779 1219.63 913.592 1190.24 910.448C1154.1 906.585 1117.54 901.432 1082.17 896.45L1025.2 888.604L1010.32 886.618C966.758 880.758 921.709 874.698 877.829 879.582C845.762 883.154 813.306 888.884 781.919 894.43C738.981 902.014 694.583 909.854 650.407 912.308C625.909 913.666 600.607 911.509 576.138 909.415L559.24 908.011C529.593 905.7 500.597 902.807 473.679 900.022L450.278 897.586C395.535 891.862 338.931 885.951 283.017 883.463C228.262 881.032 173.108 888.918 119.769 896.553C80.788 902.128 40.477 907.897 0.547989 909.615L0.450989 907.332C40.265 905.62 80.519 899.863 119.449 894.293C172.891 886.647 228.154 878.744 283.12 881.186C339.102 883.674 395.741 889.597 450.518 895.32L473.914 897.757L559.417 905.74L576.333 907.144C600.727 909.232 625.949 911.384 650.281 910.031C694.32 907.583 738.65 899.754 781.525 892.182C812.947 886.635 845.437 880.895 877.584 877.317C921.743 872.398 966.935 878.481 1010.64 884.358L1025.5 886.344L1082.5 894.19L1190.49 908.177C1266.27 916.28 1342.88 911.349 1416.97 906.585C1467.75 903.315 1520.25 899.937 1572.2 900.753L1572.17 903.035C1520.31 902.219 1467.86 905.597 1417.12 908.861C1371.63 911.789 1325.17 914.779 1278.53 914.779Z"
        fill="#01E4A6"
        fill-opacity="0.1"
      />
      <path
        d="M1278.87 901.774C1247.78 901.774 1218.69 899.908 1190.48 896.182C1154.21 891.389 1117.61 884.906 1082.22 878.635L1025.17 868.769L1011.16 866.429C967.517 859.091 922.394 851.507 878.731 857.453C847.623 861.687 816.269 868.735 785.943 875.548C744.936 884.758 702.535 894.287 660.009 897.049C634.798 898.681 608.565 895.845 583.195 893.101L567.13 891.406C536.946 888.376 507.505 884.575 480.182 880.923L456.632 877.751C400.959 870.218 343.384 862.429 286.339 859.205C230.934 856.072 175.517 866.115 121.927 875.822C82.306 883 41.339 890.419 0.553997 892.513L0.439997 890.236C41.077 888.153 81.97 880.746 121.521 873.579C175.243 863.85 230.803 853.79 286.471 856.934C343.606 860.164 401.221 867.959 456.941 875.497L480.485 878.669L567.358 889.146L583.44 890.847C608.714 893.58 634.855 896.41 659.866 894.79C702.215 892.039 744.525 882.533 785.447 873.34C815.818 866.515 847.218 859.462 878.429 855.216C922.434 849.225 967.734 856.843 1011.54 864.204L1025.54 866.538L1082.62 876.41L1190.78 893.939C1246.34 901.283 1305.32 901.363 1376.39 894.202L1412.87 890.379C1464.94 884.815 1518.78 879.069 1572.19 879.497L1572.17 881.779C1518.89 881.334 1465.12 887.086 1413.12 892.644L1376.62 896.473C1341.43 899.999 1309.19 901.774 1278.87 901.774ZM1272.37 890.019C1243.39 890.019 1215.52 886.378 1191.51 882.664C1155.49 877.089 1119.26 869.431 1084.22 862.024L1027.75 850.383L1016.22 848.106C972.296 839.398 926.875 830.388 883.064 837.087C852.402 841.778 821.642 849.909 791.898 857.773C752.101 868.295 710.95 879.171 669.32 882.025C643.504 883.794 616.524 880.296 590.434 876.912L576.378 875.12C546.166 871.405 515.629 866.532 489.733 862.258L466.469 858.389C410.961 849.122 353.568 839.535 296.461 835.655C239.183 831.763 182.168 843.764 127.036 855.376C85.8 864.061 43.154 873.037 0.553997 875.365L0.427997 873.088C42.857 870.766 85.412 861.807 126.562 853.145C181.854 841.504 239.023 829.464 296.616 833.378C353.831 837.27 411.28 846.862 466.84 856.141L490.098 860.01C515.966 864.278 546.48 869.145 576.647 872.854L590.713 874.646C616.695 878.013 643.561 881.494 669.155 879.742C710.568 876.906 751.615 866.053 791.304 855.559C821.105 847.678 851.922 839.53 882.711 834.822C926.915 828.06 972.536 837.104 1016.65 845.858L1028.18 848.129L1084.68 859.776C1119.69 867.177 1155.89 874.829 1191.85 880.393C1219.49 884.672 1252.3 888.855 1285.94 887.446C1318.92 886.059 1351.73 881.933 1376.63 878.487L1413.19 873.243C1465.04 865.67 1518.64 857.841 1572.17 857.727V860.01C1518.81 860.124 1465.29 867.941 1413.53 875.502L1376.94 880.752C1351.99 884.204 1319.11 888.341 1286.03 889.728C1281.48 889.925 1276.92 890.022 1272.37 890.019ZM1269.45 877.374C1241.86 877.374 1215.69 873.534 1193.08 869.579C1157.57 863.365 1122 854.674 1087.59 846.269L1032.15 833.093L1024.73 831.421C980.226 821.361 934.2 810.958 889.664 818.148C858.893 823.118 828.178 832.14 798.48 840.871C759.157 852.432 718.486 864.381 677.005 867.137C650.532 868.9 622.878 864.74 596.131 860.723L585.433 859.131C555.792 854.794 525.899 849.076 500.563 844.055L477.938 839.535C423.577 828.636 367.373 817.361 311.145 812.927C250.693 808.156 190.423 822.017 132.14 835.427C89.214 845.299 44.827 855.507 0.564997 858.264L0.421997 855.987C44.501 853.242 88.791 843.056 131.626 833.207C190.08 819.763 250.521 805.862 311.322 810.656C367.681 815.101 423.96 826.388 478.384 837.304L501.003 841.824C526.305 846.839 556.163 852.552 585.758 856.877L596.462 858.469C623.089 862.469 650.618 866.606 676.845 864.866C718.075 862.127 758.62 850.206 797.829 838.685C827.596 829.937 858.379 820.887 889.293 815.9C934.263 808.642 980.505 819.09 1025.23 829.201L1032.65 830.873L1088.13 844.061C1122.49 852.455 1158.04 861.134 1193.47 867.337C1220.57 872.079 1252.78 876.649 1286.35 874.589C1319.3 872.569 1352.05 867.262 1376.89 862.863L1413.57 856.135C1465.15 846.514 1518.48 836.562 1572.15 835.832L1572.18 838.115C1518.7 838.839 1465.47 848.774 1413.99 858.378L1377.28 865.105C1352.38 869.516 1319.55 874.835 1286.49 876.86C1280.82 877.207 1275.13 877.378 1269.45 877.374ZM1267.51 864.626C1240.5 864.626 1215.1 860.5 1194.96 856.614C1160.11 849.887 1125.36 840.311 1091.76 831.05L1037.6 816.545L1036.3 816.219C990.662 804.704 943.465 792.795 897.314 800.259C865.852 805.349 834.595 815.107 804.372 824.545C764.752 836.916 723.778 849.71 681.703 852.215C654.272 853.853 625.778 848.957 598.221 844.226L592.717 843.284C564.058 838.394 535.268 831.906 510.885 826.2L489.208 821.087C436.834 808.687 382.678 795.859 328.123 791.003C275.344 786.301 222.89 798.279 172.166 809.857L170.23 810.302L146.818 815.723C99.29 826.793 50.148 838.246 0.564997 841.139L0.433997 838.862C49.822 835.986 98.868 824.556 146.298 813.503L169.722 808.082L171.657 807.643C222.553 796.025 275.184 784.007 328.329 788.738C383.044 793.611 437.285 806.456 489.739 818.873L511.41 823.986C535.759 829.686 564.509 836.169 593.106 841.042L598.615 841.983C626.041 846.691 654.403 851.564 681.572 849.944C723.373 847.456 764.209 834.702 803.698 822.377C834.002 812.916 865.332 803.129 896.96 798.016C943.58 790.478 991.01 802.444 1036.88 814.017L1038.17 814.342C1056.3 818.919 1074.64 823.969 1092.37 828.859C1125.94 838.109 1160.64 847.673 1195.4 854.383C1220.17 859.165 1252.94 864.307 1286.77 861.607C1319.67 858.977 1352.36 852.523 1377.16 847.193L1413.97 838.999C1465.25 827.381 1518.29 815.369 1572.16 814.068L1572.21 816.351C1518.58 817.646 1465.66 829.635 1414.48 841.225L1377.64 849.424C1352.77 854.771 1319.99 861.242 1286.95 863.884C1280.41 864.398 1273.92 864.626 1267.51 864.626ZM1265.57 851.559C1245.12 851.559 1223.11 848.928 1196.88 843.467C1162.74 836.351 1128.86 826.023 1096.1 816.031L1043.3 800.413C996.074 787.3 949.939 776.115 904.838 783.111C872.075 788.196 839.642 798.553 808.277 808.573C767.578 821.578 725.491 835.022 682.069 837.156C631.521 839.638 577.24 824.71 529.342 811.546L518.912 808.681L498.411 803.032C448.731 789.291 397.362 775.088 345.142 769.958C291.586 764.703 237.962 777.297 186.101 789.48L180.695 790.746L155.341 796.784C105.068 808.841 53.076 821.309 0.553997 824.014L0.433997 821.737C52.751 819.05 104.634 806.604 154.805 794.57L180.17 788.532L185.576 787.266C237.619 775.043 291.432 762.398 345.365 767.693C397.784 772.84 449.251 787.072 499.022 800.835L519.517 806.479L529.953 809.343C577.686 822.468 631.784 837.333 681.966 834.879C725.091 832.762 767.03 819.358 807.592 806.399C839.037 796.35 871.555 785.965 904.496 780.852C950.054 773.787 996.439 785.034 1043.91 798.21C1061.62 803.123 1079.49 808.573 1096.77 813.846C1129.48 823.82 1163.3 834.137 1197.35 841.23C1232.87 848.631 1260.56 850.794 1287.13 848.255C1319.81 845.128 1351.09 837.983 1377.39 831.404L1414.35 821.817C1465.34 808.362 1518.07 794.456 1572.14 792.721L1572.22 795.003C1518.41 796.727 1465.8 810.604 1414.94 824.026L1377.95 833.618C1351.57 840.214 1320.19 847.387 1287.36 850.526C1280.21 851.216 1272.99 851.559 1265.57 851.559Z"
        fill="#01E4A6"
        fill-opacity="0.1"
      />
      <path
        d="M1264.47 837.806C1244.4 837.806 1222.95 835.187 1198.61 829.823C1165.08 822.439 1132.02 811.477 1100.03 800.869L1048.49 784.321C1007.33 771.978 959.382 759.39 911.067 766.312C876.351 771.288 842.074 782.153 808.922 792.658C766.345 806.153 722.317 820.105 676.793 821.789C674.105 821.886 671.41 821.937 668.715 821.937C619.298 821.937 568.232 805.771 522.897 791.42L503.749 785.308C457.335 770.421 409.339 755.031 359.968 749.821C305.733 744.092 250.978 757.199 198.033 769.873L190.086 771.773L162.94 778.352C110.212 791.243 55.691 804.567 0.55397 806.895L0.45697 804.613C55.366 802.296 109.778 788.995 162.398 776.133L189.555 769.548L197.496 767.647C250.63 754.928 305.573 741.781 360.202 747.55C409.807 752.788 457.917 768.212 504.439 783.134L523.582 789.246C571.212 804.322 625.207 821.418 676.708 819.512C721.923 817.84 765.796 803.934 808.231 790.484C841.469 779.95 875.843 769.057 910.747 764.052C959.513 757.062 1007.76 769.719 1049.15 782.136C1066.45 787.323 1083.89 793.109 1100.76 798.701C1132.68 809.286 1165.7 820.237 1199.1 827.592C1232.81 835.016 1260.88 837.15 1287.45 834.32C1320.1 830.833 1351.33 822.833 1377.58 815.46L1414.68 804.653C1465.4 789.611 1517.84 774.055 1572.14 772.15L1572.22 774.432C1518.21 776.327 1465.91 791.842 1415.34 806.844L1378.2 817.663C1351.86 825.058 1320.5 833.093 1287.69 836.597C1280.1 837.401 1272.39 837.806 1264.47 837.806Z"
        fill="#01E4A6"
        fill-opacity="0.1"
      />
      <path
        d="M1263.64 823.13C1243.69 823.13 1222.63 820.556 1199.88 815.375C1168.15 808.145 1136.27 796.727 1105.43 785.679C1044.21 763.744 980.888 741.062 914.784 749.553C877.424 754.352 840.578 765.65 804.949 776.578C759.688 790.455 712.886 804.807 664.485 806.022L658.673 806.096C603.405 806.096 551.19 786.535 500.626 767.596C458.631 751.864 415.202 735.595 370.307 730.642C315.558 724.605 259.941 738.117 206.151 751.19L197.045 753.399L168.392 760.457C113.9 774.01 57.552 788.019 0.530994 789.776L0.461994 787.494C57.238 785.742 113.466 771.762 167.844 758.243L196.514 751.179L205.62 748.971C259.599 735.852 315.415 722.288 370.564 728.371C415.739 733.358 459.304 749.672 501.437 765.456C553.559 784.983 607.464 805.166 664.434 803.74C712.515 802.53 759.168 788.224 804.281 774.392C840.007 763.436 876.945 752.109 914.498 747.287C981.156 738.722 1044.73 761.502 1106.21 783.528C1136.98 794.553 1168.79 805.948 1200.39 813.149C1232.33 820.425 1260.88 822.519 1287.68 819.541C1320.31 815.917 1351.51 807.261 1377.72 799.272L1414.95 787.482C1465.43 771.191 1517.63 754.346 1572.15 752.623L1572.22 754.905C1518.02 756.617 1465.98 773.416 1415.65 789.657L1378.39 801.457C1352.08 809.475 1320.75 818.165 1287.93 821.812C1279.86 822.698 1271.75 823.138 1263.64 823.13ZM1259.1 806.41C1239 806.41 1219.61 804.219 1200.46 799.808C1167.7 792.264 1135.53 780.584 1104.42 769.291C1044.29 747.458 982.104 724.884 914.824 732.457C874.067 737.044 833.882 748.731 795.021 760.035C746.277 774.215 695.873 788.875 643.836 789.685L640.701 789.708C588.778 789.708 541.411 769.753 495.562 750.437C456.764 734.094 416.647 717.192 373.961 712.45C318.875 706.333 262.801 720.205 208.572 733.621L200.299 735.664L170.567 743.144C115.378 757.171 58.306 771.682 0.524994 772.663L0.484994 770.381C57.997 769.405 114.939 754.928 170.002 740.936L199.751 733.449L208.024 731.407C262.447 717.945 318.721 704.022 374.212 710.179C417.229 714.955 457.5 731.92 496.453 748.332C543.004 767.944 591.142 788.219 643.807 787.403C695.542 786.598 745.792 771.978 794.393 757.844C833.345 746.511 873.628 734.796 914.578 730.185C945.018 726.756 976.983 729.13 1012.3 737.432C1043.77 744.834 1075 756.172 1105.21 767.139C1136.26 778.409 1168.36 790.067 1200.99 797.577C1268.24 813.058 1330.81 797.794 1377.8 782.763L1415.11 770.329C1465.43 753.216 1517.46 735.521 1572.18 734.448L1572.22 736.731C1517.86 737.798 1466 755.436 1415.84 772.492L1378.5 784.937C1345.21 795.585 1317.21 801.868 1290.38 804.71C1279.71 805.845 1269.31 806.41 1259.1 806.41ZM1264.7 788.481C1245.25 788.481 1224.88 785.982 1202.19 780.88C1170.32 773.719 1138.48 762.706 1107.69 752.052C1045.36 730.499 980.922 708.21 913.196 716.833C871.321 722.162 829.765 734.288 789.586 746.015C737.777 761.136 684.198 776.772 629.238 778.067C577.657 779.26 530.718 757.57 485.314 736.571C449.159 719.851 411.771 702.561 372.26 696.935C321.05 689.653 267.585 702.715 215.885 715.349L199.957 719.218L170.778 726.356C115.498 740.006 58.34 754.112 0.524994 755.544L0.467994 753.262C58.037 751.841 115.07 737.758 170.23 724.142L199.42 717.004L215.337 713.135C264.828 701.038 320.93 687.331 372.573 694.675C412.416 700.341 449.959 717.706 486.268 734.499C531.431 755.384 578.125 776.971 629.175 775.784C683.838 774.495 737.263 758.905 788.935 743.823C829.206 732.074 870.842 719.92 912.9 714.567C981.162 705.876 1045.86 728.257 1108.43 749.895C1139.16 760.526 1170.95 771.516 1202.69 778.649C1234.99 785.907 1262.55 787.865 1289.43 784.795C1322.48 781.023 1354.67 771.967 1379.01 764.503L1415.04 753.056C1465.44 736.765 1517.54 719.92 1572.13 717.883L1572.22 720.165C1517.95 722.185 1465.99 738.984 1415.75 755.225L1379.68 766.683C1355.24 774.181 1322.92 783.271 1289.69 787.06C1281.39 788.013 1273.05 788.487 1264.7 788.481ZM1269.89 766.272C1250.89 766.272 1230.58 763.95 1206.76 759.156C1175.42 752.851 1143.52 743.139 1112.66 733.746C1047.53 713.917 980.174 693.414 912.015 702.612C869.391 708.364 826.94 720.291 785.881 731.823C732.427 746.836 677.159 762.358 620.748 764.509C578.205 766.124 535.285 746.973 497.412 730.071L481.581 722.938C445.894 706.772 408.991 690.053 369.588 683.696C320.782 675.821 266.541 688.472 218.682 699.64L198.712 704.25L170.51 710.721C115.276 723.503 58.157 736.719 0.530994 738.437L0.461994 736.154C57.86 734.448 114.87 721.255 169.996 708.496L198.21 702.019L218.163 697.414C266.227 686.201 320.702 673.499 369.953 681.442C409.659 687.85 446.699 704.633 482.523 720.861L498.342 727.994C535.987 744.794 578.65 763.835 620.657 762.232C676.793 760.092 731.936 744.605 785.258 729.632C826.391 718.082 868.923 706.133 911.701 700.359C980.363 691.091 1047.95 711.668 1113.32 731.566C1144.12 740.942 1175.97 750.643 1207.2 756.925C1241.32 763.79 1268.17 765.559 1294.26 762.654C1320.01 759.795 1347.21 754.169 1382.45 744.428L1416.32 734.785C1466.47 720.302 1518.33 705.323 1572.12 702.784L1572.23 705.066C1518.7 707.594 1466.98 722.533 1416.96 736.982L1383.06 746.631C1347.7 756.412 1320.39 762.055 1294.52 764.931C1286.44 765.816 1278.29 766.272 1269.89 766.272ZM610.609 748.377C571.891 748.377 532.008 731.738 496.63 716.975L493.404 715.629L477.664 709.009C442 693.933 405.12 678.344 366.191 672.055C318.43 664.335 265.159 675.77 218.157 685.859L196.823 690.378L169.734 696.045C114.682 707.657 57.758 719.657 0.524994 721.306L0.455994 719.024C57.483 717.386 114.304 705.403 169.259 693.813L196.359 688.141L217.677 683.628C264.873 673.499 318.366 662.018 366.555 669.807C405.753 676.141 442.764 691.788 478.554 706.915L494.282 713.534L497.508 714.881C534.279 730.22 575.955 747.595 615.815 746.003C672.716 743.704 728.95 728.999 783.339 714.778C824.861 703.925 867.792 692.695 910.781 687.046C961.311 680.404 1010.81 689.511 1057.17 699.411L1111.2 711.646C1144.71 719.452 1179.36 727.521 1213.88 733.181C1239.17 737.324 1269.36 741.142 1301.61 738.032C1326.75 735.606 1354.08 730.836 1387.61 723.013L1418.71 715.583C1468.31 703.594 1519.6 691.194 1572.12 688.82L1572.22 691.103C1519.92 693.471 1468.74 705.842 1419.25 717.803L1388.13 725.238C1354.49 733.084 1327.07 737.872 1301.82 740.303C1269.12 743.453 1237.44 739.355 1213.5 735.43C1178.9 729.763 1144.22 721.683 1110.66 713.865L1056.68 701.643C1010.51 691.782 961.231 682.709 911.066 689.305C868.22 694.938 825.357 706.145 783.904 716.981C729.401 731.23 673.047 745.969 615.895 748.274C614.148 748.343 612.378 748.377 610.608 748.377H610.609ZM608.605 729.991C570.584 729.991 530.986 715.412 495.865 702.476L490.778 700.604L474.981 694.749C438.729 681.26 401.244 667.308 362.275 661.59C314.599 654.6 264.149 664.169 215.36 673.419L194.465 677.334L168.609 682.115C113.848 692.318 57.227 702.864 0.524994 704.182L0.473994 701.899C56.993 700.587 113.523 690.053 168.192 679.867L194.054 675.085L214.937 671.177C263.909 661.887 314.553 652.283 362.611 659.33C401.821 665.076 439.42 679.074 475.78 692.609L491.566 698.458L496.658 700.33C533.275 713.814 574.791 729.101 614.012 727.601C670.965 725.426 727.586 712.171 782.347 699.354C824.022 689.596 867.114 679.513 910.096 674.361C962.288 668.107 1016.11 676.312 1059.35 682.909L1115.5 691.97C1150.38 697.751 1186.44 703.731 1222.13 707.948C1248.17 711.029 1279.07 713.865 1310.8 711.571C1335.5 709.791 1361.94 706.305 1394.04 700.615L1421.95 695.565C1470.76 686.652 1521.22 677.436 1572.14 675.69L1572.22 677.973C1521.47 679.713 1471.08 688.917 1422.36 697.814L1394.43 702.864C1362.26 708.57 1335.73 712.062 1310.96 713.848C1279.03 716.154 1248.01 713.306 1221.86 710.213C1186.11 705.985 1150.02 700.005 1115.12 694.219L1059 685.163C1004.18 676.803 958.423 670.863 910.365 676.626C867.508 681.762 824.479 691.833 782.866 701.574C728.003 714.419 671.273 727.698 614.097 729.877C612.271 729.957 610.438 729.991 608.605 729.991ZM609.918 710.065C570.315 710.065 530.587 697.802 492.154 685.939L485.52 683.896L473.034 680.038C435.258 668.329 396.197 656.226 356.24 651.644C307.879 646.097 257.423 654.246 208.629 662.132L188.59 665.333L167.227 668.706C112.838 677.334 56.599 686.253 0.519994 687.08L0.485994 684.797C56.405 683.97 112.565 675.063 166.869 666.452L188.237 663.079L208.259 659.878C257.207 651.969 307.818 643.792 356.492 649.378C396.666 653.983 435.83 666.126 473.703 677.864L486.183 681.722L492.823 683.77C531.335 695.657 571.173 707.942 610.662 707.794C654.861 707.617 699.893 698.835 743.441 690.338L758.924 687.331L778.808 683.479C820.604 675.348 863.826 666.942 906.918 662.377C957.185 657.053 1008.18 661.613 1057.49 666.024L1059.62 666.212L1120.35 671.987L1229.79 681.693C1284.77 685.551 1340.64 684.244 1400.61 677.699L1426.29 674.846C1473.92 669.51 1523.17 663.987 1572.16 663.131L1572.2 665.413C1523.31 666.269 1474.11 671.781 1426.54 677.111L1400.86 679.964C1340.75 686.521 1284.74 687.833 1229.63 683.964C1193.07 681.402 1155.98 677.767 1120.12 674.252L1059.42 668.477L1057.29 668.289C1008.08 663.89 957.202 659.336 907.157 664.637C864.169 669.191 820.997 677.59 779.248 685.71L759.358 689.568L743.881 692.575C700.23 701.089 655.089 709.899 610.673 710.076C610.428 710.065 610.17 710.065 609.918 710.065ZM611.842 688.877C562.911 688.877 514.607 676.706 467.873 664.934C430.091 655.416 391.019 645.572 351.913 642.245C301.759 637.983 250.196 644.642 200.334 651.079L185.839 652.939L165.874 655.501C111.85 662.469 55.988 669.67 0.501994 669.95L0.490994 667.667C55.834 667.387 111.622 660.192 165.583 653.236L185.553 650.674L200.043 648.813C250.025 642.36 301.714 635.683 352.113 639.969C391.407 643.313 430.565 653.179 468.439 662.72C515.418 674.56 564.001 686.772 613.058 686.595C670.491 686.355 728.385 676.632 784.373 667.233C824.388 660.511 865.766 653.567 906.637 650.137C952.132 646.32 998.591 647.798 1043.52 649.23L1062.26 649.812L1125.49 651.843L1239.45 655.187C1301.83 656.506 1365.18 654.839 1426.44 653.224L1572.18 650.788V653.07C1523.58 652.956 1474.23 654.252 1426.5 655.507C1365.21 657.122 1301.83 658.794 1239.4 657.47L1125.41 654.126L1062.19 652.095L1043.44 651.512C998.574 650.086 952.183 648.608 906.82 652.414C866.04 655.838 824.713 662.777 784.744 669.487C728.671 678.903 670.685 688.643 613.064 688.883L611.842 688.877ZM616.849 667.085H616.604C567.021 667.068 517.559 658.155 469.723 649.532C429.909 642.36 388.741 634.936 347.745 632.699C284.273 629.229 219.921 635.86 157.693 642.28C106.233 647.587 53.014 653.082 0.496994 652.836L0.507994 650.554C52.916 650.799 106.061 645.31 157.459 640.009C219.778 633.583 284.221 626.941 347.871 630.422C389.01 632.67 430.251 640.106 470.134 647.29C517.873 655.895 567.232 664.791 616.609 664.808H616.855C672.974 664.808 729.687 657.573 784.55 650.571C824.473 645.475 865.755 640.208 906.494 637.766C943.043 635.575 980.317 634.959 1016.37 634.365L1064.86 633.429L1130.53 631.769L1248.98 628.813C1316.71 627.181 1385.2 630.462 1451.44 633.629L1572.21 638.371L1572.16 640.653C1531.79 639.758 1490.88 637.8 1451.32 635.906C1385.13 632.739 1316.68 629.463 1249.03 631.09L1130.59 634.045L1064.91 635.706L1016.41 636.642L906.637 640.037C865.972 642.474 824.73 647.735 784.842 652.825C729.904 659.838 673.111 667.085 616.849 667.085ZM620.36 645.224C570.709 645.224 520.796 639.392 472.486 633.749C431.091 628.916 388.285 623.911 345.913 622.616C285.238 620.756 223.735 624.933 164.253 628.967C110.64 632.608 55.2 636.368 0.490994 635.712L0.519994 633.429C55.138 634.091 110.531 630.325 164.099 626.69C223.632 622.65 285.192 618.467 345.981 620.333C388.45 621.634 431.307 626.639 472.755 631.483C522.337 637.275 573.615 643.25 624.482 642.93C677.233 642.582 730.652 638.011 782.312 633.595C823.805 630.045 866.708 626.376 909.052 624.91C987.316 622.199 1066.64 616.493 1143.35 610.981L1259.57 602.98L1266.43 602.547C1294.66 600.755 1323.87 598.9 1352.68 600.732C1374.97 602.153 1398.08 604.658 1423.33 608.401L1437.77 610.553C1481.57 617.098 1526.85 623.865 1572.22 625.589L1572.14 627.871C1526.63 626.137 1481.29 619.363 1437.43 612.807L1423 610.655C1397.81 606.923 1374.76 604.424 1352.54 603.003C1323.87 601.177 1294.74 603.026 1266.57 604.818L1259.7 605.251L1143.51 613.252L909.12 627.187C866.84 628.653 823.965 632.317 782.501 635.866C730.795 640.288 677.33 644.859 624.488 645.213L620.36 645.224ZM627.034 623.854C577.686 623.854 527.738 620.67 479.417 617.589C434.664 614.735 388.382 611.785 342.756 611.374C287.664 610.884 231.699 613.006 177.578 615.055C119.552 617.258 59.556 619.529 0.479994 618.593L0.513994 616.31C59.528 617.252 119.495 614.975 177.486 612.778C231.636 610.724 287.63 608.601 342.773 609.092C388.467 609.497 434.779 612.453 479.56 615.306C528.274 618.41 578.656 621.629 628.347 621.566C679.157 621.509 730.732 618.941 780.611 616.459L909.035 611.546C989.52 610.319 1070.66 600.692 1149.14 591.379L1267.17 578.369L1271.6 577.953C1300.9 575.202 1331.2 572.355 1361.11 575.031C1383.06 576.994 1405.36 580.726 1429.27 586.438L1442.22 589.548C1485.99 600.093 1527.33 610.05 1572.22 612.122L1572.12 614.404C1527 612.322 1485.56 602.336 1441.69 591.767L1428.74 588.658C1404.94 582.974 1382.75 579.259 1360.91 577.302C1331.21 574.643 1301.01 577.479 1271.82 580.224L1267.38 580.64C1227.99 584.321 1188.04 589.063 1149.4 593.645C1070.87 602.963 989.668 612.601 909.063 613.828C866.252 614.479 822.766 616.641 780.72 618.735C730.812 621.218 679.208 623.791 628.347 623.848L627.034 623.854Z"
        fill="#01E4A6"
        fill-opacity="0.1"
      />
      <path
        d="M623.18 603.42C577.486 603.42 531.152 602.204 486.291 601.029L338.394 598.661L209.28 600.236L0.47998 601.48L0.51398 599.197C70.044 600.19 140.812 599.054 209.245 597.953L338.388 596.378C387.731 596.161 437.867 597.474 486.353 598.746L627.742 601.137L769.336 599.203L906.546 597.28C989.04 597.04 1071.7 584.503 1151.64 572.383L1271.13 555.698L1273.15 555.464C1303.71 551.92 1335.31 548.263 1366.42 551.361C1388.08 553.518 1410.56 558.266 1433.26 565.473L1447.25 569.947C1488.62 583.237 1527.69 595.785 1572.23 597.691L1572.13 599.973C1527.28 598.05 1488.07 585.456 1446.55 572.121L1432.57 567.647C1410.03 560.491 1387.7 555.778 1366.2 553.632C1335.34 550.557 1303.86 554.203 1273.42 557.729L1271.39 557.963C1231.48 562.585 1191.07 568.714 1151.99 574.643C1071.97 586.78 989.223 599.328 906.563 599.568L769.387 601.491L627.753 603.425L623.18 603.42ZM246.662 584.954C164.635 584.954 82.209 584.811 0.49098 584.355L0.50198 582.072L462.273 582.449L629.495 582.238L743.68 582.01L906.591 581.799H907.67C989.959 581.799 1071.81 567.824 1150.98 554.3L1274.47 535.064C1325.8 528.593 1380.87 525.449 1435.82 546.094C1443.94 549.147 1452.07 552.559 1459.92 555.858C1470.71 560.389 1481.86 565.068 1493.13 568.868C1517.1 576.954 1542.97 581.228 1572.21 581.947L1572.16 584.229C1542.68 583.505 1516.6 579.191 1492.4 571.031C1481.06 567.208 1469.87 562.506 1459.04 557.963L1435.01 548.234C1380.53 527.766 1325.8 530.893 1274.76 537.329C1233.41 542.539 1191.7 549.666 1151.36 556.554C1072.11 570.089 990.153 584.081 907.67 584.081H906.585C852.287 583.996 797.076 584.15 743.686 584.292L629.5 584.52L462.279 584.732L246.662 584.954ZM429.749 569.958C398.606 569.958 367.384 569.473 336.401 568.086C262.35 564.777 187.129 565.644 114.385 566.483L0.49098 567.236L0.49698 564.954L114.357 564.2C187.135 563.361 262.385 562.494 336.504 565.809C404.367 568.845 473.428 567.556 540.218 566.312L631.361 564.999L788.267 565.165L907.213 565.467C962.956 565.382 1016.73 560.891 1071.59 551.726L1143.48 538.876C1186.08 531.012 1230.13 522.875 1273.84 517.312C1306.23 513.186 1332.26 511.782 1355.77 512.901C1385.17 514.293 1411.36 519.657 1435.85 529.289C1443.67 532.371 1451.5 535.794 1459.07 539.11C1470.22 543.989 1481.74 549.039 1493.45 553.05C1516.84 561.068 1542 564.971 1570.3 564.971L1572.17 564.965L1572.18 567.247L1570.3 567.253C1541.74 567.253 1516.34 563.31 1492.7 555.207C1480.91 551.167 1469.34 546.1 1458.15 541.198L1435.01 531.412C1380.32 509.893 1322.99 513.351 1274.14 519.577C1230.48 525.135 1186.46 533.266 1143.9 541.124L1071.97 553.98C1016.98 563.162 963.093 567.67 907.219 567.75C867.565 567.812 827.248 567.624 788.261 567.447L631.379 567.282L540.263 568.594L429.749 569.958ZM437.45 556.851C404.207 556.851 370.906 555.515 337.949 551.612C282.828 545.09 231.482 542.665 180.975 544.205L117.514 546.773C79.184 548.514 39.54 550.311 0.48498 550.117L0.49598 547.835C39.505 548.04 79.109 546.237 117.41 544.496L180.905 541.929C231.527 540.382 282.982 542.813 338.216 549.347C407.586 557.558 478.605 554.38 547.29 551.304L644.48 548.086C694.473 547.601 745.289 548.422 794.432 549.216L914.64 550.488C969.96 550.46 1023.29 545.7 1077.7 535.943L1144.81 523.069C1186.59 514.789 1229.79 506.236 1272.76 500.604C1304.31 496.466 1330.32 495.217 1354.61 496.655C1383.52 498.372 1409.64 503.97 1434.45 513.779C1441.74 516.661 1449.06 519.811 1456.14 522.858C1468.33 528.102 1480.94 533.529 1493.75 537.734C1517.92 545.666 1543.55 548.97 1572.14 547.846L1572.23 550.129C1543.37 551.27 1517.47 547.926 1493.05 539.909C1480.13 535.669 1467.48 530.225 1455.25 524.958L1433.62 515.908C1376.25 493.225 1317.68 497.026 1273.06 502.875C1230.17 508.495 1187 517.049 1145.26 525.318L1078.11 538.202C1023.57 547.989 970.103 552.753 914.651 552.782H912.9C873.376 552.782 833.237 552.131 794.404 551.504L644.509 550.374C612.208 550.688 579.261 552.166 547.399 553.592C511.21 555.201 474.37 556.851 437.45 556.851Z"
        fill="#01E4A6"
        fill-opacity="0.1"
      />
      <path
        d="M446.682 543.304C410.213 543.304 373.767 540.987 337.943 534.054L325.629 531.629C304.5 527.423 284.547 523.457 263.155 522.145C239.634 520.701 214.686 520.832 182.259 522.584C160.987 523.731 139.39 525.409 118.501 527.035C79.886 530.042 39.963 533.158 0.484994 533.004L0.490994 530.721C39.86 530.875 79.754 527.76 118.324 524.758L182.133 520.302C214.652 518.55 239.68 518.413 263.292 519.868C284.832 521.192 304.865 525.175 326.068 529.392L338.371 531.817C410.704 545.815 485.743 540.913 558.304 536.177C591.884 533.985 626.612 531.72 660.489 531.378C709.101 530.887 758.477 532.513 806.222 534.088L923.507 536.856C977.594 537.135 1029.69 532.188 1082.75 521.745L1146.73 508.244C1186.54 499.559 1227.7 490.583 1268.76 484.763C1299.18 480.455 1326.08 479.165 1351 480.831C1379.53 482.737 1405.76 488.466 1431.19 498.338C1438.21 501.066 1445.27 504.01 1452.1 506.863C1465.37 512.404 1479.1 518.139 1493.07 522.459C1517.91 530.145 1543.75 532.85 1572.07 530.716L1572.24 532.993C1543.63 535.144 1517.51 532.416 1492.39 524.644C1478.32 520.29 1464.54 514.538 1451.21 508.975L1430.36 500.472C1382.99 482.081 1333.25 477.932 1269.07 487.028C1228.1 492.832 1186.98 501.802 1147.21 510.481L1083.18 523.988C1029.97 534.453 977.719 539.418 923.478 539.138C884.343 538.938 844.58 537.632 806.13 536.365L660.494 533.66C626.68 534.003 591.987 536.262 558.435 538.453C521.618 540.856 484.144 543.304 446.682 543.304ZM457.266 529.398C417.126 529.398 377.181 526.031 338.297 515.748L323.927 511.839C303.957 506.327 285.089 501.117 264.114 499.428C240.93 497.568 216.079 497.893 183.532 500.484C162.163 502.184 140.498 504.621 119.546 506.972C80.651 511.343 40.437 515.856 0.496994 515.879V513.597C40.311 513.574 80.457 509.066 119.283 504.706L183.344 498.213C216.016 495.61 240.982 495.285 264.291 497.157C285.489 498.857 304.454 504.096 324.532 509.642L338.873 513.545C414.808 533.626 495.071 527.178 572.69 520.935C608.543 518.053 645.622 515.075 681.503 514.812C728.368 514.476 775.896 517.066 821.853 519.571L935.37 524.228C987.196 524.958 1037.47 519.777 1089.07 508.398C1109.17 503.965 1129.53 498.977 1149.21 494.15C1186.61 484.98 1225.28 475.501 1263.99 469.413C1325 459.821 1376.78 464.174 1426.94 483.108L1435.74 486.446C1480.12 503.297 1522.05 519.217 1572.04 513.591L1572.3 515.856C1565.2 516.655 1558.26 517.026 1551.46 517.026C1509.85 517.026 1473.3 503.149 1434.93 488.575L1426.13 485.242C1376.35 466.451 1324.94 462.137 1264.34 471.667C1225.72 477.738 1187.1 487.205 1149.75 496.364L1089.56 510.624C1037.78 522.036 987.327 527.229 935.33 526.504C897.411 525.974 858.933 523.874 821.722 521.842C775.798 519.337 728.306 516.747 681.515 517.083C645.714 517.34 608.68 520.319 572.867 523.195C534.708 526.282 495.899 529.398 457.266 529.398ZM963.087 514.755C958.437 514.756 953.788 514.696 949.14 514.573C912.631 513.631 875.66 510.641 839.91 507.753C796.031 504.204 750.65 500.558 705.835 500.638C669.372 500.718 632.355 503.81 596.559 506.806L534.708 511.44C469.289 515.2 400.285 517.175 338.873 496.957L322.043 491.154C303.295 484.54 285.586 478.292 265.034 476.277C235.752 473.407 206.756 475.741 184.765 478.086C163.305 480.38 141.577 483.599 120.568 486.709C81.433 492.506 40.951 498.504 0.501994 498.76L0.484994 496.478C40.773 496.221 81.17 490.241 120.237 484.449L184.526 475.815C206.625 473.453 235.775 471.113 265.262 474.001C286.088 476.038 303.923 482.332 322.808 488.997L339.593 494.783C400.627 514.881 469.386 512.901 534.583 509.152C555.175 507.97 576.116 506.218 596.371 504.524C632.212 501.528 669.275 498.429 705.829 498.35C750.736 498.275 796.168 501.922 840.093 505.477C875.814 508.364 912.757 511.348 949.197 512.29C998.42 513.557 1046.51 508.113 1096.2 495.639C1114.88 490.954 1133.76 485.664 1152.03 480.557C1186.71 470.845 1222.58 460.808 1258.69 454.405C1287.43 449.31 1314.45 447.9 1341.32 450.091C1368.6 452.311 1394.99 458.183 1422 468.038L1430.53 471.165C1476.86 488.169 1520.63 504.221 1572.01 496.495L1572.35 498.749C1520.39 506.572 1476.36 490.412 1429.74 473.305L1421.22 470.183C1368.76 451.038 1315.73 446.616 1259.09 456.654C1223.09 463.033 1187.28 473.059 1152.64 482.754L1096.76 497.853C1051.56 509.197 1007.69 514.755 963.087 514.755ZM981.008 503.303C975.327 503.303 969.641 503.188 963.932 502.966C928.93 501.591 893.598 497.653 859.429 493.847C817.725 489.202 774.6 484.398 731.811 484.221C693.121 484.072 653.826 487.656 615.822 491.131L549.843 496.484C517.599 498.435 480.136 500.341 443.559 498.321C403.282 496.096 369.274 489.419 339.593 477.91C333.01 475.359 326.656 472.625 320.513 469.989C302.85 462.394 286.168 455.227 265.958 452.899C237.111 449.578 208.081 452.562 186.01 455.535C164.458 458.434 142.69 462.451 121.635 466.331C82.243 473.596 41.51 481.105 0.513994 481.641L0.484994 479.359C41.287 478.828 81.924 471.336 121.224 464.089C142.308 460.203 164.105 456.18 185.713 453.275C207.915 450.285 237.128 447.284 266.227 450.633C286.768 452.996 303.598 460.231 321.421 467.895L340.421 475.787C404.407 500.592 478.897 498.492 549.712 494.212C571.668 492.883 594.013 490.84 615.622 488.866C653.678 485.385 693.03 481.796 731.828 481.944C774.737 482.115 817.925 486.931 859.692 491.582C893.82 495.382 929.107 499.314 964.035 500.689C1011.47 502.555 1055.86 496.991 1103.76 483.171C1120.93 478.218 1138.26 472.614 1155.01 467.204C1186.83 456.922 1219.73 446.291 1253.12 439.563C1281.01 433.942 1308.08 432.413 1335.87 434.89C1362.3 437.246 1388.75 443.181 1416.72 453.041L1425.16 456.026C1473.54 473.168 1519.24 489.351 1571.98 479.393L1572.4 481.636C1561.05 483.781 1550.02 484.729 1539.24 484.729C1499.35 484.729 1462.71 471.747 1424.4 458.171L1415.97 455.187C1359.94 435.443 1306.81 431.066 1253.58 441.8C1220.31 448.505 1187.47 459.119 1155.72 469.379L1104.4 485.368C1062.66 497.391 1022.14 503.303 981.008 503.303ZM998.135 491.856C990.621 491.851 983.108 491.626 975.607 491.182C943.111 489.265 910.462 484.512 878.891 479.912C838.66 474.058 797.053 467.998 755.48 467.781C715.112 467.57 674.11 471.598 634.461 475.496L562.06 481.71C487.684 486.252 409.488 488.318 342.733 459.957C335.397 456.842 328.409 452.887 321.649 449.07C313.497 444.465 305.071 439.7 296.085 436.453C286.939 433.149 276.8 430.775 265.953 429.394C238.544 425.908 211.089 429.218 190.229 432.487C167.581 436.037 144.774 441.07 122.709 445.931C83.077 454.668 42.098 463.701 0.519994 464.517L0.473994 462.234C41.824 461.424 82.689 452.414 122.212 443.7C144.306 438.827 167.153 433.794 189.869 430.228C210.878 426.935 238.544 423.603 266.232 427.123C277.245 428.527 287.55 430.941 296.855 434.296C306.018 437.606 314.536 442.422 322.768 447.073C329.471 450.862 336.401 454.782 343.618 457.846C409.916 486.012 487.815 483.947 561.912 479.422C586.004 477.949 610.524 475.541 634.233 473.213C673.939 469.31 714.998 465.287 755.492 465.487C797.224 465.704 838.911 471.775 879.222 477.641C910.747 482.229 943.346 486.977 975.744 488.888C1022.38 491.645 1065.12 485.967 1110.24 471.016C1126.27 465.704 1142.4 459.644 1157.99 453.789C1187.35 442.759 1217.7 431.357 1248.9 424.379C1299.4 413.08 1351.25 417.474 1412.07 438.222L1420.02 440.944C1470.4 458.211 1517.99 474.526 1571.93 462.263L1572.43 464.488C1559.12 467.513 1546.2 468.825 1533.55 468.825C1494.32 468.825 1457.61 456.243 1419.28 443.101L1411.33 440.385C1350.93 419.785 1299.48 415.408 1249.4 426.61C1218.36 433.554 1188.08 444.933 1158.79 455.929L1110.95 473.185C1072.91 485.801 1036.54 491.856 998.135 491.856ZM1013.53 480.101C1005.64 480.101 997.644 479.798 989.497 479.193C958.303 476.882 927.183 471.233 897.091 465.766C858.984 458.85 819.586 451.695 779.818 451.307C737.354 450.89 694.189 455.45 652.445 459.86L576.053 466.874C550.711 468.494 524.963 469.824 499.404 469.824C444.684 469.824 390.802 463.729 343.423 441.332C334.723 437.218 326.668 432.487 318.875 427.911C302.473 418.273 286.973 409.171 266.883 406.221C240.005 402.278 212.465 406.17 191.479 410.004C168.746 414.159 145.904 419.985 123.816 425.623C83.945 435.808 42.709 446.331 0.524994 447.404L0.467994 445.121C42.395 444.054 83.499 433.56 123.251 423.414C145.379 417.765 168.261 411.927 191.068 407.762C212.231 403.899 240.011 399.973 267.214 403.967C287.744 406.98 303.426 416.196 320.028 425.948C327.775 430.502 335.791 435.204 344.394 439.272C413.41 471.895 496.601 469.67 575.904 464.597C601.309 462.97 627.182 460.237 652.199 457.595C694.006 453.178 737.24 448.613 779.835 449.03C819.798 449.424 859.298 456.596 897.497 463.53C927.532 468.979 958.589 474.617 989.662 476.922C1034.8 480.272 1075.4 474.349 1117.44 458.297C1132.02 452.728 1146.63 446.354 1160.74 440.197C1187.31 428.607 1214.79 416.618 1243.48 409.365C1269.82 402.706 1296.89 401.04 1326.21 404.27C1350.7 406.969 1376.42 412.972 1407.15 423.163L1415.33 425.885C1467.6 443.312 1516.96 459.781 1571.88 445.167L1572.46 447.375C1516.88 462.16 1467.2 445.595 1414.6 428.054L1406.42 425.332C1362.77 410.855 1304.87 396.201 1244.04 411.585C1215.53 418.792 1188.14 430.741 1161.65 442.296C1147.51 448.465 1132.88 454.845 1118.25 460.437C1083.48 473.704 1049.68 480.101 1013.53 480.101ZM1026.57 467.667C1018.35 467.667 1009.98 467.29 1001.39 466.543C971.285 463.918 941.536 457.458 912.763 451.21C876.551 443.346 839.105 435.215 800.827 434.741C756.639 434.193 711.687 439.335 668.213 444.311C641.974 447.312 614.845 450.417 588.207 452.231C503.88 457.972 415.551 460.454 343.869 423.203C334.774 418.478 326.496 412.903 318.498 407.511C302.73 396.886 287.835 386.854 267.848 383.504C241.376 379.071 213.807 383.493 192.746 387.841C169.933 392.555 147.058 399.145 124.935 405.519C84.818 417.075 43.331 429.029 0.524994 430.29L0.455994 428.008C42.976 426.752 84.321 414.843 124.301 403.322C146.463 396.937 169.384 390.335 192.277 385.604C213.532 381.216 241.369 376.748 268.218 381.25C288.696 384.68 303.791 394.849 319.77 405.616C327.723 410.969 335.938 416.51 344.918 421.177C416.075 458.16 504.045 455.672 588.046 449.954C614.639 448.145 641.739 445.047 667.949 442.045C711.492 437.064 756.518 431.911 800.849 432.464C839.356 432.944 876.915 441.098 913.241 448.984C941.946 455.216 971.621 461.664 1001.58 464.277C1045.94 468.146 1084.77 462.017 1123.79 444.99C1137.1 439.187 1150.33 432.533 1163.12 426.096C1187.19 413.993 1212.07 401.479 1238.61 394.015C1264.37 386.774 1291.53 384.994 1321.63 388.572C1345.46 391.408 1370.53 397.382 1402.91 407.944L1410.92 410.569C1465.02 428.316 1516.12 445.075 1571.84 428.059L1572.5 430.245C1547.17 437.982 1520.21 439.375 1490.11 434.496C1463.28 430.148 1436.3 421.297 1410.21 412.743L1402.2 410.119C1353.58 394.255 1296.2 380.195 1239.22 396.212C1212.89 403.613 1188.11 416.082 1164.15 428.133C1151.32 434.582 1138.07 441.252 1124.7 447.078C1092.88 460.962 1061.18 467.667 1026.57 467.667Z"
        fill="#01E4A6"
        fill-opacity="0.1"
      />
      <path
        d="M1035.96 454.171C1028.25 454.171 1020.39 453.806 1012.35 453.087C980.014 450.177 948.341 441.475 920.395 433.794C882.476 423.374 847.846 418.21 814.528 418.016C769.684 417.736 724.052 423.443 679.899 428.949C651.783 432.459 622.707 436.082 594.19 438.125C555.095 440.921 509.657 443.592 465.202 439.843C415.716 435.671 375.485 424.213 342.219 404.812C333.199 399.55 325.218 393.416 317.493 387.482C302.45 375.921 288.24 365.005 267.957 361.29C241.918 356.519 214.378 361.472 193.289 366.317C170.67 371.515 148.017 378.722 126.106 385.696C85.72 398.546 43.959 411.836 0.524994 413.177L0.455994 410.895C43.57 409.559 85.177 396.321 125.414 383.521C147.365 376.537 170.069 369.313 192.774 364.091C214.074 359.195 241.917 354.197 268.367 359.041C289.199 362.853 303.619 373.935 318.885 385.673C326.552 391.562 334.477 397.656 343.371 402.843C415.167 444.71 506.562 442.108 594.024 435.854C622.483 433.817 651.525 430.193 679.613 426.695C723.835 421.177 769.575 415.465 814.533 415.745C848.056 415.945 882.881 421.132 920.994 431.609C948.848 439.261 980.419 447.94 1012.55 450.833C1055.2 454.673 1093 448.265 1128.11 431.243C1140.69 425.143 1153.08 418.079 1165.05 411.243C1185.81 399.402 1207.27 387.151 1230.56 379.476C1255.67 371.196 1282.61 368.754 1312.91 372.018C1342.93 375.247 1371.99 383.698 1393.94 390.694L1408.72 395.465C1461.46 412.589 1516 430.296 1571.8 410.975L1572.54 413.132C1516.03 432.704 1461.12 414.878 1408.01 397.639L1393.24 392.874C1341.48 376.371 1286.03 363.595 1231.27 381.65C1208.2 389.256 1186.84 401.445 1166.18 413.234C1154.17 420.087 1141.76 427.169 1129.1 433.303C1100.25 447.267 1069.58 454.166 1035.96 454.171ZM1042.2 439.301C1034.18 439.301 1025.9 438.901 1017.27 438.108C987.419 435.352 960.301 427.563 927.954 417.657C891.674 406.552 857.637 401.148 823.885 401.137H823.788C795.026 401.137 765.831 404.926 737.594 408.589L723.447 410.41L718.144 411.077C679.42 415.968 639.383 421.023 599.796 424.179C559.634 427.38 512.963 430.467 467.257 426.507C416.133 422.079 375.097 409.571 341.802 388.281C332.639 382.42 324.704 375.47 317.025 368.742C302.701 356.194 289.171 344.342 269.018 340.091C243.505 334.715 217.09 339.68 194.619 345.244C171.926 350.864 149.221 358.693 127.265 366.26C86.611 380.275 44.581 394.769 0.536994 396.047L0.467994 393.764C44.164 392.497 86.028 378.061 126.517 364.103C148.519 356.519 171.275 348.673 194.065 343.024C216.793 337.397 243.522 332.382 269.487 337.854C290.227 342.225 303.974 354.271 318.527 367.019C326.142 373.69 334.009 380.588 343.03 386.352C414.883 432.305 513.151 428.795 599.614 421.902C639.148 418.747 679.163 413.696 717.858 408.812L723.162 408.144L737.303 406.324C765.608 402.649 794.878 398.854 823.788 398.854H823.885C857.865 398.866 892.125 404.298 928.622 415.471C960.844 425.337 987.841 433.098 1017.48 435.831C1061.77 439.917 1098.03 433.589 1131.61 415.916C1143.46 409.685 1155.01 402.421 1166.18 395.402C1185.51 383.253 1205.5 370.694 1227.72 362.99C1252.59 354.368 1279.68 351.926 1310.53 355.538C1339.59 358.939 1368 367.241 1391.95 374.916L1407.01 379.807C1460.69 397.348 1516.2 415.488 1571.77 393.844L1572.59 395.973C1554.17 403.151 1535.78 406.027 1517.49 406.027C1479.88 406.027 1442.68 393.867 1406.3 381.981L1391.25 377.096C1338.01 360.04 1281.44 346.784 1228.46 365.153C1206.49 372.771 1186.62 385.262 1167.39 397.342C1156.19 404.384 1144.6 411.671 1132.67 417.942C1114.93 427.277 1096.57 433.389 1076.52 436.636C1065.52 438.41 1054.16 439.301 1042.2 439.301ZM1046.91 422.376C1037.49 422.376 1027.68 421.834 1017.41 420.755C987.162 417.577 959.285 409.268 929.781 400.469L927.235 399.71C893.078 389.53 860.759 384.48 828.43 384.269C800.307 384.081 771.796 387.835 744.205 391.465L731.246 393.154L722.831 394.232C683.593 399.271 643.013 404.481 602.891 407.733C561.872 411.06 514.207 414.261 467.622 410.153C415.105 405.519 373.333 392.4 339.901 370.055C331.086 364.166 323.528 357.324 316.209 350.716C302.153 338.008 288.874 326.008 268.379 321.745C242.997 316.467 216.616 321.631 194.162 327.377C171.909 333.072 149.621 340.93 128.069 348.53C87.188 362.945 44.907 377.855 0.524994 378.922L0.467994 376.64C44.49 375.584 86.594 360.736 127.31 346.379C148.907 338.761 171.241 330.886 193.597 325.169C216.302 319.354 242.997 314.138 268.841 319.514C289.948 323.902 303.444 336.102 317.739 349.027C324.995 355.583 332.491 362.362 341.168 368.166C413.193 416.31 513.933 412.664 602.708 405.468C642.779 402.221 683.33 397.011 722.545 391.973L730.96 390.894L743.914 389.205C771.58 385.564 800.199 381.804 828.447 381.986C860.994 382.198 893.523 387.282 927.886 397.519L930.432 398.278C959.833 407.049 987.607 415.328 1017.65 418.484C1063.96 423.346 1100.81 417.251 1133.62 399.311C1145.11 393.022 1156.28 385.696 1167.07 378.608C1186.02 366.169 1205.62 353.312 1227.71 345.603C1283.47 326.145 1341.82 342.396 1392.12 359.156L1406.17 363.892C1460.46 382.312 1516.61 401.354 1571.72 376.748L1572.65 378.831C1553.52 387.373 1534.3 390.746 1515.13 390.746C1478.23 390.746 1441.43 378.26 1405.44 366.049L1391.4 361.318C1341.46 344.679 1283.55 328.535 1228.46 347.754C1206.64 355.372 1187.16 368.154 1168.33 380.514C1157.49 387.624 1146.29 394.98 1134.72 401.308C1108.77 415.494 1080.37 422.37 1046.91 422.376ZM1052.11 403.979C1038.56 403.979 1025.53 402.723 1013.28 401.114C987.539 397.73 962.037 392.064 937.374 386.586C898.736 378.003 858.784 369.124 817.611 369.05H816.669C773.863 369.05 730.338 374.163 688.234 379.116C659.307 382.517 629.398 386.032 600.008 387.853C559.348 390.375 512.089 392.686 465.773 388.201C413.929 383.179 372.317 370.483 338.548 349.398C330.504 344.37 323.299 338.687 316.34 333.192C301.308 321.323 287.11 310.115 266.312 306.646C240.662 302.366 214.372 307.531 192.033 313.146C170.636 318.527 149.158 325.762 128.395 332.758C87.347 346.59 44.895 360.89 0.519994 361.815L0.473994 359.532C44.507 358.613 86.782 344.37 127.67 330.595C148.479 323.582 169.996 316.335 191.479 310.932C214.041 305.254 240.622 300.038 266.689 304.392C288.069 307.959 302.49 319.348 317.756 331.4C324.67 336.861 331.823 342.504 339.758 347.463C412.656 392.994 512.244 391.014 599.865 385.581C629.192 383.761 659.073 380.252 687.966 376.856C730.446 371.863 774.366 366.694 817.611 366.779C859.03 366.853 899.107 375.755 937.865 384.366C962.476 389.833 987.933 395.488 1013.57 398.86C1048.57 403.465 1089.95 405.131 1131.49 382.58C1143.56 376.029 1155.24 368.326 1166.53 360.873C1185.57 348.314 1205.26 335.326 1227.44 327.434C1283.5 307.485 1341.6 324.94 1391.65 342.875L1403.99 347.338C1459.21 367.401 1516.31 388.155 1571.65 359.663L1572.69 361.695C1547.5 374.665 1519.6 378.66 1487.37 373.923C1458.95 369.741 1430.61 359.447 1403.21 349.489L1390.88 345.027C1341.2 327.229 1283.56 309.887 1228.21 329.591C1206.29 337.392 1186.72 350.299 1167.79 362.785C1156.45 370.26 1144.73 377.992 1132.58 384.589C1105.07 399.516 1077.66 403.979 1052.11 403.979ZM1053.35 384.777C1036.31 384.777 1019.37 382.723 1004.54 380.583L950.59 372.018C902.515 364.029 852.801 355.772 802.579 355.561L799.805 355.555C759.745 355.555 719.074 359.11 679.711 362.551C648.289 365.296 615.793 368.137 583.806 369.153C544.288 370.408 502.047 370.928 460.851 366.3C414.249 361.061 375.822 349.991 343.378 332.456C334.261 327.531 326.074 321.853 318.156 316.37C301.428 304.78 285.632 293.835 263.327 291.165C237.493 288.072 211.346 293.316 189.178 298.846C168.946 303.896 148.599 310.458 128.914 316.798C87.644 330.105 44.964 343.857 0.513994 344.696L0.467994 342.413C44.581 341.586 87.096 327.879 128.206 314.629C147.925 308.272 168.312 301.704 188.613 296.631C210.981 291.045 237.385 285.761 263.583 288.899C286.454 291.639 302.479 302.743 319.44 314.498C327.307 319.947 335.442 325.585 344.451 330.453C415.437 368.816 505.176 369.37 583.72 366.876C615.639 365.86 648.106 363.024 679.499 360.28C719.822 356.759 761.52 353.118 802.579 353.284C852.984 353.495 902.789 361.769 950.956 369.769L1004.86 378.329C1052.02 385.131 1086.57 385.325 1123.65 366.214C1137.47 359.087 1150.74 350.408 1163.56 342.008C1183.25 329.112 1203.61 315.776 1226.52 307.742C1251.9 298.84 1279.25 296.985 1310.12 302.07C1338.2 306.692 1365.64 316.41 1391.1 326.224L1401.23 330.15C1457.57 352.068 1515.83 374.734 1571.6 342.562L1572.74 344.536C1547.35 359.184 1519 363.84 1486.07 358.779C1457.08 354.322 1428.27 343.115 1400.4 332.273L1390.28 328.347C1338.3 308.312 1282.89 290.389 1227.28 309.887C1204.63 317.83 1184.38 331.086 1164.81 343.908C1151.94 352.337 1138.63 361.056 1124.7 368.234C1106.35 377.695 1087.07 382.974 1065.77 384.377C1061.65 384.657 1057.49 384.777 1053.35 384.777ZM1051.43 366.579C1037.2 366.579 1022.9 364.24 1009.02 361.969L995.474 359.829C917.975 348.508 846.915 343.047 778.236 343.189C744.091 343.252 709.403 345.084 675.851 346.858C643.978 348.542 611.02 350.288 578.548 350.51C539.481 350.779 497.731 350.316 457.106 345.135C411.2 339.28 373.184 328.244 340.883 311.382C333.244 307.394 326.154 302.966 319.297 298.686C303.067 288.551 287.738 278.976 267.237 276.26C239.697 272.614 211.244 278.217 187.043 284.175C167.787 288.917 148.388 294.902 129.622 300.694C88.072 313.516 45.101 326.778 0.507994 327.565L0.467994 325.283C44.735 324.495 87.547 311.285 128.949 298.509C147.743 292.711 167.176 286.714 186.495 281.955C210.907 275.94 239.623 270.297 267.54 273.995C288.526 276.774 304.06 286.474 320.508 296.746C327.324 301.003 334.38 305.408 341.939 309.357C412.593 346.236 501.111 348.753 578.531 348.222C610.952 348 643.881 346.259 675.726 344.576C709.3 342.801 744.022 340.964 778.225 340.901C847.018 340.776 918.192 346.225 995.8 357.563L1009.39 359.709C1024.44 362.174 1040.02 364.719 1055.32 364.228C1075.13 363.589 1095.69 357.963 1116.42 347.492C1130.94 340.165 1144.86 331.166 1158.32 322.464C1177.14 310.304 1196.6 297.727 1218.06 289.453C1277.28 266.616 1335.06 286.497 1389.18 308.826L1397.99 312.478C1455.58 336.41 1515.15 361.158 1571.56 325.46L1572.78 327.389C1547.09 343.646 1518.21 348.884 1484.49 343.4C1454.87 338.584 1425.5 326.384 1397.11 314.584L1388.3 310.932C1334.62 288.78 1277.31 269.042 1218.88 291.581C1197.64 299.77 1178.28 312.284 1159.56 324.381C1146.05 333.118 1132.07 342.145 1117.45 349.529C1096.41 360.148 1075.54 365.86 1055.38 366.505C1054.06 366.556 1052.75 366.58 1051.43 366.579ZM1043.83 346.761C1029.12 346.761 1014.31 344.045 999.984 341.415L979.232 337.9C918.934 329.414 857.523 330.225 798.143 331.006L756.04 331.446L691.808 332.256C648.785 332.958 604.301 333.688 560.559 332.324C488.763 330.088 406.456 324.809 338.228 290.332C332.302 287.336 326.708 284.237 321.301 281.236C303.809 271.535 287.281 262.371 265.125 260.402C237.219 257.926 208.926 263.558 184.925 269.395C166.736 273.818 148.382 279.239 130.633 284.483C88.706 296.865 45.352 309.676 0.519994 310.452L0.479994 308.17C45.004 307.394 88.204 294.634 129.988 282.292C147.765 277.042 166.148 271.609 184.389 267.176C208.572 261.298 237.1 255.626 265.33 258.131C287.972 260.14 304.699 269.418 322.409 279.239L339.256 288.289C407.067 322.555 489.077 327.805 560.627 330.036C604.312 331.4 648.774 330.67 691.768 329.968L756.023 329.157L798.109 328.718C857.58 327.936 919.077 327.126 979.546 335.634C986.483 336.61 993.556 337.911 1000.39 339.166C1015.03 341.854 1030.2 344.639 1045.1 344.473C1063.82 344.268 1083.39 339.514 1103.26 330.344C1120.43 322.424 1136.68 312.101 1152.4 302.121C1171.74 289.835 1191.74 277.133 1213.69 268.733C1241.08 258.251 1269.97 256.094 1302.02 262.131C1331.02 267.598 1359.92 279.301 1386.82 291.136L1394.47 294.514C1450.66 319.354 1514.33 347.503 1571.52 308.381L1572.81 310.264C1546.77 328.085 1517.31 333.842 1482.75 327.874C1452.46 322.641 1422.51 309.402 1393.56 296.603L1385.91 293.231C1331.8 269.435 1274 248.105 1214.52 270.873C1192.78 279.193 1172.87 291.832 1153.62 304.055C1137.84 314.076 1121.53 324.438 1104.22 332.427C1084.05 341.734 1064.17 346.556 1045.13 346.767C1044.7 346.756 1044.26 346.761 1043.83 346.761ZM1034.5 326.761C1033.14 326.761 1031.79 326.738 1030.45 326.692C1017.49 326.242 1004.54 323.565 992.02 320.975C984.502 319.417 976.726 317.808 969.07 316.712C915.172 308.991 860.525 312.529 807.677 315.953C782.21 317.602 755.868 319.308 729.864 319.748C673.585 320.695 612.505 318.892 548.33 314.378C481.438 309.676 404.487 302.007 337.817 270.354C332.788 267.969 327.884 265.224 323.139 262.571C314.941 257.983 306.464 253.246 297.301 250.348C286.728 247.009 274.876 245.029 262.082 244.47C235.09 243.289 208.303 248.556 185.662 253.868C167.633 258.097 149.421 263.244 131.815 268.214C89.448 280.18 45.655 292.552 0.513994 293.333L0.473994 291.051C45.318 290.275 88.963 277.943 131.175 266.023C148.81 261.041 167.039 255.894 185.119 251.649C207.915 246.302 234.89 240.995 262.162 242.193C275.156 242.764 287.201 244.778 297.969 248.174C307.354 251.141 315.94 255.94 324.236 260.579C328.946 263.215 333.821 265.937 338.782 268.294C405.098 299.776 481.792 307.411 548.478 312.101C612.59 316.609 673.602 318.413 729.813 317.465C755.766 317.026 782.073 315.325 807.518 313.676C860.485 310.247 915.252 306.697 969.384 314.452C977.108 315.559 984.918 317.174 992.477 318.738C1004.91 321.311 1017.76 323.97 1030.52 324.41C1051.05 325.123 1072.81 320.29 1095.16 310.047C1112.7 302.013 1129.38 291.627 1145.52 281.584C1165.9 268.893 1186.98 255.774 1210.06 247.203C1270.93 224.606 1327.56 246.81 1385.03 273.629L1390.89 276.368C1448.36 303.268 1513.5 333.762 1571.5 291.262L1572.85 293.105C1551.56 308.7 1529.41 314.686 1507.06 314.686C1467.36 314.686 1427.06 295.821 1389.92 278.44L1384.07 275.701C1327.05 249.092 1270.9 227.054 1210.86 249.343C1187.99 257.834 1167.02 270.896 1146.73 283.524C1130.54 293.607 1113.8 304.027 1096.12 312.124C1074.9 321.848 1054.19 326.761 1034.5 326.761Z"
        fill="#01E4A6"
        fill-opacity="0.1"
      />
      <path
        d="M691.785 307.787C637.727 307.787 582.121 302.047 529.867 295.776C466.726 288.203 399.851 277.521 338.634 250.878C334.032 248.875 329.528 246.65 325.166 244.499C315.438 239.7 306.247 235.163 295.753 232.675C284.758 230.067 273.026 228.755 259.89 228.658C233.469 228.458 207.07 233.645 187.026 238.187C169.168 242.233 151.122 247.106 133.67 251.814C90.67 263.421 46.203 275.415 0.519999 276.214L0.479999 273.932C45.883 273.139 90.208 261.178 133.076 249.612L186.524 235.962C206.688 231.391 233.257 226.176 259.907 226.375C273.22 226.478 285.118 227.808 296.279 230.455C307.023 233 316.763 237.805 326.177 242.456C330.51 244.596 334.997 246.81 339.547 248.79C400.496 275.313 467.171 285.961 530.141 293.516C585.073 300.107 643.716 306.115 700.297 305.459C733.427 305.077 766.858 301.111 799.188 297.271C848.93 291.365 900.363 285.259 951.692 292.124C961.323 293.413 970.983 295.639 980.323 297.796C992.991 300.717 1006.09 303.736 1019.17 304.409C1038.69 305.408 1059.4 301.396 1080.73 292.483C1101.04 284.003 1120.12 272.317 1138.59 261.018C1158.02 249.126 1178.11 236.824 1199.74 228.173C1229.09 216.429 1258.09 213.125 1285.96 218.358C1318.29 224.43 1348.64 239.272 1375.41 252.373L1386.75 257.966C1445.69 287.119 1512.5 320.159 1571.48 274.183L1572.88 275.98C1551.24 292.848 1528.65 299.319 1505.82 299.319C1465.21 299.319 1423.85 278.862 1385.73 260.008L1374.4 254.422C1347.76 241.389 1317.56 226.615 1285.53 220.601C1258.1 215.454 1229.51 218.712 1200.57 230.29C1179.13 238.872 1159.12 251.118 1139.77 262.964C1121.24 274.308 1102.07 286.041 1081.61 294.589C1059.95 303.633 1038.9 307.707 1019.05 306.686C1005.77 306.007 992.568 302.96 979.803 300.021C970.515 297.881 960.906 295.661 951.378 294.389C900.334 287.564 849.045 293.647 799.445 299.536C767.052 303.382 733.558 307.359 700.309 307.742L691.785 307.787ZM668.259 294.743C616.935 294.743 564.372 285.493 513.448 276.534L510.891 276.083C461.131 267.33 396.157 254.102 334.923 229.308L327.199 226.107C316.003 221.411 305.424 216.977 293.19 215.037C281.955 213.257 270.052 212.589 256.79 212.988C230.403 213.787 204.124 219.043 184.189 223.534C168.146 227.146 151.899 231.323 136.193 235.357C92.326 246.633 46.962 258.297 0.519999 259.095L0.479999 256.813C46.654 256.02 91.886 244.39 135.628 233.143L183.692 221.303C203.731 216.789 230.146 211.511 256.727 210.706C270.132 210.301 282.178 210.98 293.556 212.783C306.07 214.769 316.768 219.254 328.095 224.007L335.791 227.197C396.825 251.917 461.645 265.11 511.296 273.841L513.854 274.291C567.489 283.73 622.952 293.487 676.731 292.38C712.44 291.644 748.338 285.75 783.049 280.043C833.145 271.815 884.948 263.301 937.031 270.183C947.89 271.615 958.623 274.4 969.002 277.099C980.711 280.14 992.825 283.284 1005.01 284.431C1026.36 286.451 1049.32 282.389 1073.24 272.368C1093.82 263.746 1113.26 252.02 1132.06 240.681C1152.51 228.35 1173.65 215.596 1196.41 206.729C1226.47 195.019 1255.83 192.126 1283.68 198.129C1315.57 205 1345.13 220.207 1373.71 234.918L1383.26 239.859C1443.48 271.084 1511.74 306.481 1571.46 257.081L1572.92 258.839C1545.73 281.327 1514.42 288.551 1477.19 280.945C1444.74 274.308 1412.95 257.829 1382.21 241.885L1372.67 236.949C1344.21 222.307 1314.79 207.168 1283.2 200.366C1255.79 194.466 1226.86 197.319 1197.24 208.863C1174.66 217.656 1153.61 230.358 1133.24 242.638C1114.38 254.023 1094.86 265.789 1074.13 274.474C1049.85 284.643 1026.53 288.757 1004.8 286.703C992.431 285.533 980.231 282.366 968.431 279.307C958.115 276.631 947.45 273.863 936.735 272.448C884.983 265.612 833.351 274.097 783.42 282.297C748.629 288.015 712.652 293.927 676.776 294.663L668.259 294.743ZM651.765 280.289C604.883 280.289 556.905 269.378 510.48 258.827L504.034 257.361C444.461 243.854 386.937 227.425 333.056 208.543C307.908 199.727 285.649 196.223 260.889 197.182C232.715 198.272 205.238 203.664 182.076 208.794C167.901 211.933 153.532 215.442 139.63 218.832C94.592 229.822 48.024 241.189 0.513999 241.976L0.473999 239.694C47.727 238.906 94.17 227.579 139.082 216.618L181.574 206.569C204.838 201.416 232.441 196.001 260.797 194.899C285.86 193.929 308.382 197.473 333.81 206.386C387.611 225.24 445.055 241.646 504.537 255.135L510.988 256.602C557.955 267.278 606.533 278.337 653.792 278C692.984 277.732 732.119 269.761 769.97 262.046C821.048 251.637 873.862 240.875 927.48 248.927C938.47 250.576 949.226 253.766 959.628 256.853C971.354 260.328 983.48 263.923 995.822 265.253C1015.99 267.415 1037.7 264.117 1060.32 255.449C1083.71 246.49 1105.54 233.417 1126.67 220.778C1147.65 208.218 1169.35 195.23 1192.65 186.209C1221.35 175.087 1248.74 171.892 1274.06 176.708C1307.93 183.15 1339.03 199.898 1369.1 216.093L1371.56 217.417L1379.95 221.947C1411.08 238.792 1443.26 256.214 1476.05 263.204C1513.34 271.153 1544.54 263.558 1571.42 239.985L1572.93 241.703C1552.45 259.655 1529.54 268.539 1503.45 268.545C1494.54 268.545 1485.26 267.507 1475.58 265.441C1442.47 258.382 1410.13 240.881 1378.87 223.956L1370.49 219.431L1368.02 218.107C1338.1 201.992 1307.16 185.336 1273.64 178.956C1248.75 174.22 1221.78 177.381 1193.48 188.343C1170.37 197.296 1148.75 210.232 1127.85 222.741C1106.65 235.431 1084.72 248.55 1061.15 257.583C1038.18 266.382 1016.12 269.732 995.588 267.529C983.034 266.183 970.811 262.559 958.988 259.05C948.661 255.985 937.985 252.818 927.149 251.192C873.93 243.203 821.316 253.925 770.432 264.294C732.473 272.026 693.224 280.026 653.815 280.294L651.765 280.289Z"
        fill="#01E4A6"
        fill-opacity="0.1"
      />
      <path
        d="M637.219 263.763C591.182 263.763 544.596 250.599 499.495 237.857L491.617 235.631C466.509 228.561 441.167 220.766 416.664 213.228L336.647 189.41C282.149 174.265 226.858 184.023 179.313 194.352L144.471 202.232C97.812 212.988 49.56 224.116 0.514 224.858L0.48 222.575C49.286 221.833 97.413 210.734 143.958 200.001L178.828 192.115C226.641 181.724 282.258 171.92 337.258 187.202C364.101 194.66 391.162 202.985 417.338 211.037L492.239 233.428L500.123 235.654C546.275 248.693 593.996 262.183 640.901 261.446C680.173 260.836 719.439 251.763 757.41 242.987C809.379 230.975 863.117 218.558 917.672 227.648C929.187 229.565 940.28 233.331 951.007 236.978C962.117 240.75 973.603 244.653 985.421 246.422C1007.28 249.697 1031.09 246.376 1056.19 236.555C1079.57 227.408 1101.47 214.335 1122.66 201.684C1142.76 189.684 1163.54 177.278 1185.62 168.188C1216.87 155.321 1246.31 151.726 1273.1 157.506C1306.45 164.696 1336.94 181.821 1366.43 198.38L1370.82 200.845L1381.91 207.105C1410.76 223.437 1440.57 240.327 1472.88 248.47C1509.98 257.823 1543.13 249.212 1571.41 222.872L1572.97 224.544C1551.62 244.425 1527.55 254.416 1501.14 254.416C1491.81 254.416 1482.2 253.172 1472.32 250.679C1439.72 242.462 1409.76 225.497 1380.79 209.091L1369.7 202.837L1365.31 200.372C1335.97 183.892 1305.63 166.859 1272.62 159.737C1246.29 154.054 1217.31 157.609 1186.49 170.3C1164.57 179.327 1143.86 191.687 1123.83 203.647C1102.56 216.344 1080.57 229.468 1057.02 238.684C1031.54 248.653 1007.34 252.014 985.084 248.681C973.066 246.884 961.477 242.947 950.271 239.14C939.629 235.528 928.628 231.791 917.295 229.902C863.192 220.886 809.676 233.257 757.924 245.212C719.839 254.011 680.453 263.113 640.935 263.729L637.219 263.763ZM631.71 244.733C584.702 244.733 538.122 229.742 493.027 215.231L490.475 214.409L455.588 202.877C416.447 189.769 375.982 176.217 334.837 168.599C283.719 159.138 230.82 168.622 176.607 180.063L151.545 185.45C102.528 196.086 51.843 207.082 0.508 207.727L0.479 205.445C51.586 204.8 102.15 193.827 151.059 183.219L176.132 177.826C230.579 166.334 283.724 156.81 335.247 166.351C376.546 173.997 417.097 187.578 456.306 200.708L491.171 212.23L493.723 213.051C540.12 227.979 588.098 243.426 636.293 242.393C674.549 241.577 713.062 232.008 750.307 222.746C802.841 209.69 857.162 196.183 911.831 206.934C923.46 209.222 934.484 213.57 945.149 217.782C955.75 221.964 966.711 226.296 978.129 228.504C1000.08 232.755 1024.06 230.136 1049.4 220.72C1074.67 211.328 1098.15 197.205 1120.86 183.55C1141.62 171.064 1163.09 158.151 1185.95 148.821C1217.58 135.913 1246.12 132.792 1273.19 139.286C1305.95 147.138 1335.79 164.553 1364.66 181.393L1370.81 184.976L1380.76 190.797C1409.95 207.91 1440.13 225.611 1473.06 233.856C1510.17 243.152 1543.24 233.708 1571.37 205.787L1572.98 207.408C1544.25 235.934 1510.45 245.577 1472.51 236.07C1439.26 227.739 1408.93 209.958 1379.6 192.765L1369.66 186.951L1363.5 183.367C1334.78 166.613 1305.08 149.283 1272.66 141.511C1246.06 135.137 1217.99 138.219 1186.82 150.944C1164.12 160.211 1142.73 173.073 1122.04 185.518C1099.24 199.231 1075.67 213.405 1050.19 222.872C1024.46 232.436 1000.07 235.089 977.701 230.758C966.072 228.504 955.008 224.139 944.315 219.916C933.748 215.745 922.827 211.431 911.397 209.188C857.225 198.54 803.155 211.978 750.866 224.977C713.501 234.267 674.863 243.871 636.35 244.693L631.709 244.733H631.71ZM636.853 223.876H635.877C578.976 223.625 524.923 204.4 472.646 185.804C427.842 169.866 381.508 153.386 333.598 148.935C280.499 143.999 226.578 155.087 174.426 165.809L174.221 165.849L162.175 168.337C109.658 179.196 55.354 190.426 0.497 190.62L0.491 188.337C55.115 188.143 109.304 176.936 161.712 166.1L173.764 163.612L173.97 163.572C226.281 152.815 280.379 141.694 333.815 146.658C382.01 151.138 428.476 167.663 473.417 183.647C525.511 202.175 579.381 221.342 635.894 221.588H636.859C675.069 221.588 713.828 211.705 751.318 202.141C804.269 188.634 859.03 174.671 913.322 188.195C924.095 190.876 934.268 195.39 944.111 199.761C955.66 204.885 967.603 210.187 980.408 212.429C1001.29 216.081 1024.22 213.342 1048.56 204.298C1074.32 194.728 1098.22 180.308 1121.33 166.368C1141.78 154.037 1162.92 141.289 1185.34 131.868C1216.77 118.669 1244.91 115.285 1271.38 121.522C1304.08 129.226 1333.77 146.83 1362.46 163.857L1368.16 167.23L1379.02 173.695C1407.79 190.876 1437.55 208.64 1470.03 217.434C1508.64 227.888 1542.73 218.21 1571.36 188.68L1573 190.266C1551.36 212.589 1526.66 223.802 1499.29 223.802C1489.66 223.802 1479.7 222.415 1469.43 219.636C1436.64 210.757 1406.75 192.914 1377.84 175.652L1366.99 169.193L1361.29 165.814C1332.73 148.878 1303.21 131.365 1270.84 123.742C1244.85 117.619 1217.18 120.963 1186.22 133.967C1163.95 143.32 1142.88 156.028 1122.5 168.314C1099.3 182.311 1075.3 196.783 1049.34 206.432C1024.62 215.619 1001.29 218.392 980.009 214.672C966.929 212.384 954.855 207.025 943.18 201.844C933.429 197.519 923.347 193.039 912.768 190.409C859.03 177.027 804.555 190.922 751.878 204.355C714.25 213.953 675.343 223.87 636.853 223.876ZM644.732 207.299C585.907 207.299 529.256 188.109 474.444 169.541C430.657 154.71 385.379 139.371 339.33 133.945C286.311 127.691 232.555 139.012 180.569 149.957L172.48 151.657C116.64 163.412 58.905 175.572 0.457 173.495L0.537 171.213C58.7 173.273 116.303 161.147 172.006 149.42L180.095 147.72C232.264 136.735 286.208 125.379 339.593 131.674C385.881 137.134 431.273 152.507 475.175 167.378C530.472 186.106 587.665 205.468 646.856 205.005C683.941 204.709 721.398 195.362 757.621 186.317C808.271 173.672 860.651 160.599 913.077 171.937C923.621 174.22 933.68 178.214 943.403 182.083C954.33 186.426 965.633 190.922 977.531 192.902C999.465 196.554 1023.73 193.678 1049.64 184.348C1074.79 175.287 1098.47 161.951 1121.37 149.055C1141.3 137.825 1161.91 126.218 1183.49 117.425C1216.54 103.952 1244.24 100.392 1270.66 106.218C1303.67 113.499 1333.97 130.31 1363.27 146.573L1368.6 149.529L1378.91 155.269C1408.34 171.703 1438.78 188.691 1471.68 196.828C1509.25 206.118 1542.81 197.599 1571.4 171.509L1572.94 173.193C1543.75 199.83 1509.49 208.526 1471.13 199.042C1437.93 190.837 1407.37 173.769 1377.8 157.261L1367.49 151.526L1362.16 148.57C1333 132.387 1302.85 115.656 1270.17 108.449C1244.22 102.725 1216.95 106.252 1184.34 119.536C1162.9 128.273 1142.35 139.851 1122.48 151.041C1099.5 163.983 1075.74 177.37 1050.41 186.494C1024.12 195.955 999.476 198.871 977.148 195.151C965.011 193.13 953.593 188.588 942.552 184.2C932.915 180.371 922.947 176.405 912.586 174.168C860.68 162.944 808.568 175.949 758.169 188.531C721.814 197.604 684.227 206.985 646.867 207.282C646.159 207.299 645.445 207.299 644.732 207.299ZM654.768 190.049C605.637 190.049 556.625 175.606 509.212 161.632L503.492 159.948L480.068 152.97C433.494 139.012 385.333 124.575 336.299 119.416C285.751 114.098 234.69 124.883 185.302 135.308L178.902 136.661C124.159 148.188 62.108 161.255 0.411 156.376L0.594 154.099C61.96 158.955 121.173 146.487 178.434 134.43L184.834 133.077C234.393 122.612 285.637 111.787 336.544 117.145C385.795 122.327 434.059 136.792 480.736 150.784L504.148 157.757L509.869 159.44C557.384 173.444 606.527 187.949 655.579 187.761C692.368 187.641 729.327 178.602 765.071 169.86C813.712 157.968 864.002 145.665 914.698 155.594C924.803 157.574 934.542 161.01 943.968 164.331C955.152 168.274 966.718 172.354 978.81 173.934C999.351 176.622 1021.99 174.146 1046.1 166.585C1072.53 158.288 1097.58 145.46 1121.81 133.054C1142.95 122.23 1164.81 111.034 1187.56 102.845C1218.84 91.5921 1244.8 88.5281 1269.27 93.2021C1302.67 99.5871 1333.71 115.354 1363.73 130.601L1367.34 132.438L1374.66 136.164C1437.68 168.268 1509.1 204.657 1571.47 154.345L1572.9 156.119C1544.55 178.99 1511.82 186.26 1472.83 178.34C1438.87 171.441 1405.7 154.539 1373.62 138.196L1366.3 134.47L1362.69 132.632C1332.82 117.459 1301.93 101.767 1268.83 95.4391C1244.79 90.8451 1219.21 93.8811 1188.33 104.985C1165.71 113.122 1143.92 124.284 1122.85 135.075C1098.53 147.526 1073.4 160.399 1046.78 168.753C1022.35 176.417 999.385 178.922 978.513 176.188C966.181 174.579 954.501 170.459 943.209 166.471C933.863 163.172 924.198 159.766 914.258 157.82C864.059 147.988 814.009 160.228 765.614 172.063C729.738 180.833 692.647 189.906 655.585 190.026C655.311 190.049 655.036 190.049 654.768 190.049ZM663.897 172.063C615.725 172.063 567.101 159.189 520.036 146.727L508.864 143.777L486.091 137.728C439.134 125.185 390.58 112.215 341.528 106.885C284.884 100.734 228.559 112.215 174.09 123.32C117.725 134.812 59.442 146.693 0.354 139.257L0.639 136.992C59.35 144.382 117.451 132.535 173.633 121.083C228.273 109.944 284.781 98.4231 341.774 104.614C391.002 109.961 439.643 122.954 486.679 135.52L509.44 141.568L520.619 144.518C568.614 157.226 618.248 170.374 667.185 169.757C702.575 169.318 738.022 160.93 772.305 152.821C818.393 141.916 866.046 130.641 914.281 138.475C924.557 140.142 934.537 143.257 944.19 146.27C955.089 149.671 966.358 153.186 977.982 154.579C999.071 157.101 1021.44 154.938 1046.36 147.971C1072.65 140.621 1097.93 129.191 1122.37 118.138C1142.5 109.037 1163.32 99.6211 1184.65 92.5001C1218.85 81.0871 1247.17 78.1321 1273.77 83.1991C1305.73 89.2881 1335.93 103.017 1365.14 116.302L1365.46 116.45L1374.82 120.724C1437.51 149.41 1508.57 181.93 1571.52 137.193L1572.84 139.053C1549.95 155.321 1526.07 161.581 1501.95 161.581C1458.62 161.581 1414.51 141.392 1373.88 122.801L1364.52 118.527L1364.19 118.379C1335.11 105.157 1305.04 91.4791 1273.35 85.4421C1247.14 80.4491 1219.19 83.3821 1185.38 94.6691C1164.16 101.751 1143.4 111.138 1123.33 120.222C1098.81 131.309 1073.45 142.779 1046.99 150.174C1021.77 157.227 999.117 159.407 977.725 156.851C965.896 155.436 954.524 151.886 943.522 148.457C933.949 145.467 924.043 142.38 913.933 140.736C866.143 132.976 818.713 144.194 772.847 155.048C738.445 163.185 702.872 171.602 667.231 172.047L663.897 172.063ZM670.165 153.415C624.887 153.415 578.719 142.67 533.972 132.256L516.868 128.301L491.948 122.538C442.674 111.079 391.716 99.2281 340.546 94.4631C286.802 89.4591 233.389 99.7871 181.728 109.773C122.88 121.151 62.034 132.912 0.297 122.133L0.691 119.884C62.011 130.595 122.652 118.869 181.294 107.53C233.115 97.5101 286.693 87.1531 340.763 92.1861C392.087 96.9681 443.119 108.831 492.468 120.312L517.376 126.076L534.486 130.036C582.167 141.129 631.464 152.604 679.408 150.984C712.4 149.865 745.598 142.424 777.7 135.223C823.246 125.009 870.351 114.452 917.809 121.693C927.166 123.12 936.352 125.676 945.229 128.147C955.072 130.886 965.245 133.716 975.607 134.983C998.386 137.774 1022.84 135.748 1050.36 128.786C1075.23 122.498 1099.54 113.082 1123.06 103.969C1144.94 95.4901 1167.58 86.7251 1190.65 80.4771C1222.45 71.8661 1248.94 69.7041 1274.03 73.6691C1306.74 78.8451 1338.09 91.3811 1368.4 103.507L1375.25 106.246C1437.6 131.166 1508.28 159.412 1571.57 120.033L1572.77 121.973C1551.29 135.337 1527.68 141.951 1501.16 141.951C1492.19 141.951 1482.9 141.197 1473.24 139.691C1439.69 134.458 1406.5 121.197 1374.4 108.369L1367.55 105.63C1337.36 93.5501 1306.14 81.0641 1273.67 75.9231C1248.91 72.0081 1222.73 74.1541 1191.26 82.6791C1168.29 88.8991 1145.72 97.6411 1123.89 106.098C1100.31 115.234 1075.93 124.678 1050.92 130.994C1023.12 138.025 998.392 140.068 975.327 137.243C964.8 135.953 954.541 133.1 944.619 130.338C935.804 127.885 926.687 125.351 917.467 123.941C870.425 116.769 823.543 127.28 778.202 137.443C745.992 144.661 712.691 152.131 679.488 153.255C676.381 153.362 673.273 153.416 670.165 153.415ZM678.181 134.025C631.927 134.025 584.696 124.615 538.927 115.49L518.963 111.542L496.59 107.148C445.791 97.1221 393.257 86.7541 340.809 82.6051C289.731 78.5651 238.818 87.7921 189.584 96.7171C128.064 107.867 64.454 119.394 0.24 104.997L0.742 102.771C64.511 117.065 127.892 105.579 189.184 94.4681C238.561 85.5201 289.622 76.2651 340.997 80.3281C393.577 84.4881 446.174 94.8681 497.041 104.905L519.408 109.299L539.378 113.248C587.928 122.92 638.127 132.929 686.915 131.622C719.845 130.743 752.814 123.816 784.699 117.122C826.803 108.283 870.339 99.1361 914.418 103.753C925.111 104.871 935.65 107.365 945.84 109.778C955.94 112.169 966.387 114.64 976.914 115.753C998.329 118.007 1021.21 116.66 1046.87 111.639C1073.08 106.514 1098.92 98.2291 1123.92 90.2231C1145.19 83.4041 1167.19 76.3571 1189.36 71.2671C1221.49 63.8891 1248.16 61.8521 1273.31 64.8531C1306.45 68.8131 1338.63 79.7291 1369.75 90.2801L1375.1 92.0951C1440.39 114.246 1507.9 137.157 1571.64 102.874L1572.73 104.882C1543.8 120.438 1511.3 125.636 1473.33 120.775C1439.91 116.495 1406.59 105.191 1374.37 94.2571L1369.02 92.4421C1338.01 81.9251 1305.95 71.0491 1273.04 67.1171C1248.16 64.1441 1221.74 66.1701 1189.88 73.4911C1167.8 78.5641 1145.85 85.5941 1124.62 92.3961C1099.57 100.425 1073.65 108.727 1047.32 113.88C1021.43 118.942 998.323 120.3 976.68 118.023C966.004 116.899 955.489 114.411 945.315 112.003C935.199 109.606 924.734 107.13 914.184 106.023C870.465 101.446 827.105 110.548 785.173 119.353C753.191 126.069 720.119 133.014 686.984 133.898L678.181 134.025ZM687.058 113.938C638.235 113.938 588.653 105.887 540.68 98.0921L524.524 95.4781L500.209 91.5411C448.92 83.1981 395.883 74.5651 343.184 71.0381C294.412 67.7681 245.492 76.0081 198.176 83.9681C133.59 94.8391 66.806 106.081 0.194 87.8661L0.799 85.6631C66.92 103.746 133.453 92.5451 197.799 81.7141C245.24 73.7251 294.303 65.4681 343.338 68.7551C396.146 72.2931 449.234 80.9321 500.574 89.2861L524.883 93.2231L541.045 95.8371C589.777 103.752 640.165 111.929 689.639 111.649C723.744 111.449 757.878 104.904 790.887 98.5761C831.935 90.7071 874.387 82.5641 917.301 86.4961C927.423 87.4201 937.471 89.4691 947.188 91.4491C956.094 93.2641 965.297 95.1351 974.494 96.1281C997.712 98.6391 1022.75 97.6291 1051.04 93.0461C1075.86 89.0231 1100.65 82.7411 1124.62 76.6631C1145.75 71.3111 1167.59 65.7751 1189.41 61.7921C1223.16 55.6351 1252.96 54.1401 1280.52 57.2271C1311.65 60.7141 1342.27 69.1931 1371.89 77.3931L1374.91 78.2321C1440.12 96.2981 1507.54 114.975 1571.7 85.7301L1572.65 87.8071C1507.74 117.394 1439.9 98.6031 1374.3 80.4291L1371.28 79.5901C1341.75 71.4131 1311.21 62.9621 1280.27 59.4921C1252.94 56.4331 1223.35 57.9171 1189.82 64.0341C1168.08 68.0001 1146.27 73.5291 1125.19 78.8701C1101.17 84.9591 1076.33 91.2531 1051.41 95.2931C1022.91 99.9091 997.678 100.919 974.248 98.3861C964.948 97.3821 955.688 95.4931 946.731 93.6731C937.071 91.7041 927.086 89.6731 917.09 88.7601C874.495 84.8631 832.209 92.9711 791.315 100.812C758.203 107.163 723.967 113.725 689.65 113.931L687.058 113.936V113.938ZM686.362 93.1391C638.783 93.1391 590.462 86.8851 543.677 80.8361L525.591 78.5081L501.534 75.4151C449.919 68.7561 396.545 61.8681 343.715 59.1011C287.515 56.1621 234.976 65.2871 179.347 74.9471L179.176 74.9761C125.946 84.2201 63.044 90.9481 0.143 70.7301L0.839 68.5561C63.272 88.6251 125.826 81.9321 178.788 72.7331L178.959 72.7051C234.719 63.0211 287.378 53.8741 343.835 56.8301C396.757 59.5981 450.17 66.4911 501.83 73.1561L525.888 76.2431L543.974 78.5711C592.289 84.8191 642.237 91.2851 691.243 90.8341C725.263 90.5201 759.442 84.9511 792.497 79.5641C833.014 72.9621 874.912 66.1311 917.004 68.8871C927.669 69.5831 938.304 71.3521 948.586 73.0641C956.973 74.4561 965.645 75.9001 974.26 76.7451C997.524 79.0331 1022.7 78.5141 1051.23 75.1701C1076.16 72.2481 1101.24 67.4951 1125.49 62.8961C1146.82 58.8501 1168.89 54.6671 1190.8 51.7401C1258.94 42.6331 1320.99 52.7501 1372.7 63.8491L1374.66 64.2711C1439.82 78.2571 1507.2 92.7231 1571.79 68.5791L1572.59 70.7191C1547.14 80.2311 1521.29 83.8211 1495.36 83.8211C1454.85 83.8211 1414.11 75.0731 1374.18 66.5021L1372.22 66.0801C1320.7 55.0211 1258.89 44.9441 1191.1 54.0061C1169.26 56.9281 1147.22 61.1051 1125.92 65.1391C1101.63 69.7441 1076.51 74.5031 1051.5 77.4361C1022.81 80.8031 997.472 81.3161 974.043 79.0171C965.354 78.1611 956.642 76.7171 948.215 75.3141C937.991 73.6141 927.412 71.8561 916.862 71.1661C875.038 68.4271 833.265 75.2351 792.874 81.8201C759.739 87.2181 725.474 92.8051 691.277 93.1191L686.362 93.1421V93.1391ZM675.429 71.6891C631.869 71.6891 587.653 67.2721 544.756 62.9931L518.449 60.4021L499.975 58.6221C449.342 53.7371 396.979 48.6821 345.302 46.6621C287.293 44.3971 232.909 53.5041 180.324 62.3091C145.276 68.1811 116.435 70.6061 89.557 69.9501C57.181 69.1551 27.923 63.8081 0.103 53.6001L0.891 51.4601C64.523 74.8051 127.11 68.9101 179.947 60.0591C232.647 51.2311 287.139 42.1071 345.387 44.3841C397.134 46.4041 449.525 51.4601 500.192 56.3501L518.666 58.1301L544.979 60.7211C592.415 65.4571 641.472 70.3531 689.382 69.2521C722.597 68.4871 756.137 64.2701 788.57 60.1901C829.56 55.0371 871.943 49.7131 914.167 51.2711C926.35 51.7221 938.556 53.2571 950.362 54.7461C959.325 55.8761 968.596 57.0461 977.771 57.7251C999.55 59.3401 1023 59.1801 1049.45 57.2341C1075.26 55.3391 1101.36 51.9331 1126.61 48.6351C1149.63 45.6281 1173.45 42.5241 1197 40.5661C1249.47 36.2061 1303.63 38.9911 1372.59 49.6051L1374.37 49.8791C1439.48 59.9051 1506.8 70.2681 1571.86 51.4311L1572.5 53.6221C1506.95 72.6011 1439.38 62.1981 1374.02 52.1331L1372.24 51.8591C1303.47 41.2741 1249.47 38.4891 1197.18 42.8371C1173.69 44.7891 1149.9 47.8931 1126.91 50.8941C1101.63 54.1921 1075.5 57.6051 1049.62 59.5051C1023.05 61.4571 999.499 61.6161 977.605 59.9961C968.368 59.3111 959.068 58.1411 950.076 57.0061C938.322 55.5281 926.167 53.9931 914.081 53.5481C872.046 51.9961 829.754 57.3081 788.855 62.4501C756.359 66.5361 722.762 70.7581 689.433 71.5231L675.429 71.6891ZM104.994 56.0311C65.996 56.0311 32.13 49.5891 0.063 36.4641L0.931 34.3531C51.672 55.1181 107.02 59.0091 180.392 46.9811C232.823 38.3871 287.036 29.5031 344.799 30.9461C391.544 32.1161 439.094 35.5451 485.075 38.8551C548.644 43.4371 614.377 48.1731 678.997 47.0211C713.696 46.4051 748.869 43.3861 782.883 40.4641C825.267 36.8351 869.1 33.0691 912.489 33.9131C930.477 34.2611 948.604 35.3801 966.13 36.4581C993.333 38.1361 1021.47 39.8651 1049.5 38.7401C1075.43 37.6961 1101.76 35.6361 1127.21 33.6441L1198.05 28.8451C1250.72 26.3861 1307.98 28.2571 1373.12 34.5801L1373.83 34.6491C1438.98 40.9661 1506.35 47.5001 1571.95 34.2901L1572.4 36.5271C1506.47 49.8111 1438.92 43.2601 1373.6 36.9211L1372.89 36.8521C1307.88 30.5471 1250.72 28.6751 1198.16 31.1291C1174.54 32.2301 1150.58 34.1081 1127.39 35.9221L1049.6 41.0231C1021.44 42.1531 993.253 40.4181 965.993 38.7411L912.449 36.2021C869.186 35.3631 825.41 39.1181 783.077 42.7531C749.029 45.6751 713.816 48.6991 679.037 49.3151C614.309 50.4621 548.524 45.7201 484.903 41.1381C438.952 37.8281 391.43 34.4041 344.737 33.2351C287.196 31.7911 233.086 40.6591 180.758 49.2351C153.223 53.7491 128.201 56.0311 104.994 56.0311ZM110.303 41.7761C103.127 41.7761 96.134 41.5481 89.3 41.0851C57.158 38.9351 27.957 31.8191 0.029 19.3341L0.96 17.2511C52.437 40.2641 107.894 45.1771 180.78 33.1771L209.422 28.1781L255.009 20.5661C285.586 16.2241 315.592 15.9331 343.469 16.2751C388.091 16.8171 433.46 18.5121 477.333 20.1501C537.454 22.3981 599.625 24.7211 660.757 24.1041C698.037 23.7331 735.916 22.0731 772.544 20.4691C817.543 18.5001 864.076 16.4631 909.92 16.7881C929.815 16.9311 949.991 17.6381 969.504 18.3171C995.68 19.2361 1022.75 20.1831 1049.44 19.7721L1127.62 17.5641L1198.8 15.4761C1253.71 14.4551 1310.83 15.3501 1373.41 18.2151C1438.5 21.1991 1505.81 24.2811 1572.05 17.1421L1572.3 19.4131C1505.88 26.5691 1438.49 23.4821 1373.31 20.4971C1310.77 17.6331 1253.7 16.7371 1198.83 17.7581L1127.69 19.8471L1049.47 22.0551C1022.72 22.4601 995.623 21.5131 969.418 20.6001L909.897 19.0711C864.116 18.7461 817.605 20.7831 772.636 22.7511L660.774 26.3861C599.585 26.9961 537.392 24.6741 477.242 22.4261L343.435 18.5511C315.649 18.2141 285.746 18.5001 255.323 22.8191C240.102 24.9821 224.705 27.7441 209.822 30.4201L181.146 35.4241C155.37 39.6751 131.997 41.7761 110.303 41.7761ZM113.317 26.9741C105.068 26.9741 97.036 26.6541 89.186 26.0211C57.17 23.4251 27.997 15.6301 0 2.1971L0.988 0.137104C52.432 24.8221 109.658 30.6371 181.1 18.4431L211.963 12.7991L255.151 5.1471C284.65 0.622103 313.988 0.0121035 341.271 0.0351035L465.744 0.258103L633.434 0.486104L956.55 0.217104L1199.15 0.00610352L1336.64 0.194104L1572.16 0.0291035L1572.18 2.3121L1336.63 2.4771L1199.15 2.2891L956.55 2.5001L633.434 2.7681C577.537 2.8081 520.699 2.6711 465.738 2.5401L341.265 2.3171C314.062 2.2881 284.838 2.8991 255.494 7.4071C241.073 9.6211 226.487 12.3771 212.38 15.0421L181.477 20.6911C156.9 24.8911 134.384 26.9741 113.317 26.9741Z"
        fill="#01E4A6"
        fill-opacity="0.1"
      />
    </g>
  </g>
  <defs>
    <clipPath id="clip0_128_418">
      <rect width="1573" height="961" fill="white" />
    </clipPath>
  </defs>
</svg>
