<svg xmlns="http://www.w3.org/2000/svg" width="1004" height="240" fill="none"><rect width="240" height="240" fill="#7C6F89" rx="120"/><path stroke="#F5F6F7" stroke-linecap="round" stroke-linejoin="round" stroke-width="13" d="M180.81 140.853a16.23 16.23 0 0 0-8.297-4.445l-19.381-3.875a48.7 48.7 0 0 0-31.34 4.2l-2.582 1.284a48.7 48.7 0 0 1-31.34 4.2l-15.678-3.136a16.23 16.23 0 0 0-14.663 4.445M88.024 48h64.954l-8.119 8.125v42.022c0 4.31 1.712 8.442 4.757 11.489l40.596 40.625c10.231 10.238 2.98 27.739-11.488 27.739H62.27c-14.468 0-21.71-17.501-11.48-27.739l40.596-40.625a16.26 16.26 0 0 0 4.757-11.489V56.125z"/><path fill="#fff" d="M289.585 168V80.727h58.807V95.94h-40.355v20.796h37.329v15.213h-37.329v20.838h40.525V168zm91.289-87.273V168h-18.153V80.727zM395.416 168v-65.455h18.154V168zm9.12-73.892q-4.049 0-6.947-2.685-2.855-2.727-2.855-6.52 0-3.75 2.855-6.434 2.898-2.727 6.947-2.727t6.903 2.727q2.898 2.685 2.898 6.434 0 3.793-2.898 6.52-2.855 2.685-6.903 2.685m38.746 8.437 12.017 22.884 12.315-22.884h18.623l-18.964 32.728L486.748 168h-18.537l-12.912-22.628L442.6 168h-18.75l19.432-32.727-18.75-32.728zM497.018 168v-65.455h18.153V168zm9.119-73.892q-4.048 0-6.946-2.685-2.855-2.727-2.855-6.52 0-3.75 2.855-6.434 2.898-2.727 6.946-2.727 4.049 0 6.903 2.727 2.898 2.685 2.898 6.434 0 3.793-2.898 6.52-2.855 2.685-6.903 2.685M529.713 168v-65.455h17.599v11.421h.682q1.79-6.094 6.009-9.205 4.218-3.153 9.716-3.153 1.363 0 2.94.17a21 21 0 0 1 2.77.469v16.108q-1.278-.384-3.537-.682a32 32 0 0 0-4.133-.298q-4.006 0-7.16 1.747a12.9 12.9 0 0 0-4.943 4.773q-1.79 3.068-1.79 7.074V168zm124.56-62.173q-.511-5.157-4.389-8.012t-10.526-2.855q-4.517 0-7.628 1.279-3.111 1.235-4.773 3.451-1.619 2.217-1.619 5.029-.085 2.343.98 4.091 1.108 1.746 3.026 3.025 1.917 1.236 4.432 2.174a46 46 0 0 0 5.369 1.534l7.841 1.875q5.71 1.278 10.483 3.409t8.267 5.241a21.8 21.8 0 0 1 5.412 7.33q1.96 4.219 2.003 9.673-.043 8.012-4.091 13.892-4.006 5.838-11.591 9.077-7.543 3.196-18.196 3.196-10.569 0-18.409-3.239-7.799-3.238-12.188-9.588-4.346-6.392-4.56-15.81h17.856q.298 4.39 2.514 7.33 2.258 2.898 6.008 4.389 3.793 1.449 8.566 1.449 4.688 0 8.139-1.364 3.494-1.364 5.412-3.792 1.917-2.43 1.917-5.583 0-2.94-1.747-4.943-1.704-2.002-5.028-3.409-3.281-1.406-8.054-2.557l-9.503-2.386q-11.037-2.685-17.429-8.395t-6.349-15.383q-.044-7.927 4.218-13.85 4.304-5.923 11.804-9.247t17.046-3.324q9.715 0 16.96 3.324 7.287 3.324 11.335 9.247t4.176 13.722zm60.522 63.451q-10.058 0-17.301-4.261-7.203-4.304-11.08-11.932-3.835-7.627-3.835-17.557 0-10.056 3.878-17.642 3.92-7.627 11.122-11.889 7.201-4.304 17.131-4.304 8.565 0 15 3.111 6.434 3.111 10.184 8.736t4.134 13.21h-17.131q-.724-4.9-3.835-7.884-3.068-3.025-8.054-3.025-4.22 0-7.372 2.301-3.111 2.258-4.858 6.605-1.747 4.346-1.747 10.526 0 6.264 1.704 10.653 1.747 4.389 4.901 6.69t7.372 2.302q3.11 0 5.582-1.279 2.514-1.278 4.134-3.707 1.662-2.472 2.173-5.923h17.131q-.426 7.5-4.091 13.21-3.623 5.668-10.014 8.863-6.392 3.196-15.128 3.196m59.009-39.119V168h-18.153V80.727h17.642v33.367h.767q2.215-5.796 7.159-9.077 4.943-3.324 12.4-3.324 6.819 0 11.89 2.983 5.114 2.94 7.926 8.48 2.855 5.497 2.812 13.168V168h-18.153v-38.438q.042-6.051-3.068-9.417-3.069-3.367-8.608-3.367-3.707 0-6.563 1.577-2.812 1.576-4.432 4.602-1.577 2.984-1.619 7.202m86.303 39.119q-9.929 0-17.173-4.218-7.202-4.261-11.122-11.847-3.921-7.627-3.921-17.685 0-10.142 3.921-17.727 3.92-7.628 11.122-11.846 7.244-4.262 17.173-4.262 9.93 0 17.131 4.262 7.244 4.218 11.165 11.846 3.92 7.586 3.92 17.727 0 10.058-3.92 17.685-3.921 7.585-11.165 11.847-7.201 4.218-17.131 4.218m.085-14.062q4.518 0 7.543-2.557 3.026-2.6 4.56-7.074 1.576-4.475 1.576-10.184 0-5.71-1.576-10.185-1.535-4.475-4.56-7.074t-7.543-2.599q-4.559 0-7.67 2.599-3.068 2.6-4.645 7.074-1.534 4.474-1.534 10.185 0 5.71 1.534 10.184 1.577 4.475 4.645 7.074 3.111 2.557 7.67 2.557m73.509 14.062q-9.929 0-17.173-4.218-7.202-4.261-11.122-11.847-3.921-7.627-3.921-17.685 0-10.142 3.921-17.727 3.92-7.628 11.122-11.846 7.244-4.262 17.173-4.262t17.131 4.262q7.244 4.218 11.164 11.846 3.921 7.586 3.921 17.727 0 10.058-3.921 17.685-3.92 7.585-11.164 11.847-7.202 4.218-17.131 4.218m.085-14.062q4.518 0 7.543-2.557 3.026-2.6 4.559-7.074 1.577-4.475 1.577-10.184 0-5.71-1.577-10.185-1.533-4.475-4.559-7.074-3.025-2.6-7.543-2.599-4.56 0-7.67 2.599-3.069 2.6-4.645 7.074-1.534 4.474-1.534 10.185 0 5.71 1.534 10.184 1.576 4.475 4.645 7.074 3.11 2.557 7.67 2.557m62.088-74.489V168h-18.153V80.727z"/></svg>