<svg xmlns="http://www.w3.org/2000/svg" width="133" height="24" fill="none"><g fill="#fff" clip-path="url(#a)"><path d="M16.771 15.36c0 1.016-.88 1.651-1.66 1.651s-1.714-.316-1.714-1.651v-.65h-1.026v.65c0 1.479 1.23 2.682 2.74 2.682 1.512 0 2.742-1.203 2.742-2.682v-.65H16.77zM8.148 12.223c0-.971.842-1.76 1.876-1.76s1.875.79 1.875 1.76h1.182c0-1.583-1.37-2.87-3.057-2.87s-3.058 1.287-3.058 2.87zM17.886 12.223c0-.971.842-1.76 1.875-1.76 1.035 0 1.876.79 1.876 1.76h1.182c0-1.583-1.371-2.87-3.058-2.87s-3.057 1.287-3.057 2.87z"/><path fill-rule="evenodd" d="M24.726 8.458V4.644q0-1.929-.469-2.676T22.305.815Q21.857.69 21.857.41q0-.377 1.008-.377h1.021q1.665 0 2.526 1.034t.86 3.018v4.024q0 1.396.302 2.151.3.755 1.112 1.412.238.195.238.321 0 .125-.238.321-.826.67-1.12 1.418-.293.749-.293 2.145v4.01q0 1.998-.868 3.032-.867 1.034-2.519 1.034h-1.021q-.658 0-.833-.063t-.175-.314q0-.35.462-.461l.56-.126q1.847-.42 1.847-3.647v-3.814q0-2.166 1.05-3.06l.265-.223q.195-.168.196-.252 0-.098-.196-.252l-.266-.223q-1.05-.894-1.05-3.06M5.323 8.425V4.611q0-1.929.469-2.676T7.744.782q.448-.124.448-.405Q8.192 0 7.184 0H6.163Q4.498 0 3.637 1.034t-.86 3.018v4.024q0 1.396-.302 2.151-.3.755-1.112 1.412-.238.195-.238.321t.238.321q.825.67 1.12 1.418.293.749.293 2.145v4.01q0 1.998.868 3.032.867 1.035 2.519 1.034h1.021q.658 0 .833-.063t.175-.314q0-.35-.462-.461l-.56-.126q-1.847-.42-1.847-3.647v-3.814q0-2.166-1.05-3.06l-.265-.224q-.195-.167-.196-.251 0-.097.196-.252l.266-.223q1.05-.894 1.05-3.06" clip-rule="evenodd"/></g><path fill="#fff" fill-rule="evenodd" d="M94.654 5.471q0 1.971 2.228 1.971 1.98 0 1.98-1.971T96.882 3.5q-2.228 0-2.228 1.971m-29.42 10.033q1.9 2.929 7.233.976c1.247 5.125-11.223 5.613-11.223-2.197.486-7.02 6.734-7.02 9.228-5.613 2.858 1.459 3.242 5.125.748 6.345q-1.137.616-5.986.489m0-2.685c.749-3.173 3.741-1.953 3.741-.732l.002.04c.013.276.044.923-3.743.692m16.95-1.631q-2.595-.361-3.01.746-.415 1.109-.25 7.965-2.782.453-3.513-.995-.73-1.45-.501-6.97.25-2.985 2.508-3.733c1.014-.335 3.426-.522 4.516.498q.528.495.25 2.489m18.401 8.46c-1.732 1.178-4.386.43-5.031-.494q-1.26-1.808-.755-10.394 2.703-.31 3.522.495c.698.687.696 3.596.695 5.506 0 .844 0 1.493.06 1.67q.384 1.136 2.012.743.02 2.119-.503 2.474m-13.623-5.636c0-3.41 3.939-3.41 5.908-1.948q0-.083.01-.219c.06-1.136.26-4.83-5.672-3.697-2.462.733-4.186 3.421-4.186 5.875 0 2.923 1.478 4.878 4.186 5.855 6.647.978 5.662-3.918 5.662-3.918-1.723 1.217-5.908 1.46-5.908-1.948m-38.03-5.783c3.591-.375 4.715 1.552 5.378 2.688.2.344.359.615.53.728 0 0 1.724-1.708 1.97-3.416q5.909-.245 0 6.1 2.215 3.417 3.939 3.66c-.247 1.953-2.041 2.41-3.693 1.709-1.723-.733-2.954-3.173-2.954-3.173-.985 0-1.97 3.173-1.97 3.417q-6.4.243-.246-6.345-2.954-3.416-2.954-5.368m-1.708 8.25q-5.334 1.954-7.233-.975 4.848.128 5.986-.489c2.494-1.22 2.11-4.886-.749-6.345-2.494-1.406-8.742-1.406-9.228 5.613 0 7.81 12.47 7.322 11.224 2.197m-3.492-4.392c0-1.22-2.993-2.441-3.741.732 3.786.231 3.755-.416 3.742-.691zm67.994-.127c1.223-5.446-8.322-4.951-9.301-.99-.638 3.874 1.95 4.275 3.828 4.565 1.002.155 1.801.278 1.801.88 0 1.734-4.16.743-5.384 0-1.468 4.952 7.587 5.447 9.056 1.239.624-2 .045-3.504-1.224-4.209-.767-.425-1.582-.52-2.314-.605-.906-.105-1.686-.196-2.092-.88-.489-.99 2.448-1.733 5.63 0m6.362 4.95c.052 1.02.108 2.117.108 3.242-4.35.658-4.294-1.966-4.219-5.49.01-.478.021-.971.021-1.476 0-5.722 7.162-6.717 9.384-3.234 2.223-3.234 9.138-2.985 9.138 4.142v6.058c-4.112.502-4.199-1.492-4.199-3.98q0-.555.006-1.044c.022-2.74.031-3.932-1.734-3.932-1.443.182-1.437 1.643-1.425 4.776.004 1.158.01 2.545-.057 4.18-3.704.498-3.704-1.244-3.704-2.985q0-.53.007-1.045c.029-2.656.054-4.926-1.736-4.926-1.882 0-1.756 2.455-1.59 5.714" clip-rule="evenodd"/><defs><clipPath id="a"><path fill="#fff" d="M1.125 0h27.813v24H1.125z"/></clipPath></defs></svg>