<svg xmlns="http://www.w3.org/2000/svg" width="735" height="287" fill="none"><rect width="698" height="249" x="4.5" y="4.5" stroke="#fff" stroke-width="9" rx="20.5"/><rect width="698" height="249" x="32.5" y="33.5" stroke="#fff" stroke-width="9" rx="20.5"/><path fill="#fff" d="M104 190.8q-6.8 0-9.7-3.1-2.9-3-2.9-7.7v-4.5q0-2.5.5-4.4.6-1.9 1.4-3.4t1.8-2.6q1-1.2 1.9-2.3 1.7-2 2.3-3.4.7-1.5.7-3.1 0-2.6-2.7-4t-8.1-1.4h-9v-10h9q5.4 0 8.1-1.4t2.7-4a6.6 6.6 0 0 0-.7-3q-.6-1.5-2.3-3.5-.9-1-1.9-2.2a16 16 0 0 1-1.8-2.7q-.8-1.5-1.4-3.4-.5-1.9-.5-4.4v-4.5q0-4.7 2.9-7.7 2.9-3.1 9.7-3.1h17.8v9.9h-18.5v4.8q0 3.8 1.2 5.8a73 73 0 0 0 2.8 4q1.7 2.1 3.2 4.5t1.5 5.6q0 4.2-2.9 6.7t-8.9 3.2v.8q6 .7 8.9 3.2t2.9 6.7q0 3.2-1.5 5.6t-3.2 4.5a73 73 0 0 0-2.8 4q-1.2 2-1.2 5.8v4.8h18.5v9.9zm44.361-44.9q0-7.3 1.6-14 1.7-6.8 4.5-12.6 2.9-5.8 6.7-10.4 3.8-4.7 8-7.9h14.8q-4.7 3.2-8.9 7.5-4.2 4.2-7.4 9.3a52.2 52.2 0 0 0-5 10.9q-1.9 5.8-1.9 12.1V151q0 6.3 1.9 12.1a52.2 52.2 0 0 0 5 10.9q3.2 5.1 7.4 9.3 4.2 4.3 8.9 7.5h-14.8q-4.2-3.1-8-7.8t-6.7-10.5q-2.8-5.8-4.5-12.5-1.6-6.8-1.6-14.1m85.161 0q0 7.3-1.7 14.1-1.6 6.7-4.5 12.5-2.8 5.8-6.6 10.5t-8 7.8h-14.8q4.6-3.2 8.8-7.5a47.3 47.3 0 0 0 7.4-9.3 49.3 49.3 0 0 0 5.1-10.9q1.9-5.8 1.9-12.1v-10.2q0-6.3-1.9-12.1a49.3 49.3 0 0 0-5.1-10.9 47.3 47.3 0 0 0-7.4-9.3q-4.2-4.3-8.8-7.5h14.8q4.2 3.2 8 7.9 3.8 4.6 6.6 10.4 2.9 5.8 4.5 12.6 1.7 6.7 1.7 14m83.522-5v-11.8h47.6v11.8zm0 23v-11.8h47.6v11.8zm62.261-1.3 29.7-15.7v-.8l-29.7-15.7v-13.8l43 23v13.8l-43 23zm118.522 2.9h15.2v-28.6h-16.2v-11.5h16.2v-7.5q0-6.6 3.8-10.7 3.9-4.2 12-4.2h17.5v11.5h-18.5v10.9h18.5v11.5h-18.5v28.6h16.2V177h-46.2zm82.26 12.7q-8.6 0-14.999-2.6-6.3-2.6-9.5-7.1l8.299-7.7a22.3 22.3 0 0 0 7.001 5.2q4.1 1.8 9.3 1.8 4.4 0 6.9-1.3 2.5-1.4 2.5-4.2 0-2.2-1.7-3-1.7-.9-4.7-1.4l-8.3-1.3q-3.5-.5-6.5-1.5-3-1.1-5.2-2.9a13.3 13.3 0 0 1-3.5-4.4q-1.3-2.6-1.3-6.3 0-8.1 6.2-12.7t17.4-4.6q7.599 0 12.9 2.1 5.4 2 8.599 5.8l-7.399 8.4q-2.3-2.5-5.9-4.2t-8.7-1.7q-8.6 0-8.6 5.2 0 2.3 1.7 3.2 1.7.8 4.7 1.3l8.2 1.3q3.5.5 6.5 1.6 3 1 5.2 2.8a12.8 12.8 0 0 1 3.6 4.4q1.3 2.6 1.3 6.3 0 8.1-6.3 12.8-6.2 4.7-17.701 4.7m57.561-77.2q6.8 0 9.7 3.1 2.9 3 2.9 7.7v4.5q0 2.5-.6 4.4-.5 1.9-1.3 3.4t-1.8 2.7-1.9 2.2q-1.7 2-2.4 3.5-.6 1.4-.6 3 0 2.6 2.7 4t8.1 1.4h9v10h-9q-5.4 0-8.1 1.4t-2.7 4q0 1.6.6 3.1.7 1.4 2.4 3.4.9 1.1 1.9 2.3 1 1.1 1.8 2.6t1.3 3.4q.6 1.9.6 4.4v4.5q0 4.7-2.9 7.7-2.9 3.1-9.7 3.1h-17.8v-9.9h18.5v-4.8q0-3.8-1.3-5.8-1.2-2-2.7-4-1.7-2.1-3.2-4.5t-1.5-5.6q0-4.2 2.9-6.7t8.9-3.2v-.8q-6-.7-8.9-3.2t-2.9-6.7q0-3.2 1.5-5.6t3.2-4.5q1.5-2 2.7-4 1.3-2 1.3-5.8v-4.8h-18.5V101z"/></svg>