<svg xmlns="http://www.w3.org/2000/svg" width="205" height="59" fill="none" aria-labelledby="a264md8bn93uocx1m8p6ok73rq6rc4ts" class="hidden lg:block h-12 w-auto text-gray-800 dark:text-gray-300"><path fill="#EED9C3" fill-rule="evenodd" d="m8.69 34.733 4.458-15.443h17.835l4.459 15.443z" clip-rule="evenodd"/><ellipse cx="27.785" cy="27.122" fill="#353535" rx="1.26" ry="1.243"/><path fill="#A78347" fill-rule="evenodd" d="M19.446 25.71a.79.79 0 0 0-.797-.787h-3.757a.79.79 0 0 0-.796.786v2.434c0 .65.534 1.178 1.194 1.178h1.368c.74 0 1.448-.29 1.971-.806a2.73 2.73 0 0 0 .817-1.944z" clip-rule="evenodd"/><path fill="#E3B261" fill-rule="evenodd" d="M35 4.53 43.852 0 39 18l-4 4zM8.851 4.53.001 0l4.85 18 4 4z" clip-rule="evenodd"/><path fill="#E3B261" fill-rule="evenodd" d="M35.442 12.744s-6.688-4.398-13.376-4.398-13.377 4.398-13.377 4.398v13.193l1.784 3.519c1.28-4.863 7.071-6.889 11.103-3.884l.49.365.49-.365c4.031-3.005 9.823-.98 11.102 3.884l1.784-3.519z" clip-rule="evenodd"/><path fill="#D4D4D4" fill-rule="evenodd" d="m17.607 32.534-3.567 20.67-4.919-3.518 4.027-14.953z" clip-rule="evenodd"/><path fill="#D5D5D5" fill-rule="evenodd" d="m26.524 32.534 3.567 20.67 4.919-3.518-4.027-14.953z" clip-rule="evenodd"/><path fill="#E6E6E6" fill-rule="evenodd" d="M8.69 25.937 5.121 39.131l4.46 8.796 3.566-13.194zM35.442 25.937l3.567 13.194-4.459 8.796-3.567-13.194zM17.607 32.534l-4.013 21.55 8.472 4.397 8.471-4.397-4.013-21.55-4.126-2.035-.332-.164z" clip-rule="evenodd"/><path fill="#353535" fill-rule="evenodd" d="M23.664 33.414h-3.122v1.1c0 .408.165.8.457 1.088s.69.45 1.103.45h.002c.414 0 .81-.162 1.103-.45s.457-.68.457-1.088z" clip-rule="evenodd"/><path fill="#E6E6E6" d="m68.808 20.384-1.104.072c-.336 0-.648 0-1.008-.024-.192 0-.408.168-.552.168l-.456-.192-2.328-.12-.072 1.968.288.288 1.464-.048c.072 0 .216-.024.384-.072l.12-.12.528.072.144.984-.096 1.536.144 1.128-.12 4.896-.12 3.384.216.24-.36 1.512v1.848l1.272.192.672-.12.696-.384-.192-1.704v-4.512l-.288-.456.024-.024.216-1.44-.024-1.848V27.2c0-.168-.024-.384-.024-.576-.024-.144-.024-.744-.024-.96l.048-1.776-.096-.528.144-1.008h.744l.72.048.24.072h1.08l.072-1.128-.144-1.008zm4.456 13.608.048 1.512.336.36-.384.456-.072 1.608 1.512.144.984-.048.024-.888-.072-1.08-.144-1.272.024-.072.12-4.176 1.872-.792h.024l1.392-.312-.024.432.072.336-.048 3.696.36.384-.24.216-.168 2.688.312.84h1.392l.888-.048-.048-1.32-.168-.6-.048-3.072-.048-4.296-.048-.48-.072-1.08.12-2.256-.216-.696.24-.312.024-.912v.024l.144-1.368.072-1.2-1.368-.048-.888-.024-.36.696.12.96.048 2.16.072 2.184-.096.648-.264.12-.456.216-.984.432-.216.264-.384-.144-1.008.36-.048.024-.216-2.328.096-1.584-.264-.216.288-.456.12-1.464.096-1.728-2.064-.264-.576.384.168 1.488-.072.48.072 1.584.168 1.488-.096 2.352.168 2.712zm17.562-11.376.048-1.344-.024-.936-2.376.024-.936.192-.336-.192h-1.368l-1.128.144.12 1.704.264.312-.264.408.024 1.224-.024 1.872V27.8l-.072.888.192 2.376-.096.192.024 1.296v.552l.216.288-.288.624-.024 1.104.024.264-.144 1.632.12.984 1.8.024.192-.12h.84l1.368.144 1.584.024.552-.24.096-.888.048-1.2-1.2-.024-.6.192-1.92.024-.192-.048-.216-.048-.048-2.328-.024-.048.072-.216-.144-.696.096-2.472h.384l1.512.048 1.176.048.048-.984.144-.72-.312-.6-1.224.12-.936.048-.888-.048-.048-.936-.24-.192.264-.432.12-.72v-2.376l.048-.6v-.264h.216l1.32.048.384-.072.072-.024.576.192zm11.505-2.304-.216.024h-.888l-.048.168-.144.72-.096.144-1.296 3.24.12.264-.432.312-1.296 3.144-.192.12.048 1.512.576 1.224.864 2.04.72 1.488h.264l-.072.408.84 2.088.024.792 2.184.024.048-.264.288-.768 1.296-3.072.552-1.152.024-.384.192-.24 1.176-2.376.072-1.32-.816-1.776-.648-1.44h-.24l-.12-.648-1.224-3-.48-1.32zm.048 14.64-1.056-2.76-.48-.984-.48-.336.24-.288-.216-.696-.312-.792-.024-.288.792-2.064-.168-.384.336-.096 1.32-3.48.144.456.552 1.464.432.264-.216.288.936 2.424.288.816.192.6-1.176 2.88.024.432h.024l-.288.288-.768 2.52zm10.848.768.84-1.704 2.472-3.792.432-.72-.024-1.752-.432-.552.024.048-1.824-2.424-.624-1.104-.84-.84-.264-.792-1.488-2.04-1.272.384-1.032.312.024.888.072 1.248.24.312-.24.456.024 6.288.144.936-.144 5.376v-.024l-.048 1.608 1.56.216.792.216zm-1.776-8.976-.072-3.48.144.168 2.376 3.816.48.384.096.576.432.648-.432.696-.792 1.32-1.008 1.944.192.216-.432.216-1.056 1.704-.024.048.024-1.296.096-4.752-.384-1.128zm7.98.816-.072 1.32-.072.744v5.352l.288.408-.288.48-.336 2.136 1.104.024.504.024 1.056-.336.024-.888-.048-.456-.048-.36V29.36l-.264-.168.216-.504-.048-.6-.096-.936.072-1.224.072-3.144.12-.6.12-1.752-1.56-.096-1.128.072.12 1.2.216.12-.192.432.072 4.8zm13.684 8.328v-.768l-.168-5.256-.264-.792.192-1.008.24-5.904.048-1.632-.984-.168-1.392.024v1.92l.24.336-.24.744v2.064l-.792-1.296-.192-.096-.6-.96-2.16-2.976-1.896.528v1.248l.096 2.496.096 1.368-.096 4.992.216.48-.192.696-.144 3.408v.408l.072.216-.168 1.92 1.032.192 1.416-.048.048-1.536-.072-.336.024-2.496-.216-.912.12-.864.048-5.472-.288-.312-.024-.048.336-.864v-1.296l.624.864.984 1.368.696.84.336.528.336.36.384.648.024 2.496.072.456-.072.12-.024 2.304.024 2.28-.024 1.872.816.048 1.32-.024.312-.816zm14.278-7.128.768-.744.744-.912.048-1.656-2.496-2.64-.504-.168-.096-.408-2.16-2.232-.768.288-1.152.504.048 1.608.12.984v3.936l-.048.12-.024 6 .288.312-.216.744-.264 3.432 1.392.144 1.2-.072-.144-2.976-.384-.336.384-.576-.048-1.656.216-.24 1.608-1.824zm-3.288-1.632-.264-.48.24-.744-.024-1.152.024-1.704 1.392 1.56.216.144.168.336 1.032 1.152-.384.552-.24.6-.264-.072-1.2 1.416-.696.744zm9.361 3.48.96 1.944.216.552.888 1.68.288.144-.024.408.84 1.92.576.936 1.944-1.08.024-.696-.792-.84-.432-.912v.024l-.336-.696-.144-.072v-.312l-.96-1.632c-.168-.24-.312-.36-.504-.576v-.408c-.144-.288-.432-.696-.6-1.032l.672-.912.408-.504.768-.912 1.104-1.344.168-1.44-1.152-1.056c-.024 0-.408.12-.432.096l-.144-.6-3.816-3.312-1.896.768.096 2.064.12 4.584-.192.48.048 1.248.096 2.808v.936l.216.312-.36.936-.144 3.816 1.584.144.96-.384-.024-1.992-.072-.216-.072-2.4-.024-2.616zm-.096-2.256-.096-2.136-.048-.264-.048-.144-.096-.432.192-.456v-.24l.048-1.848 2.208 2.184.168.12.48.6-.264.336a40 40 0 0 1-1.224 1.584l-1.2 1.488-.168.096zm10.953-8.04-.216.024h-.888l-.048.168-.144.72-.096.144-1.296 3.24.12.264-.432.312-1.296 3.144-.192.12.048 1.512.576 1.224.864 2.04.72 1.488h.264l-.072.408.84 2.088.024.792 2.184.024.048-.264.288-.768 1.296-3.072.552-1.152.024-.384.192-.24 1.176-2.376.072-1.32-.816-1.776-.648-1.44h-.24l-.12-.648-1.224-3-.48-1.32zm.048 14.64-1.056-2.76-.48-.984-.48-.336.24-.288-.216-.696-.312-.792-.024-.288.792-2.064-.168-.384.336-.096 1.32-3.48.144.456.552 1.464.432.264-.216.288.936 2.424.288.816.192.6-1.176 2.88.024.432h.024l-.288.288-.768 2.52zm7.339-7.344-.12 1.32.024 1.488.024.336v.936l-.096 2.616.048.216-.36.504-1.056.696-1.056.432V37.4l1.32.984 1.776-1.44-.024-.48.648-.096.768-.672.384-.672-.288-4.128-.192-.72.264-.192-.096-6.696.288-2.112-.312-.84-2.28.048v1.344l.432.24-.312.384.072 4.056zm11.792-4.992.048-1.344-.024-.936-2.376.024-.936.192-.336-.192h-1.368l-1.128.144.12 1.704.264.312-.264.408.024 1.224-.024 1.872V27.8l-.072.888.192 2.376-.096.192.024 1.296v.552l.216.288-.288.624-.024 1.104.024.264-.144 1.632.12.984 1.8.024.192-.12h.84l1.368.144 1.584.024.552-.24.096-.888.048-1.2-1.2-.024-.6.192-1.92.024-.192-.048-.216-.048-.048-2.328-.024-.048.072-.216-.144-.696.096-2.472h.384l1.512.048 1.176.048.048-.984.144-.72-.312-.6-1.224.12-.936.048-.888-.048-.048-.936-.24-.192.264-.432.12-.72v-2.376l.048-.6v-.264h.216l1.32.048.384-.072.072-.024.576.192zm1.86 8.28.864 1.56 1.104 1.032-.192.432 1.824 2.832.048.288.816 1.272.816-.528 1.248-1.032-.552-.888-1.248-1.632-1.104-1.872-.888-1.368-.216-.48-.336-.336-.24-.456-.36-.696.312-.576.456-.816.792-1.248 1.44-2.136.12-.648.408-.264.672-.936.672-1.2-1.8-1.2-.84.984-.024.192-1.344 2.208v.096l-.6.96v.576l-.864.84-1.56 2.64.024 1.536zm12.758-10.512-1.104.072c-.336 0-.648 0-1.008-.024-.192 0-.408.168-.552.168l-.456-.192-2.328-.12-.072 1.968.288.288 1.464-.048c.072 0 .216-.024.384-.072l.12-.12.528.072.144.984-.096 1.536.144 1.128-.12 4.896-.12 3.384.216.24-.36 1.512v1.848l1.272.192.672-.12.696-.384-.192-1.704v-4.512l-.288-.456.024-.024.216-1.44-.024-1.848V27.2c0-.168-.024-.384-.024-.576-.024-.144-.024-.744-.024-.96l.048-1.776-.096-.528.144-1.008h.744l.72.048.24.072h1.08l.072-1.128-.144-1.008z"/></svg>