<?xml version="1.0" encoding="iso-8859-1"?>
<svg
  fill="#000000"
  height="800px"
  width="800px"
  version="1.1"
  id="Layer_1"
  xmlns="http://www.w3.org/2000/svg"
  xmlns:xlink="http://www.w3.org/1999/xlink"
  viewBox="0 0 512 512"
  xml:space="preserve"
>
  <g>
    <g>
      <g>
        <path
          d="M162.133,349.867H8.533C3.82,349.867,0,353.687,0,358.4v102.4c0,4.713,3.82,8.533,8.533,8.533h50.128
				c-3.782,14.734-17.135,25.6-33.061,25.6c-11.378,0-11.378,17.067,0,17.067h119.467c11.378,0,11.378-17.067,0-17.067
				c-15.926,0-29.279-10.866-33.061-25.6h50.128c4.713,0,8.533-3.82,8.533-8.533V358.4
				C170.667,353.687,166.846,349.867,162.133,349.867z M106.888,494.933h-43.11c6.305-7.048,10.684-15.856,12.315-25.6h18.479
				C96.205,479.078,100.584,487.885,106.888,494.933z M153.6,452.267h-51.2H68.267h-51.2v-85.333H153.6V452.267z"
        />
        <path
          d="M256,238.933c0.001,0,0.001,0,0.002,0c0,0,0.001,0,0.001,0c0.001,0,0.002,0,0.003,0
				c65.979-0.003,119.461-53.486,119.461-119.467S321.985,0.003,256.006,0c-0.001,0-0.002,0-0.003,0c0,0-0.001,0-0.001,0
				c-0.001,0-0.001,0-0.002,0c-65.982,0-119.467,53.484-119.467,119.467S190.018,238.933,256,238.933z M153.957,128h35.285
				c1.306,34.063,10.378,64.435,24.465,84.751C180.711,197.768,157.075,165.795,153.957,128z M264.533,220.25V128h41.14
				C303.71,174.899,285.754,212.199,264.533,220.25z M264.533,110.933v-92.25c21.221,8.051,39.176,45.352,41.14,92.25H264.533z
				 M247.467,18.685v92.249h-41.143C208.287,64.04,226.245,26.74,247.467,18.685z M247.467,128v92.249
				c-21.222-8.055-39.179-45.356-41.143-92.249H247.467z M298.297,212.749c14.083-20.315,23.153-50.687,24.458-84.749h35.288
				C354.925,165.794,331.29,197.766,298.297,212.749z M358.043,110.933h-35.288c-1.305-34.063-10.375-64.434-24.458-84.749
				C331.29,41.167,354.925,73.139,358.043,110.933z M213.706,26.182c-14.086,20.316-23.159,50.688-24.465,84.751h-35.285
				C157.075,73.138,180.711,41.165,213.706,26.182z"
        />
        <path
          d="M503.467,349.867h-153.6c-4.713,0-8.533,3.82-8.533,8.533v102.4c0,4.713,3.82,8.533,8.533,8.533h50.128
				c-3.782,14.734-17.135,25.6-33.061,25.6c-11.378,0-11.378,17.067,0,17.067H486.4c11.378,0,11.378-17.067,0-17.067
				c-15.926,0-29.279-10.866-33.061-25.6h50.128c4.713,0,8.533-3.82,8.533-8.533V358.4C512,353.687,508.18,349.867,503.467,349.867z
				 M448.222,494.933h-43.11c6.305-7.048,10.684-15.856,12.315-25.6h18.479C437.538,479.078,441.917,487.885,448.222,494.933z
				 M494.933,452.267h-51.2H409.6h-51.2v-85.333h136.533V452.267z"
        />
        <path
          d="M418.133,324.267c0,4.713,3.82,8.533,8.533,8.533s8.533-3.82,8.533-8.533v-34.133c0-4.713-3.82-8.533-8.533-8.533
				H264.533v-17.067c0-4.713-3.82-8.533-8.533-8.533s-8.533,3.82-8.533,8.533V281.6H85.333c-4.713,0-8.533,3.82-8.533,8.533v34.133
				c0,4.713,3.82,8.533,8.533,8.533s8.533-3.82,8.533-8.533v-25.6h324.267V324.267z"
        />
      </g>
    </g>
  </g>
</svg>
