<svg xmlns="http://www.w3.org/2000/svg" xml:space="preserve" width="800" height="800" fill="#00E3A5" viewBox="0 0 392.186 392.186"><path d="M368.62 17.951H23.568C10.57 17.951 0 28.524 0 41.52v309.146c0 12.996 10.57 23.568 23.568 23.568h345.053c12.994 0 23.564-10.572 23.564-23.568V41.52c.003-12.995-10.571-23.569-23.565-23.569m-71.06 39.577a8.703 8.703 0 0 1 8.701-8.703h8.703a8.7 8.7 0 0 1 8.701 8.703v9.863a8.7 8.7 0 0 1-8.701 8.702h-8.703a8.7 8.7 0 0 1-8.701-8.702zm-40.467 0a8.704 8.704 0 0 1 8.703-8.703h8.701a8.704 8.704 0 0 1 8.703 8.703v9.863a8.703 8.703 0 0 1-8.703 8.702h-8.701a8.703 8.703 0 0 1-8.703-8.702zm106.81 288.423H28.282V102.235h335.621zm.229-278.56a8.7 8.7 0 0 1-8.701 8.702h-8.703a8.7 8.7 0 0 1-8.702-8.702v-9.863a8.703 8.703 0 0 1 8.702-8.703h8.703a8.7 8.7 0 0 1 8.701 8.703z"/><path d="m84.185 233.284 63.084 29.336a12.27 12.27 0 0 0 11.76-.786 12.21 12.21 0 0 0 5.666-10.334v-.322c0-4.752-2.785-9.116-7.096-11.118l-39.455-18.332 39.455-18.334a12.3 12.3 0 0 0 7.096-11.117v-.319c0-4.21-2.119-8.075-5.666-10.334a12.24 12.24 0 0 0-6.605-1.916c-1.779 0-3.563.391-5.16 1.133l-63.08 29.333a12.3 12.3 0 0 0-7.09 11.117v.877c-.001 4.741 2.78 9.104 7.091 11.116m81.072 59.752a12.3 12.3 0 0 0 9.9 5.03h.316a12.22 12.22 0 0 0 11.672-8.517L228.7 160.788a12.3 12.3 0 0 0-1.771-10.973 12.3 12.3 0 0 0-9.901-5.03h-.315a12.22 12.22 0 0 0-11.679 8.516l-41.559 128.771a12.32 12.32 0 0 0 1.782 10.964m62.233-100.76c0 4.745 2.783 9.109 7.095 11.123l39.455 18.329-39.455 18.33a12.3 12.3 0 0 0-7.095 11.118v.322a12.21 12.21 0 0 0 5.668 10.336 12.25 12.25 0 0 0 6.595 1.924c1.793 0 3.528-.383 5.17-1.142l63.08-29.335c4.307-2.009 7.09-6.372 7.09-11.115v-.877c0-4.748-2.783-9.113-7.094-11.117l-63.08-29.333a12.3 12.3 0 0 0-5.152-1.131c-2.355 0-4.643.661-6.604 1.912a12.2 12.2 0 0 0-5.67 10.337v.318h-.003z"/></svg>