<?xml version="1.0" encoding="UTF-8"?>
<svg xmlns="http://www.w3.org/2000/svg" xmlns:xlink="http://www.w3.org/1999/xlink" width="109px" height="120px" viewBox="0 0 109 120" version="1.1">
<g id="surface1">
<path style=" stroke:none;fill-rule:evenodd;fill:rgb(0%,26.666667%,50.980392%);fill-opacity:1;" d="M 51.351562 0.816406 C 53.300781 -0.269531 55.699219 -0.269531 57.644531 0.816406 C 67.265625 6.199219 96.226562 22.390625 105.851562 27.773438 C 107.800781 28.859375 109 30.871094 109 33.046875 C 109 43.804688 109 76.191406 109 86.953125 C 109 89.128906 107.800781 91.140625 105.851562 92.230469 C 96.230469 97.609375 67.269531 113.804688 57.644531 119.183594 C 55.695312 120.273438 53.296875 120.273438 51.351562 119.183594 C 41.730469 113.804688 12.769531 97.609375 3.144531 92.230469 C 1.199219 91.140625 0 89.132812 0 86.957031 C 0 76.195312 0 43.808594 0 33.050781 C 0 30.871094 1.199219 28.859375 3.148438 27.773438 C 12.765625 22.390625 41.734375 6.199219 51.351562 0.816406 Z M 51.351562 0.816406 "/>
<path style=" stroke:none;fill-rule:evenodd;fill:rgb(39.607843%,60.392157%,82.352941%);fill-opacity:1;" d="M 0.871094 89.726562 C 0.109375 88.710938 0 87.742188 0 86.445312 C 0 75.746094 0 43.546875 0 32.847656 C 0 30.679688 1.195312 28.679688 3.136719 27.601562 C 12.726562 22.253906 41.589844 6.152344 51.179688 0.800781 C 53.121094 -0.28125 55.75 -0.257812 57.691406 0.824219 C 67.28125 6.171875 96.046875 22.136719 105.636719 27.484375 C 106.410156 27.917969 107 28.441406 107.527344 29.128906 Z M 0.871094 89.726562 "/>
<path style=" stroke:none;fill-rule:evenodd;fill:rgb(100%,100%,100%);fill-opacity:1;" d="M 54.5 20 C 76.664062 20 94.65625 37.921875 94.65625 60 C 94.65625 82.078125 76.664062 100 54.5 100 C 32.335938 100 14.34375 82.078125 14.34375 60 C 14.34375 37.921875 32.335938 20 54.5 20 Z M 54.5 40 C 65.582031 40 74.578125 48.960938 74.578125 60 C 74.578125 71.039062 65.582031 80 54.5 80 C 43.417969 80 34.421875 71.039062 34.421875 60 C 34.421875 48.960938 43.417969 40 54.5 40 Z M 54.5 40 "/>
<path style=" stroke:none;fill-rule:evenodd;fill:rgb(0%,34.901961%,61.176471%);fill-opacity:1;" d="M 107.523438 29.15625 C 109.003906 30.539062 108.972656 32.617188 108.972656 34.253906 C 108.972656 45.097656 108.882812 75.9375 109 86.78125 C 109.011719 87.914062 108.636719 89.105469 108.074219 90 L 53.332031 60 Z M 107.523438 29.15625 "/>
</g>
</svg>
