<svg xmlns="http://www.w3.org/2000/svg" width="109" height="120"><path d="M51.352.816a6.49 6.49 0 0 1 6.293 0c9.62 5.383 38.582 21.575 48.207 26.957C107.8 28.86 109 30.871 109 33.047v53.906c0 2.176-1.2 4.188-3.148 5.277-9.622 5.38-38.582 21.575-48.207 26.954a6.47 6.47 0 0 1-6.293 0C41.73 113.804 12.77 97.609 3.145 92.23 1.199 91.14 0 89.133 0 86.957V33.051c0-2.18 1.2-4.192 3.148-5.278C12.766 22.391 41.734 6.2 51.352.816m0 0" style="stroke:none;fill-rule:evenodd;fill:#004482;fill-opacity:1"/><path d="M.871 89.727C.11 88.71 0 87.742 0 86.445V32.848c0-2.168 1.195-4.168 3.137-5.246C12.727 22.254 41.59 6.152 51.18.8c1.94-1.081 4.57-1.058 6.51.024 9.59 5.348 38.356 21.313 47.946 26.66a6 6 0 0 1 1.89 1.645Zm0 0" style="stroke:none;fill-rule:evenodd;fill:#659ad2;fill-opacity:1"/><path d="M54.5 20c22.164 0 40.156 17.922 40.156 40S76.664 100 54.5 100 14.344 82.078 14.344 60 32.336 20 54.5 20m0 20c11.082 0 20.078 8.96 20.078 20S65.582 80 54.5 80s-20.078-8.96-20.078-20S43.418 40 54.5 40m0 0" style="stroke:none;fill-rule:evenodd;fill:#fff;fill-opacity:1"/><path d="M107.523 29.156c1.48 1.383 1.45 3.461 1.45 5.098 0 10.844-.09 41.684.027 52.527.012 1.133-.363 2.324-.926 3.219L53.332 60Zm0 0" style="stroke:none;fill-rule:evenodd;fill:#00599c;fill-opacity:1"/></svg>