<svg
  width="200"
  height="200"
  viewBox="0 0 200 200"
  fill="none"
  xmlns="http://www.w3.org/2000/svg"
>
  <g clip-path="url(#clip0_7_123)">
    <path
      d="M35.4167 1.61203e-05H164.583C169.236 -0.00448106 173.843 0.932018 178.142 2.75592C182.441 4.57981 186.347 7.25531 189.636 10.6293C192.926 14.0032 195.535 18.0094 197.313 22.4186C199.091 26.8277 200.004 31.5533 200 36.3248V163.675C200.004 168.447 199.091 173.172 197.313 177.581C195.535 181.991 192.926 185.997 189.636 189.371C186.347 192.745 182.441 195.42 178.142 197.244C173.843 199.068 169.236 200.004 164.583 200H35.4167C30.7645 200.004 26.157 199.068 21.8581 197.244C17.5592 195.42 13.6532 192.745 10.3635 189.371C7.07392 185.997 4.46532 181.991 2.68702 177.581C0.908717 173.172 -0.00436903 168.447 1.57173e-05 163.675V36.3248C-0.00436903 31.5533 0.908717 26.8277 2.68702 22.4186C4.46532 18.0094 7.07392 14.0032 10.3635 10.6293C13.6532 7.25531 17.5592 4.57981 21.8581 2.75592C26.157 0.932018 30.7645 -0.00448106 35.4167 1.61203e-05Z"
      fill="#2965F1"
    />
    <path
      d="M48.9551 82.4476L50.9231 104.408H100.066V82.4476H48.9551ZM45 38L46.9961 59.9601H100.066V38H45ZM100.066 139.481L99.9694 139.506L75.5126 132.902L73.949 115.388H51.9043L54.9806 149.869L99.9646 162.356L100.066 162.328V139.481Z"
      fill="#EBEBEB"
    />
    <path
      d="M151.036 82.4476L155 38H99.9901V59.9601H130.934L128.936 82.4476H99.9901V104.408H127.032L124.482 132.888L99.9894 139.499V162.346L145.009 149.869L145.339 146.159L150.5 88.3446L151.036 82.4476Z"
      fill="white"
    />
  </g>
  <defs>
    <clipPath id="clip0_7_123">
      <rect width="200" height="200" fill="white" />
    </clipPath>
  </defs>
</svg>
