<svg
  width="200"
  height="200"
  viewBox="0 0 200 200"
  fill="none"
  xmlns="http://www.w3.org/2000/svg"
>
  <g clip-path="url(#clip0_1_435)">
    <path
      d="M35.4167 1.61203e-05H164.583C169.236 -0.00448106 173.843 0.932018 178.142 2.75592C182.441 4.57981 186.347 7.25531 189.636 10.6293C192.926 14.0032 195.535 18.0094 197.313 22.4186C199.091 26.8277 200.004 31.5533 200 36.3248V163.675C200.004 168.447 199.091 173.172 197.313 177.581C195.535 181.991 192.926 185.997 189.636 189.371C186.347 192.745 182.441 195.42 178.142 197.244C173.843 199.068 169.236 200.004 164.583 200H35.4167C30.7645 200.004 26.157 199.068 21.8581 197.244C17.5592 195.42 13.6532 192.745 10.3635 189.371C7.07392 185.997 4.46532 181.991 2.68702 177.581C0.908717 173.172 -0.00436903 168.447 1.57173e-05 163.675V36.3248C-0.00436903 31.5533 0.908717 26.8277 2.68702 22.4186C4.46532 18.0094 7.07392 14.0032 10.3635 10.6293C13.6532 7.25531 17.5592 4.57981 21.8581 2.75592C26.157 0.932018 30.7645 -0.00448106 35.4167 1.61203e-05Z"
      fill="#F0F0F0"
    />
    <path
      d="M100.013 177.491L55.0254 165.002L45 52.5576H155.16L145.124 164.985L100.013 177.491Z"
      fill="#264DE4"
    />
    <path
      d="M136.532 157.826L145.108 61.7515H100.08V167.931L136.532 157.826Z"
      fill="#2965F1"
    />
    <path
      d="M67.9829 103.456L69.2187 117.246H100.08V103.456H67.9829ZM65.4991 75.5427L66.7526 89.3336H100.08V75.5427H65.4991ZM100.08 139.272L100.02 139.288L84.6608 135.141L83.6789 124.142H69.8349L71.7669 145.796L100.017 153.638L100.08 153.62V139.272Z"
      fill="#EBEBEB"
    />
    <path
      d="M70.9256 22H87.6282V28.985H77.9106V35.97H87.629V42.9546H70.9256V22ZM90.9691 22H107.672V28.0739H97.9541V29.2886H107.672V43.2586H90.9696V36.8803H100.688V35.6656H90.9687V22H90.9691ZM111.013 22H127.716V28.0739H117.998V29.2886H127.716V43.2586H111.013V36.8803H120.731V35.6656H111.013V22H111.013Z"
      fill="black"
    />
    <path
      d="M132.089 103.456L134.578 75.5427H100.032V89.3336H119.465L118.21 103.456H100.032V117.246H117.014L115.413 135.132L100.032 139.284V153.631L128.304 145.796L128.511 143.466L131.753 107.159L132.089 103.456Z"
      fill="white"
    />
  </g>
  <defs>
    <clipPath id="clip0_1_435">
      <rect width="200" height="200" fill="white" />
    </clipPath>
  </defs>
</svg>
