<svg
  width="128"
  height="128"
  viewBox="0 0 128 128"
  fill="none"
  xmlns="http://www.w3.org/2000/svg"
>
  <path
    fill-rule="evenodd"
    clip-rule="evenodd"
    d="M64.4001 0.5C36.7001 13.9 1.90012 83.4 30.9001 113.9C57.7001 147.4 116.3 115.2 99.3001 73.4C77.8001 37.4 64.3001 35.5 64.4001 0.5Z"
    fill="url(#paint0_linear_3_6933)"
  />
  <path
    fill-rule="evenodd"
    clip-rule="evenodd"
    d="M64.4002 0.200195C36.8002 13.6002 1.90023 82.9002 31.0002 113.5C41.7002 125.9 59.0002 130 68.7002 122.6C95.1002 103.8 76.1002 69.5002 79.1002 44.1002C68.1002 33.9002 64.2002 11.3002 64.4002 0.200195Z"
    fill="url(#paint1_linear_3_6933)"
  />
  <path
    fill-rule="evenodd"
    clip-rule="evenodd"
    d="M56.7001 4.2998C34.4001 20.1998 28.5001 79.2998 32.6001 98.4998C40.8001 146.6 107.8 126.8 102.2 81.9998C96.2001 52.7998 53.4001 42.7998 56.7001 4.2998Z"
    fill="url(#paint2_linear_3_6933)"
  />
  <path
    fill-rule="evenodd"
    clip-rule="evenodd"
    d="M78.7998 49.8004C89.1998 63.2004 91.4998 72.4004 85.5998 77.7004C57.8998 97.1004 24.2998 85.1004 31.5998 40.4004C22.0998 63.0004 4.49982 96.8004 43.2998 101.6C64.0998 105.2 97.2998 103.6 102.2 85.5004C102 69.6004 91.3998 62.6004 78.7998 49.8004Z"
    fill="url(#paint3_linear_3_6933)"
  />
  <path
    fill-rule="evenodd"
    clip-rule="evenodd"
    d="M38.0999 36.4004C35.1999 57.6004 73.1999 114.3 96.3999 107.4C78.6999 143 39.4999 86.2004 32.3999 65.7004C33.8999 54.7004 34.5999 49.3004 38.0999 36.4004Z"
    fill="url(#paint4_linear_3_6933)"
  />
  <path
    fill-rule="evenodd"
    clip-rule="evenodd"
    d="M60.4 49.7C61.2 57.6 64.3 70.2 60.4 78.5C56.5 86.8 38.7 102 43.6 115.3C55 140.1 80.7 110.9 80.5 96.3C81.6 84.5 73.9 57.6 78.7 43.8L76.5 41L62.9 37C60.7 40.2 59.9 44.5 60.4 49.7Z"
    fill="url(#paint5_linear_3_6933)"
  />
  <path
    fill-rule="evenodd"
    clip-rule="evenodd"
    d="M65.2999 10.7998C35.9999 27.3998 47.9999 53.3998 49.2999 81.5998L68.3999 26.1998C66.9999 20.4998 66.0999 16.6998 65.2999 10.7998Z"
    fill="url(#paint6_linear_3_6933)"
  />
  <path
    fill-rule="evenodd"
    clip-rule="evenodd"
    d="M68.3002 26.0996C53.5002 37.7996 54.2002 57.3996 49.7002 80.0996C57.8002 58.7996 53.8002 41.8996 68.3002 26.0996Z"
    fill="#330A4C"
    fill-opacity="0.316"
  />
  <path
    fill-rule="evenodd"
    clip-rule="evenodd"
    d="M45.7998 119.7C53.7998 120.8 57.8998 121.9 58.2998 122.7C58.5998 126.9 47.1998 123.9 45.7998 119.7Z"
    fill="white"
  />
  <path
    fill-rule="evenodd"
    clip-rule="evenodd"
    d="M49.8002 10.7998C42.9002 18.4998 35.4002 32.5998 31.6002 40.4998C30.6002 46.9998 31.1002 56.1998 32.2002 63.9998C33.1002 45.7998 39.7002 24.7998 49.8002 10.7998Z"
    fill="#EDEDED"
    fill-opacity="0.603"
  />
  <defs>
    <linearGradient
      id="paint0_linear_3_6933"
      x1="62.3464"
      y1="9.8888"
      x2="57.9149"
      y2="127.784"
      gradientUnits="userSpaceOnUse"
    >
      <stop stop-color="#D9D8DC" />
      <stop offset="1" stop-color="white" stop-opacity="0.385" />
    </linearGradient>
    <linearGradient
      id="paint1_linear_3_6933"
      x1="60.5644"
      y1="8.01053"
      x2="14.2661"
      y2="109.482"
      gradientUnits="userSpaceOnUse"
    >
      <stop stop-color="#8D67AF" stop-opacity="0.672" />
      <stop offset="1" stop-color="#9F8DAF" />
    </linearGradient>
    <linearGradient
      id="paint2_linear_3_6933"
      x1="66.9611"
      y1="42.6943"
      x2="66.9611"
      y2="124.193"
      gradientUnits="userSpaceOnUse"
    >
      <stop stop-color="#26053D" stop-opacity="0.762" />
      <stop offset="1" stop-color="#B7B4B4" stop-opacity="0.278" />
    </linearGradient>
    <linearGradient
      id="paint3_linear_3_6933"
      x1="36.7065"
      y1="45.0005"
      x2="57.5785"
      y2="100.287"
      gradientUnits="userSpaceOnUse"
    >
      <stop stop-color="#91739F" stop-opacity="0.46" />
      <stop offset="1" stop-color="#32054F" stop-opacity="0.54" />
    </linearGradient>
    <linearGradient
      id="paint4_linear_3_6933"
      x1="83.5094"
      y1="116.063"
      x2="26.3024"
      y2="68.6808"
      gradientUnits="userSpaceOnUse"
    >
      <stop stop-color="#463D49" stop-opacity="0.331" />
      <stop offset="1" stop-color="#340A50" stop-opacity="0.821" />
    </linearGradient>
    <linearGradient
      id="paint5_linear_3_6933"
      x1="69.2485"
      y1="41.8547"
      x2="29.0339"
      y2="103.044"
      gradientUnits="userSpaceOnUse"
    >
      <stop stop-color="#715383" stop-opacity="0.145" />
      <stop offset="1" stop-color="#F4F4F4" stop-opacity="0.234" />
    </linearGradient>
    <linearGradient
      id="paint6_linear_3_6933"
      x1="75.7273"
      y1="56.8888"
      x2="47.7719"
      y2="55.1824"
      gradientUnits="userSpaceOnUse"
    >
      <stop stop-color="#A5A1A8" stop-opacity="0.356" />
      <stop offset="1" stop-color="#370C50" stop-opacity="0.582" />
    </linearGradient>
  </defs>
</svg>
