<svg xmlns="http://www.w3.org/2000/svg" width="128" height="128" fill="none"><path fill="#E44D26" d="M19.037 113.876 9.032 1.661h109.936L108.952 113.86l-45.019 12.48z"/><path fill="#F16529" d="m64 116.8 36.378-10.086 8.559-95.878H64z"/><path fill="#EBEBEB" d="M64 52.455H45.788L44.53 38.361H64V24.6H29.489l.33 3.692L33.2 66.218H64zm0 35.743-.061.017-15.327-4.14-.98-10.975H33.817l1.928 21.61 28.193 7.825.063-.017z"/><path fill="#fff" d="M63.952 52.455v13.763H80.9l-1.597 17.85-15.35 4.142v14.319l28.215-7.82.207-2.325 3.234-36.233.335-3.696zm0-27.856v13.762h33.244l.276-3.092.628-6.978.33-3.692z"/></svg>