<svg xmlns="http://www.w3.org/2000/svg" width="128" height="128" fill="none"><path fill="#0074BD" d="M47.617 98.12s-4.767 2.774 3.397 3.71c9.892 1.13 14.947.968 25.845-1.092 0 0 2.87 1.795 6.873 3.351-24.44 10.47-55.308-.607-36.115-5.969m-2.988-13.665s-5.348 3.96 2.823 4.805c10.567 1.091 18.91 1.18 33.354-1.6 0 0 1.993 2.025 5.132 3.131-29.542 8.64-62.446.68-41.31-6.336"/><path fill="#EA2D2E" d="M69.802 61.271c6.025 6.935-1.58 13.17-1.58 13.17s15.289-7.891 8.269-17.777c-6.559-9.215-11.587-13.792 15.635-29.58 0 .001-42.731 10.67-22.324 34.187"/><path fill="#0074BD" d="M102.123 108.229s3.529 2.91-3.888 5.159c-14.102 4.272-58.706 5.56-71.094.171-4.451-1.938 3.899-4.625 6.526-5.192 2.739-.593 4.303-.485 4.303-.485-4.953-3.487-32.013 6.85-13.743 9.815 49.82 8.076 90.817-3.637 77.896-9.468M49.912 70.294s-22.686 5.389-8.033 7.348c6.188.828 18.518.638 30.01-.326 9.39-.789 18.814-2.474 18.814-2.474s-3.308 1.419-5.704 3.053c-23.042 6.061-67.544 3.238-54.731-2.958 10.832-5.239 19.644-4.643 19.644-4.643m40.697 22.747c23.421-12.167 12.591-23.86 5.032-22.285-1.848.385-2.677.72-2.677.72s.688-1.079 2-1.543c14.953-5.255 26.451 15.503-4.823 23.725 0-.002.359-.327.468-.617"/><path fill="#EA2D2E" d="M76.491 1.587S89.46 14.563 64.188 34.51c-20.266 16.006-4.62 25.13-.007 35.559-11.83-10.673-20.509-20.07-14.688-28.815 8.548-12.834 32.23-19.06 26.998-39.667"/><path fill="#0074BD" d="M52.214 126.021c22.476 1.437 57-.8 57.817-11.436 0 0-1.571 4.032-18.577 7.231-19.186 3.612-42.854 3.191-56.887.874 0 .001 2.875 2.381 17.647 3.331"/></svg>