<svg xmlns="http://www.w3.org/2000/svg" width="194" height="194" fill="none"><path fill="#4971FF" d="M87.051.454C49.153 4.154 17 29.871 4.908 66.084c-5.685 16.966-6.438 35.464-2.226 53.18 6.948 29.176 28.003 54.08 55.765 65.991 21.085 9.024 44.967 10.257 66.894 3.429 32.304-10.046 57.419-36.996 65.149-69.901 2.887-12.272 3.338-26.379 1.233-38.5a96.7 96.7 0 0 0-64.758-75.376C114.452.725 100.286-.87 87.051.454m17.145 7.94c11.85 1.114 23.521 4.543 33.838 9.987 12.181 6.436 23.25 16.091 31.251 27.28 10.557 14.709 16.392 32.335 16.663 50.08l.06 4.182-1.353.511c-2.166.812-3.64 1.504-4.482 2.135-.421.301-1.985.993-3.489 1.504-2.406.873-3.098.963-6.166.993-1.895 0-4-.09-4.662-.241-1.203-.24-4.572-1.624-6.437-2.677-1.113-.601-4.391-1.804-5.895-2.165-3.008-.692-7.099-.722-10.227 0-1.955.451-5.263 1.774-6.467 2.616-.421.301-1.955.963-3.459 1.504-2.526.873-2.977.963-6.617.963-3.609 0-4.12-.09-6.497-.933-1.413-.511-3.128-1.263-3.759-1.654-2.286-1.383-5.174-2.406-8.091-2.827-.782-.12-5.836-.12-6.618 0-2.496.361-6.466 1.714-7.97 2.707-1.955 1.293-2.286 1.263-3.219-.181-.45-.721-.932-1.353-1.052-1.383-.15-.06-.241-.301-.241-.542 0-.24-.12-.42-.27-.42s-.362-.241-.452-.542c-.12-.3-.451-.842-.782-1.203l-.602-.632 1.354-1.293c.752-.722 1.354-1.474 1.354-1.685 0-.18.12-.36.27-.36s.331-.241.451-.542c.09-.27.301-.722.452-.962.541-.903 1.203-2.708 1.473-4.061.241-1.083.241-4.843.03-5.865-.42-1.895-1.263-4.241-1.804-4.903-.301-.421-.572-.842-.572-.932 0-.542-2.707-3.249-4.391-4.422-4.452-3.068-10.979-3.308-16.332-.632-.903.452-2.377 1.595-3.31 2.527-2.195 2.286-2.435 2.557-2.435 2.948 0 .15-.09.3-.241.3-.12 0-.391.452-.602.963-.24.541-.541 1.263-.661 1.594-.24.511-.452 1.414-.812 3.158-.271 1.414-.09 4.753.33 6.467.18.662 1.414 3.52 1.865 4.301.03.06.421.15.903.24.48.091 1.022.212 1.173.242 1.022.21 2.165.691 5.113 2.135 3.008 1.474 3.58 1.715 4.512 1.955.18.03.631.18 1.022.331.993.391 2.707.692 3.79.632.993-.03 1.203.24 3.008 3.729l.962 1.865-1.533-.09c-1.264-.09-3.82-.511-5.144-.872-.902-.271-3.73-1.594-5.414-2.557-2.948-1.684-9.896-3.068-12.182-2.436-.42.12-1.654.39-2.767.601-1.985.361-4.903 1.384-5.715 1.985-.872.692-4.18 2.196-5.835 2.677-2.737.813-7.399.752-10.948-.09-1.113-.271-4.151-1.684-5.444-2.556-.903-.602-3.67-1.625-5.926-2.166-1.564-.361-7.58-.421-9.053-.03-2.617.631-5.926 1.985-7.008 2.827-.452.361-.512.211-.692-1.624-.24-2.136 0-8.091.481-12.603 3.098-28.995 20.152-54.652 45.84-68.969C62.657 13.78 75.08 9.808 86.45 8.575c4.722-.511 13.234-.601 17.746-.18m-23.13 68.97c6.857 3.489 6.857 13.084 0 16.453-1.835.902-2.136.962-4.362.842-2.737-.15-4.331-.933-6.166-2.978-1.594-1.744-2.346-3.61-2.376-5.805-.03-4.241 2.316-7.58 6.377-9.114 1.654-.601 4.692-.33 6.527.602m-58.623 32.544c1.925.452 3.7 1.234 6.106 2.617.752.451 2.436 1.173 3.76 1.624 2.196.783 2.797.843 6.768.873 5.203 0 6.376-.271 11.58-2.858 4.421-2.225 6.316-2.707 10.226-2.707 3.94 0 6.286.602 9.746 2.437 1.533.812 3.82 1.864 5.113 2.316 2.075.722 2.707.782 6.647.812 5.143 0 7.159-.512 11.61-2.888 3.46-1.865 6.557-2.677 10.197-2.677 3.579 0 6.466.752 10.286 2.647 4.783 2.406 6.768 2.918 11.37 2.918 4.782-.03 6.407-.421 11.4-2.858 4.361-2.105 6.677-2.707 10.316-2.707 3.519 0 6.437.752 10.227 2.647 4.722 2.376 6.767 2.918 11.219 2.918 4.692 0 7.068-.572 11.069-2.617 1.594-.842 3.429-1.714 4.09-1.925l1.143-.421-.18 1.444c-.12.782-.421 2.526-.692 3.88l-.481 2.466-3.94 1.955c-4.632 2.316-6.798 2.888-10.859 2.888-3.85 0-5.684-.482-10.377-2.707-5.023-2.377-6.797-2.828-11.279-2.828-4.512 0-6.316.482-11.129 2.828-4.301 2.105-6.617 2.707-10.587 2.737-3.76 0-5.595-.481-10.317-2.737-5.023-2.377-6.798-2.828-11.279-2.828-4.512 0-6.347.482-11.13 2.828-4.571 2.256-6.316 2.707-10.527 2.707-4.27 0-5.925-.451-10.828-2.858-4.331-2.165-7.008-2.857-10.828-2.857-3.79 0-6.497.722-10.828 2.857-4.873 2.407-6.557 2.858-10.828 2.858s-5.925-.451-10.828-2.858c-4.332-2.165-7.008-2.857-10.828-2.857-2.407 0-6.046.631-7.76 1.353l-1.023.421-.481-2.316c-1.023-4.842-1.113-4.361.902-5.263a26 26 0 0 1 3.429-1.233c2.135-.572 7.43-.602 9.805-.031m35.793 16.874c-.09.091-.36.121-.571.03-.24-.09-.15-.18.18-.18.331-.03.512.06.391.15m-35.702 2.407c1.082.24 3.218 1.112 4.782 1.955 1.534.812 3.82 1.864 5.113 2.316 2.076.722 2.707.782 6.648.812 5.203 0 6.376-.271 11.58-2.858 4.421-2.225 6.316-2.707 10.226-2.707 3.94 0 6.286.602 9.746 2.437 1.533.812 3.82 1.864 5.113 2.316 2.075.722 2.707.782 6.647.812 5.174 0 6.828-.421 11.85-2.978 3.7-1.925 6.347-2.587 10.047-2.587 3.489 0 6.407.752 10.166 2.647 4.031 2.015 6.587 2.767 10.076 2.978 4.693.271 7.49-.391 13.054-3.098 3.971-1.925 6.317-2.527 9.956-2.527 3.549 0 6.437.752 10.227 2.647 4.09 2.045 6.587 2.797 10.196 2.978 3.369.18 7.009-.391 9.565-1.474.782-.331 1.504-.541 1.624-.451.091.12-.782 2.135-1.955 4.542l-2.105 4.331-1.534.331c-2.256.481-7.008.421-9.174-.12-.993-.271-3.519-1.294-5.595-2.256-5.023-2.377-6.797-2.828-11.279-2.828-4.512 0-6.316.482-11.129 2.828-4.331 2.135-6.527 2.707-10.497 2.707-3.79 0-5.745-.512-10.407-2.707-5.023-2.377-6.798-2.828-11.279-2.828-4.512 0-6.347.482-11.13 2.828-4.541 2.256-6.316 2.707-10.466 2.707-4.211 0-5.986-.482-10.889-2.888-4.331-2.135-7.008-2.827-10.858-2.827-3.76 0-6.467.722-10.798 2.857-4.843 2.407-6.557 2.858-10.768 2.858-4.24 0-6.016-.482-10.888-2.888-4.361-2.165-6.948-2.827-11.009-2.827h-2.406l-.872-1.895a70 70 0 0 1-1.474-3.429l-.632-1.594.842-.181c.452-.09.963-.21 1.113-.27.903-.301 6.858-.091 8.573.331m17.385 3.338c-.301.06-.842.06-1.203 0-.391-.06-.15-.12.51-.12.663-.03.963.03.693.12m43.312 0c-.3.06-.842.06-1.203 0-.39-.06-.15-.12.511-.12.662-.03.963.03.692.12m86.475 0c-.211.06-.572.06-.752 0-.211-.09-.06-.15.361-.15s.571.06.391.15m-103.92 15.881c1.023.241 3.459 1.264 5.414 2.226 5.053 2.587 6.286 2.888 11.34 2.888 4.992 0 7.068-.512 11.46-2.888 3.458-1.865 6.556-2.677 10.196-2.677 3.579 0 6.466.752 10.286 2.647 4.783 2.406 6.768 2.918 11.37 2.918 4.782-.03 6.407-.421 11.4-2.858 4.301-2.105 6.557-2.707 10.286-2.707 3.549 0 6.437.752 10.227 2.647 3.038 1.534 6.557 2.767 7.79 2.767.391 0 .782.121.872.271.151.211-2.887 4-4.572 5.715-.33.361-.872.18-3.609-1.113-4.451-2.136-6.346-2.587-10.738-2.587-4.481 0-6.286.451-11.129 2.798-4.451 2.165-6.888 2.797-10.677 2.767-3.64 0-5.565-.512-10.227-2.737-5.023-2.377-6.798-2.828-11.279-2.828-4.512 0-6.347.482-11.13 2.828-4.48 2.225-6.616 2.797-10.527 2.797-3.94 0-6.015-.572-10.828-2.948-4.842-2.406-7.52-3.008-12.031-2.767-3.7.211-6.166.932-10.377 3.098-3.97 2.045-6.196 2.617-10.076 2.587-5.835 0-7.85-.872-11.129-4.783-2.436-2.917-5.384-6.737-5.895-7.7-.271-.451-.21-.511.541-.33.451.09 2.617 1.022 4.752 2.075 5.595 2.737 6.678 3.008 11.73 3.008 5.054 0 6.257-.301 11.43-2.858 1.986-.992 4.362-2.015 5.264-2.225 2.196-.572 7.49-.602 9.866-.031m0 19.25c1.805.422 4.512 1.625 6.527 2.858.511.301 1.985.932 3.308 1.383 2.196.783 2.798.843 6.768.873 5.143 0 7.159-.512 11.61-2.888 3.46-1.865 6.557-2.677 10.197-2.677 3.579 0 6.466.752 10.286 2.647 4.783 2.406 6.768 2.918 11.37 2.918 4.722 0 6.437-.451 11.039-2.737 4.571-2.286 7.279-2.918 11.52-2.768 3.91.151 4.421.331 3.428 1.264-.902.812-5.384 4.03-7.188 5.143-.752.451-1.414.933-1.504 1.053s-1.173.571-2.406 1.053c-1.234.451-3.189 1.323-4.362 1.955-3.669 1.955-5.594 2.496-9.625 2.647-4.542.15-6.196-.211-11.279-2.647-5.023-2.407-6.798-2.858-11.279-2.828-4.512 0-6.317.451-11.13 2.828-4.571 2.256-6.316 2.707-10.527 2.707-4.27 0-5.925-.451-10.828-2.858-6.466-3.218-11.58-3.699-17.866-1.744-1.835.571-1.745.601-6.196-2.256-2.046-1.293-2.076-1.354-1.354-1.654.421-.151 2.376-1.083 4.362-2.046 1.985-.992 4.36-1.985 5.263-2.195 2.196-.572 7.49-.602 9.866-.031m27.04 22.89c-.09.09-.36.12-.571.03-.241-.09-.15-.18.18-.18.331-.031.511.06.391.15"/><path fill="#4971FF" d="m51.198 70.747-.692.541v24.905l1.354-.572c1.233-.541 2.286-.842 4.451-1.323l.813-.18v-11.4c0-13.174.24-12.242-3.129-12.422-1.684-.06-2.225.03-2.797.45m48.335-.39-2.857.15-.09 10.076c-.06 9.445-.03 10.197.541 12.122.572 1.805.692 2.015 1.233 1.865 1.143-.361 4.001-.692 5.745-.632l1.715.03-.873-.842c-1.774-1.745-1.804-1.955-1.804-12.633 0-7.46-.09-9.835-.361-10.016-.211-.15-1.685-.21-3.249-.12m18.8-.06c-1.685.06-2.768.21-2.918.45-.12.211-.241 4.693-.241 9.987 0 8.752-.06 9.745-.571 10.858-.632 1.353-2.106 2.677-3.429 2.978-.782.21-.662.3 1.504 1.203a53 53 0 0 1 3.94 1.774c1.504.752 1.654.782 2.166.331.932-.842 2.346-3.85 2.677-5.685.481-2.646.451-21.385-.03-21.716-.211-.15-1.595-.24-3.098-.18m29.747.06c-4.241.12-5.865.27-6.226.571-.452.361-.512 1.594-.512 11.971v11.55l1.594-.18c.873-.12 2.316-.24 3.219-.27l1.654-.091.09-9.053.06-9.084h3.129c2.857 0 3.248.06 4.932.902 2.046 1.053 3.459 2.467 4.392 4.482.782 1.805.842 5.925.06 7.64-1.173 2.617-4.692 5.324-6.918 5.324-1.233 0-.872.24 1.835 1.173 1.293.45 3.158 1.233 4.09 1.744l1.715.933 1.594-1.294c4.061-3.308 5.925-8.903 4.782-14.498-1.112-5.534-5.775-10.316-11.189-11.49-2.316-.51-1.985-.51-8.301-.33m-119.32.21c-.12.09-.21 5.956-.21 13.024v12.843l1.894.903c1.865.902 2.798 1.323 3.369 1.444.18.06 1.053.27 1.985.51 2.136.572 6.106.572 8.332.031.932-.24 2.015-.511 2.406-.602.361-.09.662-.39.692-.661.09-1.715-.12-4.151-.391-4.452-.24-.3-1.805-.39-5.986-.39h-5.684v-11.25c0-9.986-.06-11.28-.482-11.43-.631-.24-5.685-.24-5.925.03m99.649 14.378V99.53h.842c1.083 0 3.579-.691 4.812-1.323l.963-.511V84.974c0-7.008-.09-13.175-.181-13.686l-.18-.932h-6.256z"/></svg>