<svg xmlns="http://www.w3.org/2000/svg" width="200" height="200" fill="none"><g clip-path="url(#a)"><path fill="#777BB3" d="M35.417 0h129.166c4.653-.004 9.26.932 13.559 2.756a35.3 35.3 0 0 1 11.494 7.873 36.4 36.4 0 0 1 7.677 11.79A37.1 37.1 0 0 1 200 36.325v127.35a37.1 37.1 0 0 1-2.687 13.906 36.4 36.4 0 0 1-7.677 11.79 35.3 35.3 0 0 1-11.494 7.873A34.6 34.6 0 0 1 164.583 200H35.417a34.6 34.6 0 0 1-13.559-2.756 35.3 35.3 0 0 1-11.494-7.873 36.4 36.4 0 0 1-7.677-11.79A37.1 37.1 0 0 1 0 163.675V36.325a37.1 37.1 0 0 1 2.687-13.906 36.4 36.4 0 0 1 7.677-11.79 35.3 35.3 0 0 1 11.494-7.873A34.6 34.6 0 0 1 35.417 0"/><path fill="#000" d="M47.18 111.685c4.863 0 8.493-.897 10.79-2.665 2.273-1.75 3.842-4.781 4.665-9.009.767-3.953.475-6.713-.868-8.202-1.373-1.521-4.343-2.293-8.824-2.293H45.17l-4.308 22.169zm-25.418 27.307a1.208 1.208 0 0 1-1.187-1.44l11.418-58.746a1.21 1.21 0 0 1 1.187-.978h24.609c7.733 0 13.49 2.1 17.108 6.242 3.638 4.164 4.761 9.985 3.339 17.3-.579 2.98-1.575 5.748-2.96 8.226-1.385 2.481-3.217 4.776-5.445 6.824-2.666 2.495-5.685 4.305-8.962 5.37-3.226 1.051-7.369 1.584-12.313 1.584h-9.964l-2.846 14.64c-.11.568-.608.978-1.187.978z"/><path fill="#fff" d="M46.168 90.726h6.775c5.41 0 7.288 1.187 7.927 1.894 1.059 1.175 1.259 3.651.578 7.161-.765 3.93-2.183 6.716-4.215 8.281-2.08 1.602-5.463 2.414-10.053 2.414h-4.85zm11.62-14.107H33.18c-1.158 0-2.153.82-2.374 1.956l-11.418 58.747a2.42 2.42 0 0 0 2.374 2.879h12.797c1.158 0 2.153-.82 2.374-1.956l2.655-13.662h8.968c5.071 0 9.34-.553 12.688-1.643 3.443-1.119 6.61-3.015 9.413-5.637 2.319-2.133 4.228-4.527 5.675-7.117s2.488-5.479 3.09-8.586c1.498-7.7.282-13.866-3.614-18.325-3.858-4.417-9.921-6.656-18.02-6.656m-18.392 36.275h7.784q7.74 0 11.528-2.916t5.114-9.736q1.27-6.55-1.157-9.242-2.43-2.693-9.722-2.693h-8.769zm18.393-33.857q11.105 0 16.198 5.829 5.092 5.828 3.062 16.273-.837 4.303-2.828 7.868-1.993 3.565-5.208 6.523-3.832 3.587-8.518 5.11-4.685 1.526-11.939 1.524H37.594l-3.035 15.619H21.762L33.18 79.037z"/><path fill="#000" d="M107.578 123.374a1.21 1.21 0 0 1-1.187-1.44l5.051-25.993c.48-2.472.362-4.246-.334-4.996-.425-.458-1.704-1.227-5.484-1.227h-9.15l-6.35 32.677a1.21 1.21 0 0 1-1.187.979H76.24a1.208 1.208 0 0 1-1.187-1.44l11.418-58.746a1.21 1.21 0 0 1 1.187-.979h12.696a1.207 1.207 0 0 1 1.187 1.44l-2.755 14.179h9.844c7.499 0 12.584 1.322 15.545 4.042 3.019 2.774 3.961 7.211 2.8 13.188l-5.312 27.337a1.21 1.21 0 0 1-1.187.979z"/><path fill="#fff" d="M100.354 61H87.658c-1.158 0-2.153.82-2.374 1.956l-11.418 58.747a2.42 2.42 0 0 0 2.374 2.88h12.697a2.42 2.42 0 0 0 2.374-1.957l6.16-31.7h8.153c3.774 0 4.566.807 4.598.842.229.246.53 1.387.033 3.942l-5.051 25.993a2.417 2.417 0 0 0 2.374 2.88h12.898a2.42 2.42 0 0 0 2.374-1.957l5.312-27.338c1.247-6.417.18-11.23-3.168-14.309-3.196-2.934-8.549-4.36-16.364-4.36h-8.378l2.476-12.74a2.418 2.418 0 0 0-2.374-2.88m0 2.418-3.035 15.619h11.311q10.675 0 14.727 3.723 4.052 3.725 2.431 12.067l-5.312 27.337h-12.898l5.051-25.992q.862-4.436-.635-6.05-1.498-1.613-6.37-1.613H95.477l-6.54 33.655H76.24l11.418-58.746z"/><path fill="#000" d="M147.065 111.685c4.863 0 8.493-.897 10.79-2.665 2.272-1.749 3.842-4.781 4.665-9.009.767-3.953.475-6.713-.869-8.202-1.373-1.521-4.342-2.293-8.824-2.293h-7.771l-4.309 22.169zm-25.418 27.307a1.207 1.207 0 0 1-1.187-1.44l11.418-58.746c.11-.568.608-.978 1.187-.978h24.608c7.734 0 13.491 2.1 17.109 6.242 3.638 4.164 4.761 9.984 3.339 17.3-.58 2.98-1.575 5.748-2.959 8.226-1.387 2.481-3.218 4.776-5.446 6.824-2.667 2.495-5.685 4.305-8.963 5.37-3.225 1.051-7.368 1.584-12.312 1.584h-9.965l-2.845 14.64c-.11.568-.608.978-1.187.978z"/><path fill="#fff" d="M146.053 90.726h6.774c5.41 0 7.289 1.187 7.927 1.894 1.06 1.175 1.26 3.651.579 7.16-.765 3.931-2.184 6.717-4.216 8.282-2.08 1.602-5.463 2.414-10.052 2.414h-4.85zm11.62-14.107h-24.608c-1.158 0-2.153.82-2.374 1.956l-11.418 58.747a2.42 2.42 0 0 0 2.374 2.879h12.797c1.158 0 2.153-.82 2.374-1.956l2.655-13.662h8.968c5.071 0 9.34-.553 12.688-1.643 3.442-1.119 6.61-3.016 9.414-5.638 2.318-2.132 4.227-4.526 5.674-7.116s2.487-5.479 3.091-8.586c1.497-7.7.28-13.866-3.616-18.326-3.858-4.416-9.92-6.655-18.019-6.655m-18.392 36.275h7.784q7.739 0 11.528-2.916 3.788-2.916 5.114-9.736 1.27-6.55-1.158-9.242-2.43-2.693-9.722-2.693h-8.768zm18.392-33.857q11.106 0 16.198 5.829t3.063 16.273q-.837 4.303-2.828 7.868-1.993 3.565-5.208 6.523-3.833 3.587-8.518 5.11-4.685 1.526-11.939 1.524h-10.962l-3.035 15.619h-12.797l11.418-58.746z"/></g><defs><clipPath id="a"><path fill="#fff" d="M0 0h200v200H0z"/></clipPath></defs></svg>