<svg
  width="172"
  height="90"
  viewBox="0 0 172 90"
  fill="none"
  xmlns="http://www.w3.org/2000/svg"
>
  <path
    d="M0 44.9998C0 69.8524 38.3006 89.9998 85.545 89.9998C132.789 89.9998 171.09 69.8524 171.09 44.9998C171.09 20.1476 132.789 -6.10352e-05 85.545 -6.10352e-05C38.3006 -6.10352e-05 0 20.1476 0 44.9998Z"
    fill="url(#paint0_radial_1_808)"
  />
  <path
    d="M85.545 86.6587C130.944 86.6587 167.748 68.0073 167.748 44.9998C167.748 21.9925 130.944 3.34083 85.545 3.34083C40.1459 3.34083 3.34161 21.9925 3.34161 44.9998C3.34161 68.0073 40.1459 86.6587 85.545 86.6587Z"
    fill="#777BB3"
  />
  <path
    d="M46.4775 50.1648C50.2105 50.1648 52.9973 49.4764 54.7606 48.1193C56.5051 46.7762 57.7099 44.4492 58.3414 41.2032C58.9302 38.1691 58.7059 36.0506 57.6749 34.9073C56.6208 33.7396 54.3417 33.1474 50.9011 33.1474H44.9354L41.6281 50.1648H46.4775ZM26.9653 71.1272C26.6884 71.1272 26.4254 71.0034 26.2494 70.7893C26.073 70.5755 26.0015 70.294 26.0544 70.022L34.8193 24.9255C34.9041 24.4896 35.2862 24.1746 35.7305 24.1746H54.6211C60.558 24.1746 64.977 25.7866 67.7545 28.9664C70.5469 32.1629 71.4092 36.6311 70.3173 42.2465C69.873 44.5342 69.1088 46.6589 68.046 48.5612C66.9819 50.4656 65.5757 52.2277 63.8656 53.7995C61.8185 55.7153 59.5017 57.1045 56.9856 57.922C54.5094 58.7286 51.3293 59.1377 47.5338 59.1377H39.8846L37.7002 70.376C37.6154 70.8122 37.2336 71.1272 36.7893 71.1272H26.9653Z"
    fill="black"
  />
  <path
    d="M45.7006 34.0757H50.9011C55.0537 34.0757 56.4962 34.9869 56.9863 35.5299C57.7994 36.4315 57.9528 38.3325 57.4303 41.0271C56.843 44.0438 55.7545 46.1828 54.1945 47.3839C52.5973 48.6135 50.0008 49.2366 46.4775 49.2366H42.7541L45.7006 34.0757ZM54.6211 23.2464H35.7303C34.8417 23.2464 34.0777 23.8763 33.9082 24.7486L25.1433 69.845C25.0375 70.3893 25.1804 70.9521 25.5328 71.38C25.8855 71.8079 26.4109 72.0554 26.9654 72.0554H36.7891C37.678 72.0554 38.4419 71.4255 38.6115 70.5532L40.6499 60.0659H47.5339C51.4268 60.0659 54.7041 59.6414 57.2737 58.8044C59.9163 57.9458 62.3477 56.4901 64.4996 54.4777C66.2793 52.8403 67.7453 51.0024 68.8561 49.0145C69.9671 47.0259 70.7654 44.8084 71.2286 42.4235C72.378 36.5125 71.4443 31.7792 68.4535 28.3559C65.4919 24.9655 60.8378 23.2464 54.6211 23.2464ZM40.502 51.0931H46.4775C50.4383 51.0931 53.3885 50.3471 55.3269 48.8548C57.2657 47.3622 58.5732 44.8712 59.2527 41.3805C59.9027 38.029 59.6066 35.6638 58.3644 34.286C57.1205 32.9083 54.6332 32.2192 50.9011 32.2192H44.1703L40.502 51.0931ZM54.6211 25.1028C60.304 25.1028 64.4498 26.5942 67.0556 29.5772C69.6611 32.5602 70.4458 36.7239 69.4062 42.0695C68.9783 44.2716 68.2546 46.2849 67.2357 48.1088C66.2156 49.934 64.8836 51.603 63.2375 53.1163C61.2759 54.952 59.0967 56.2602 56.6988 57.0393C54.3009 57.8205 51.2467 58.2094 47.5339 58.2094H39.1192L36.7891 70.199H26.9654L35.7303 25.1028H54.6211Z"
    fill="white"
  />
  <path
    d="M92.8418 59.1377C92.5645 59.1377 92.3018 59.0139 92.1258 58.7998C91.9491 58.586 91.8776 58.3048 91.9306 58.0325L95.8077 38.0791C96.1766 36.1815 96.0856 34.8195 95.5519 34.244C95.2251 33.8922 94.2437 33.3022 91.3418 33.3022H84.3176L79.4429 58.3865C79.3581 58.8227 78.976 59.1377 78.5317 59.1377H68.7853C68.5081 59.1377 68.2454 59.0139 68.0691 58.7998C67.8927 58.586 67.8212 58.3045 67.8741 58.0325L76.639 12.936C76.7238 12.5001 77.1059 12.1851 77.5502 12.1851H87.2966C87.5738 12.1851 87.8365 12.3089 88.0128 12.5227C88.1892 12.7368 88.2607 13.018 88.2078 13.2903L86.0927 24.1747H93.649C99.4055 24.1747 103.309 25.1895 105.583 27.2774C107.9 29.4074 108.623 32.813 107.732 37.4009L103.654 58.3865C103.569 58.8227 103.187 59.1377 102.743 59.1377H92.8418Z"
    fill="black"
  />
  <path
    d="M87.2966 11.2566H77.5503C76.6614 11.2566 75.8974 11.8866 75.7279 12.7588L66.963 57.8553C66.8572 58.3995 67.0001 58.9623 67.3528 59.3902C67.7056 59.8181 68.2309 60.0657 68.7854 60.0657H78.5317C79.4203 60.0657 80.1846 59.4357 80.3541 58.5635L85.0828 34.2302H91.3418C94.2388 34.2302 94.8468 34.849 94.8712 34.8756C95.047 35.0646 95.2781 35.9402 94.8966 37.9019L91.0194 57.8553C90.9136 58.3995 91.0565 58.9623 91.4093 59.3902C91.762 59.8181 92.2874 60.0657 92.8418 60.0657H102.743C103.631 60.0657 104.396 59.4357 104.565 58.5635L108.643 37.5779C109.6 32.6519 108.781 28.9566 106.211 26.594C103.758 24.3412 99.6488 23.2462 93.6491 23.2462H87.2183L89.119 13.4674C89.2245 12.9231 89.0819 12.36 88.7292 11.9324C88.3764 11.5045 87.8511 11.2566 87.2966 11.2566ZM87.2966 13.1131L84.9665 25.1026H93.6491C99.1123 25.1026 102.881 26.0562 104.954 27.9609C107.028 29.8669 107.65 32.9551 106.821 37.224L102.743 58.2092H92.8418L96.719 38.2562C97.1602 35.9863 96.9981 34.4381 96.232 33.6126C95.4656 32.7871 93.8353 32.3737 91.3418 32.3737H83.5522L78.5317 58.2092H68.7854L77.5503 13.1131H87.2966Z"
    fill="white"
  />
  <path
    d="M123.153 50.1648C126.886 50.1648 129.673 49.4764 131.437 48.1193C133.181 46.7765 134.386 44.4495 135.018 41.2032C135.606 38.1691 135.382 36.0506 134.351 34.9073C133.297 33.7396 131.018 33.1474 127.577 33.1474H121.611L118.304 50.1648H123.153ZM103.642 71.1272C103.365 71.1272 103.102 71.0034 102.926 70.7893C102.749 70.5755 102.677 70.294 102.73 70.022L111.495 24.9255C111.58 24.4896 111.962 24.1746 112.407 24.1746H131.297C137.234 24.1746 141.653 25.7866 144.431 28.9664C147.223 32.1626 148.085 36.6307 146.994 42.2465C146.549 44.5342 145.785 46.6589 144.722 48.5612C143.658 50.4656 142.252 52.2277 140.541 53.7995C138.494 55.7153 136.178 57.1045 133.662 57.922C131.185 58.7286 128.005 59.1377 124.21 59.1377H116.56L114.377 70.376C114.292 70.8122 113.91 71.1272 113.465 71.1272H103.642Z"
    fill="black"
  />
  <path
    d="M122.377 34.0757H127.577C131.73 34.0757 133.172 34.9869 133.662 35.5299C134.476 36.4315 134.629 38.3325 134.106 41.0268C133.519 44.0438 132.43 46.1828 130.87 47.3839C129.273 48.6135 126.677 49.2366 123.153 49.2366H119.43L122.377 34.0757ZM131.297 23.2464H112.407C111.518 23.2464 110.754 23.8763 110.584 24.7486L101.82 69.845C101.714 70.3893 101.857 70.9521 102.209 71.38C102.562 71.8079 103.087 72.0554 103.642 72.0554H113.465C114.354 72.0554 115.118 71.4255 115.288 70.5532L117.326 60.0659H124.21C128.103 60.0659 131.38 59.6414 133.95 58.8044C136.592 57.9458 139.024 56.4897 141.176 54.4771C142.956 52.84 144.421 51.0024 145.532 49.0145C146.643 47.0259 147.441 44.8084 147.905 42.4235C149.054 36.5122 148.12 31.7789 145.129 28.3556C142.168 24.9655 137.514 23.2464 131.297 23.2464ZM117.178 51.0931H123.153C127.114 51.0931 130.064 50.3471 132.003 48.8548C133.942 47.3622 135.249 44.8712 135.929 41.3805C136.579 38.029 136.283 35.6638 135.04 34.286C133.796 32.9083 131.309 32.2192 127.577 32.2192H120.846L117.178 51.0931ZM131.297 25.1028C136.98 25.1028 141.126 26.5942 143.732 29.5772C146.337 32.5602 147.122 36.7239 146.082 42.0695C145.654 44.2716 144.931 46.2849 143.912 48.1088C142.892 49.934 141.56 51.603 139.913 53.1163C137.952 54.952 135.773 56.2602 133.375 57.0393C130.977 57.8205 127.923 58.2094 124.21 58.2094H115.795L113.465 70.199H103.642L112.407 25.1028H131.297Z"
    fill="white"
  />
  <defs>
    <radialGradient
      id="paint0_radial_1_808"
      cx="0"
      cy="0"
      r="1"
      gradientUnits="userSpaceOnUse"
      gradientTransform="translate(51.3616 15.8205) scale(112.333)"
    >
      <stop stop-color="#AEB2D5" />
      <stop offset="0.3" stop-color="#AEB2D5" />
      <stop offset="0.75" stop-color="#484C89" />
      <stop offset="1" stop-color="#484C89" />
    </radialGradient>
  </defs>
</svg>
