<svg xmlns="http://www.w3.org/2000/svg" width="138" height="136" fill="none"><path fill="url(#a)" d="M68.718 0C34.052 0 36.217 15.034 36.217 15.034l.038 15.574h33.082v4.677H23.115S.932 32.769.932 67.748s19.362 33.738 19.362 33.738h11.555V85.255s-.622-19.362 19.053-19.362h32.811s18.435.298 18.435-17.816V18.125S104.947 0 68.718 0m-18.24 10.473a5.946 5.946 0 0 1 5.95 5.952 5.946 5.946 0 0 1-5.95 5.951 5.946 5.946 0 0 1-5.953-5.951 5.946 5.946 0 0 1 5.952-5.952"/><path fill="url(#b)" d="M69.703 135.846c34.667 0 32.502-15.033 32.502-15.033l-.039-15.575H69.085v-4.676h46.221s22.183 2.516 22.183-32.463-19.362-33.74-19.362-33.74h-11.555v16.233s.623 19.362-19.053 19.362H54.708s-18.435-.298-18.435 17.816v29.951s-2.799 18.125 33.43 18.125m18.241-10.473a5.946 5.946 0 0 1-5.951-5.952 5.946 5.946 0 0 1 5.951-5.951 5.946 5.946 0 0 1 5.952 5.951 5.946 5.946 0 0 1-5.952 5.952"/><defs><linearGradient id="a" x1="14.055" x2="81.579" y1="11.874" y2="79.624" gradientUnits="userSpaceOnUse"><stop stop-color="#387EB8"/><stop offset="1" stop-color="#366994"/></linearGradient><linearGradient id="b" x1="55.593" x2="128.113" y1="54.973" y2="124.452" gradientUnits="userSpaceOnUse"><stop stop-color="#FFE052"/><stop offset="1" stop-color="#FFC331"/></linearGradient></defs></svg>