<svg
  width="140"
  height="140"
  viewBox="0 0 140 140"
  fill="none"
  xmlns="http://www.w3.org/2000/svg"
>
  <path
    fill-rule="evenodd"
    clip-rule="evenodd"
    d="M108.493 92.112L28.6363 139.531L132.036 132.514L140 28.2517L108.493 92.112Z"
    fill="url(#paint0_linear_1_735)"
  />
  <path
    fill-rule="evenodd"
    clip-rule="evenodd"
    d="M132.206 132.443L123.318 71.103L99.1106 103.068L132.206 132.443Z"
    fill="url(#paint1_linear_1_735)"
  />
  <path
    fill-rule="evenodd"
    clip-rule="evenodd"
    d="M132.326 132.443L67.2165 127.332L28.9822 139.397L132.326 132.443Z"
    fill="url(#paint2_linear_1_735)"
  />
  <path
    fill-rule="evenodd"
    clip-rule="evenodd"
    d="M29.074 139.411L45.3391 86.1257L9.54736 93.7789L29.074 139.411Z"
    fill="url(#paint3_linear_1_735)"
  />
  <path
    fill-rule="evenodd"
    clip-rule="evenodd"
    d="M99.1043 103.245L84.1381 44.623L41.3081 84.7705L99.1043 103.245Z"
    fill="url(#paint4_linear_1_735)"
  />
  <path
    fill-rule="evenodd"
    clip-rule="evenodd"
    d="M136.604 45.4488L96.1181 12.3821L84.8441 48.8303L136.604 45.4488Z"
    fill="url(#paint5_linear_1_735)"
  />
  <path
    fill-rule="evenodd"
    clip-rule="evenodd"
    d="M117.671 0.592747L93.8591 13.7517L78.8364 0.41626L117.671 0.592747Z"
    fill="url(#paint6_linear_1_735)"
  />
  <path
    fill-rule="evenodd"
    clip-rule="evenodd"
    d="M0.130005 111.653L10.1051 93.4605L2.03607 71.7878L0.130005 111.653Z"
    fill="url(#paint7_linear_1_735)"
  />
  <path
    fill-rule="evenodd"
    clip-rule="evenodd"
    d="M1.49954 71.103L9.61797 94.1311L44.8943 86.2167L85.1688 48.7872L96.5346 12.6856L78.6381 0.0490723L48.2116 11.4361C38.6255 20.3522 20.0237 37.9939 19.353 38.3257C18.6894 38.6646 7.06949 60.6267 1.49954 71.103Z"
    fill="white"
  />
  <path
    fill-rule="evenodd"
    clip-rule="evenodd"
    d="M30.0058 29.7342C50.782 9.13456 77.5657 -3.03603 87.8444 7.33438C98.1167 17.7048 87.2231 42.9072 66.447 63.4998C45.6709 84.0924 19.2189 96.9336 8.94734 86.5632C-1.33131 76.1999 9.22972 50.3268 30.0058 29.7342Z"
    fill="url(#paint8_linear_1_735)"
  />
  <path
    fill-rule="evenodd"
    clip-rule="evenodd"
    d="M29.074 139.39L45.212 85.9353L98.8078 103.153C79.4294 121.325 57.8768 136.686 29.074 139.39Z"
    fill="url(#paint9_linear_1_735)"
  />
  <path
    fill-rule="evenodd"
    clip-rule="evenodd"
    d="M85.2394 48.6821L98.9984 103.181C115.186 86.161 129.714 67.8628 136.83 45.23L85.2394 48.6821Z"
    fill="url(#paint10_linear_1_735)"
  />
  <path
    fill-rule="evenodd"
    clip-rule="evenodd"
    d="M136.689 45.5052C142.195 28.8871 143.466 5.04716 117.501 0.62085L96.195 12.389L136.689 45.5052Z"
    fill="url(#paint11_linear_1_735)"
  />
  <path
    fill-rule="evenodd"
    clip-rule="evenodd"
    d="M0.130005 111.413C0.892431 138.84 20.6802 139.248 29.1093 139.489L9.63916 94.0181L0.130005 111.413Z"
    fill="#9E1209"
  />
  <path
    fill-rule="evenodd"
    clip-rule="evenodd"
    d="M85.3163 48.7667C97.7552 56.4121 122.824 71.7665 123.332 72.0489C124.122 72.4937 134.141 55.1555 136.414 45.3569L85.3163 48.7667Z"
    fill="url(#paint12_radial_1_735)"
  />
  <path
    fill-rule="evenodd"
    clip-rule="evenodd"
    d="M45.1908 85.9353L66.7647 127.558C79.5212 120.64 89.5104 112.211 98.6595 103.182L45.1908 85.9353Z"
    fill="url(#paint13_radial_1_735)"
  />
  <path
    fill-rule="evenodd"
    clip-rule="evenodd"
    d="M9.55445 94.0748L6.49768 130.474C12.2653 138.352 20.2002 139.037 28.5233 138.423C22.5016 123.435 10.4722 93.4676 9.55445 94.0748Z"
    fill="url(#paint14_linear_1_735)"
  />
  <path
    fill-rule="evenodd"
    clip-rule="evenodd"
    d="M96.0687 12.481L138.927 18.4957C136.64 8.80298 129.615 2.54826 117.643 0.592773L96.0687 12.481Z"
    fill="url(#paint15_linear_1_735)"
  />
  <defs>
    <linearGradient
      id="paint0_linear_1_735"
      x1="123.017"
      y1="152.216"
      x2="93.5105"
      y2="100.12"
      gradientUnits="userSpaceOnUse"
    >
      <stop stop-color="#FB7655" />
      <stop offset="0.41" stop-color="#E42B1E" />
      <stop offset="0.99" stop-color="#990000" />
      <stop offset="1" stop-color="#990000" />
    </linearGradient>
    <linearGradient
      id="paint1_linear_1_735"
      x1="137.716"
      y1="108.453"
      x2="99.6885"
      y2="82.9343"
      gradientUnits="userSpaceOnUse"
    >
      <stop stop-color="#871101" />
      <stop offset="0.99" stop-color="#911209" />
      <stop offset="1" stop-color="#911209" />
    </linearGradient>
    <linearGradient
      id="paint2_linear_1_735"
      x1="107.29"
      y1="153.795"
      x2="69.2635"
      y2="128.277"
      gradientUnits="userSpaceOnUse"
    >
      <stop stop-color="#871101" />
      <stop offset="0.99" stop-color="#911209" />
      <stop offset="1" stop-color="#911209" />
    </linearGradient>
    <linearGradient
      id="paint3_linear_1_735"
      x1="27.4477"
      y1="89.9806"
      x2="33.3428"
      y2="128.293"
      gradientUnits="userSpaceOnUse"
    >
      <stop stop-color="white" />
      <stop offset="0.23" stop-color="#E57252" />
      <stop offset="0.46" stop-color="#DE3B20" />
      <stop offset="0.99" stop-color="#A60003" />
      <stop offset="1" stop-color="#A60003" />
    </linearGradient>
    <linearGradient
      id="paint4_linear_1_735"
      x1="67.995"
      y1="54.2065"
      x2="70.1671"
      y2="93.3069"
      gradientUnits="userSpaceOnUse"
    >
      <stop stop-color="white" />
      <stop offset="0.23" stop-color="#E4714E" />
      <stop offset="0.56" stop-color="#BE1A0D" />
      <stop offset="0.99" stop-color="#A80D00" />
      <stop offset="1" stop-color="#A80D00" />
    </linearGradient>
    <linearGradient
      id="paint5_linear_1_735"
      x1="103.977"
      y1="18.0657"
      x2="110.48"
      y2="46.0885"
      gradientUnits="userSpaceOnUse"
    >
      <stop stop-color="white" />
      <stop offset="0.18" stop-color="#E46342" />
      <stop offset="0.4" stop-color="#C82410" />
      <stop offset="0.99" stop-color="#A80D00" />
      <stop offset="1" stop-color="#A80D00" />
    </linearGradient>
    <linearGradient
      id="paint6_linear_1_735"
      x1="84.1212"
      y1="8.19689"
      x2="112.142"
      y2="-5.81361"
      gradientUnits="userSpaceOnUse"
    >
      <stop stop-color="white" />
      <stop offset="0.54" stop-color="#C81F11" />
      <stop offset="0.99" stop-color="#BF0905" />
      <stop offset="1" stop-color="#BF0905" />
    </linearGradient>
    <linearGradient
      id="paint7_linear_1_735"
      x1="2.88554"
      y1="80.2132"
      x2="5.19181"
      y2="103.303"
      gradientUnits="userSpaceOnUse"
    >
      <stop stop-color="white" />
      <stop offset="0.31" stop-color="#DE4024" />
      <stop offset="0.99" stop-color="#BF190B" />
      <stop offset="1" stop-color="#BF190B" />
    </linearGradient>
    <linearGradient
      id="paint8_linear_1_735"
      x1="-12.9694"
      y1="109.545"
      x2="95.4441"
      y2="-1.93425"
      gradientUnits="userSpaceOnUse"
    >
      <stop stop-color="#BD0012" />
      <stop offset="0.07" stop-color="white" />
      <stop offset="0.17" stop-color="white" />
      <stop offset="0.27" stop-color="#C82F1C" />
      <stop offset="0.33" stop-color="#820C01" />
      <stop offset="0.46" stop-color="#A31601" />
      <stop offset="0.72" stop-color="#B31301" />
      <stop offset="0.99" stop-color="#E82609" />
      <stop offset="1" stop-color="#E82609" />
    </linearGradient>
    <linearGradient
      id="paint9_linear_1_735"
      x1="70.0718"
      y1="120.79"
      x2="37.4167"
      y2="112.731"
      gradientUnits="userSpaceOnUse"
    >
      <stop stop-color="#8C0C01" />
      <stop offset="0.54" stop-color="#990C00" />
      <stop offset="0.99" stop-color="#A80D0E" />
      <stop offset="1" stop-color="#A80D0E" />
    </linearGradient>
    <linearGradient
      id="paint10_linear_1_735"
      x1="126.16"
      y1="81.5967"
      x2="97.1507"
      y2="55.5962"
      gradientUnits="userSpaceOnUse"
    >
      <stop stop-color="#7E110B" />
      <stop offset="0.99" stop-color="#9E0C00" />
      <stop offset="1" stop-color="#9E0C00" />
    </linearGradient>
    <linearGradient
      id="paint11_linear_1_735"
      x1="136.819"
      y1="33.8902"
      x2="122.368"
      y2="18.4417"
      gradientUnits="userSpaceOnUse"
    >
      <stop stop-color="#79130D" />
      <stop offset="0.99" stop-color="#9E120B" />
      <stop offset="1" stop-color="#9E120B" />
    </linearGradient>
    <radialGradient
      id="paint12_radial_1_735"
      cx="0"
      cy="0"
      r="1"
      gradientUnits="userSpaceOnUse"
      gradientTransform="translate(101.668 56.0932) scale(35.55 35.55)"
    >
      <stop stop-color="#A80D00" />
      <stop offset="0.99" stop-color="#7E0E08" />
      <stop offset="1" stop-color="#7E0E08" />
    </radialGradient>
    <radialGradient
      id="paint13_radial_1_735"
      cx="0"
      cy="0"
      r="1"
      gradientUnits="userSpaceOnUse"
      gradientTransform="translate(52.4355 102.942) scale(47.2589 47.2589)"
    >
      <stop stop-color="#A30C00" />
      <stop offset="0.99" stop-color="#800E08" />
      <stop offset="1" stop-color="#800E08" />
    </radialGradient>
    <linearGradient
      id="paint14_linear_1_735"
      x1="18.9576"
      y1="139.359"
      x2="7.18154"
      y2="99.4061"
      gradientUnits="userSpaceOnUse"
    >
      <stop stop-color="#8B2114" />
      <stop offset="0.43" stop-color="#9E100A" />
      <stop offset="0.99" stop-color="#B3100C" />
      <stop offset="1" stop-color="#B3100C" />
    </linearGradient>
    <linearGradient
      id="paint15_linear_1_735"
      x1="109.299"
      y1="6.96602"
      x2="135.7"
      y2="18.6199"
      gradientUnits="userSpaceOnUse"
    >
      <stop stop-color="#B31000" />
      <stop offset="0.44" stop-color="#910F08" />
      <stop offset="0.99" stop-color="#791C12" />
      <stop offset="1" stop-color="#791C12" />
    </linearGradient>
  </defs>
</svg>
