<svg
  width="1025"
  height="150"
  viewBox="0 0 1025 150"
  fill="none"
  xmlns="http://www.w3.org/2000/svg"
>
  <rect width="1025" height="150" fill="#0D0D0D" />
  <path
    d="M369.786 112C369.342 112 368.897 111.858 368.526 111.566C367.76 110.96 367.531 109.901 367.975 109.038L384.832 77.8369H360.049C359.2 77.8369 357.911 77.6856 357.306 76.3874C356.75 75.2015 357.028 74.0741 357.535 72.9565L375.071 29.0325C375.452 28.7056 408.757 30.9506 409.235 30.9506C409.675 30.9506 410.124 31.0921 410.49 31.3849C411.256 31.9901 411.485 33.0491 411.036 33.9179L392.407 63.2005H416.966C417.815 63.2005 418.572 63.7276 418.874 64.5231C419.167 65.3186 418.938 66.2166 418.294 66.773L371.118 111.507C370.732 111.834 370.259 112 369.786 112Z"
    fill="#00E3A5"
  />
  <g filter="url(#filter0_f_145_425)">
    <path
      d="M369.786 112C369.342 112 368.897 111.858 368.526 111.566C367.76 110.96 367.531 109.901 367.975 109.038L384.832 77.8369H360.049C359.2 77.8369 357.911 77.6856 357.306 76.3874C356.75 75.2015 357.028 74.0741 357.535 72.9565L375.071 29.0325C375.452 28.7056 408.757 30.9506 409.235 30.9506C409.675 30.9506 410.124 31.0921 410.49 31.3849C411.256 31.9901 411.485 33.0491 411.036 33.9179L392.407 63.2005H416.966C417.815 63.2005 418.572 63.7276 418.874 64.5231C419.167 65.3186 418.938 66.2166 418.294 66.773L371.118 111.507C370.732 111.834 370.259 112 369.786 112Z"
      fill="#00E3A5"
    />
  </g>
  <path
    d="M452 87V62.6H444.44V57.2H465.64V62.6H458.2V87H452ZM475.978 87.48C473.658 87.48 471.644 86.9733 469.938 85.96C468.231 84.92 466.911 83.5333 465.978 81.8C465.044 80.0667 464.578 78.1467 464.578 76.04C464.578 73.8533 465.058 71.9067 466.018 70.2C467.004 68.4933 468.324 67.1467 469.978 66.16C471.631 65.1733 473.498 64.68 475.578 64.68C477.311 64.68 478.844 64.96 480.178 65.52C481.511 66.0533 482.631 66.8133 483.538 67.8C484.471 68.7867 485.178 69.9333 485.658 71.24C486.138 72.52 486.378 73.92 486.378 75.44C486.378 75.8667 486.351 76.2933 486.298 76.72C486.271 77.12 486.204 77.4667 486.098 77.76H469.738V73.36H482.698L479.858 75.44C480.124 74.2933 480.111 73.28 479.818 72.4C479.524 71.4933 479.004 70.7867 478.258 70.28C477.538 69.7467 476.644 69.48 475.578 69.48C474.538 69.48 473.644 69.7333 472.898 70.24C472.151 70.7467 471.591 71.4933 471.218 72.48C470.844 73.4667 470.698 74.6667 470.778 76.08C470.671 77.3067 470.818 78.3867 471.218 79.32C471.618 80.2533 472.231 80.9867 473.058 81.52C473.884 82.0267 474.884 82.28 476.058 82.28C477.124 82.28 478.031 82.0667 478.778 81.64C479.551 81.2133 480.151 80.6267 480.578 79.88L485.378 82.16C484.951 83.2267 484.271 84.16 483.338 84.96C482.431 85.76 481.351 86.3867 480.098 86.84C478.844 87.2667 477.471 87.48 475.978 87.48ZM500.631 87.48C498.444 87.48 496.471 86.9867 494.711 86C492.978 84.9867 491.591 83.6133 490.551 81.88C489.538 80.1467 489.031 78.2 489.031 76.04C489.031 73.88 489.538 71.9467 490.551 70.24C491.564 68.5067 492.951 67.1467 494.711 66.16C496.471 65.1733 498.444 64.68 500.631 64.68C502.258 64.68 503.764 64.96 505.151 65.52C506.538 66.08 507.724 66.8667 508.711 67.88C509.698 68.8667 510.404 70.04 510.831 71.4L505.631 73.64C505.258 72.5467 504.618 71.68 503.711 71.04C502.831 70.4 501.804 70.08 500.631 70.08C499.591 70.08 498.658 70.3333 497.831 70.84C497.031 71.3467 496.391 72.0533 495.911 72.96C495.458 73.8667 495.231 74.9067 495.231 76.08C495.231 77.2533 495.458 78.2933 495.911 79.2C496.391 80.1067 497.031 80.8133 497.831 81.32C498.658 81.8267 499.591 82.08 500.631 82.08C501.831 82.08 502.871 81.76 503.751 81.12C504.631 80.48 505.258 79.6133 505.631 78.52L510.831 80.8C510.431 82.08 509.738 83.2267 508.751 84.24C507.764 85.2533 506.578 86.0533 505.191 86.64C503.804 87.2 502.284 87.48 500.631 87.48ZM514.364 87V56.72H520.364V69.48L519.644 68.52C520.151 67.2133 520.964 66.2533 522.084 65.64C523.231 65 524.564 64.68 526.084 64.68C527.737 64.68 529.177 65.0267 530.404 65.72C531.657 66.4133 532.631 67.3867 533.324 68.64C534.017 69.8667 534.364 71.3067 534.364 72.96V87H528.364V74.24C528.364 73.3867 528.191 72.6533 527.844 72.04C527.524 71.4267 527.057 70.9467 526.444 70.6C525.857 70.2533 525.164 70.08 524.364 70.08C523.591 70.08 522.897 70.2533 522.284 70.6C521.671 70.9467 521.191 71.4267 520.844 72.04C520.524 72.6533 520.364 73.3867 520.364 74.24V87H514.364ZM549.589 87.48C547.723 87.48 545.963 87.1467 544.309 86.48C542.683 85.7867 541.269 84.8133 540.069 83.56C538.896 82.3067 538.016 80.8267 537.429 79.12L542.509 76.84C543.256 78.4667 544.283 79.7467 545.589 80.68C546.923 81.6133 548.389 82.08 549.989 82.08C550.843 82.08 551.576 81.9467 552.189 81.68C552.803 81.4133 553.283 81.0533 553.629 80.6C553.976 80.12 554.149 79.56 554.149 78.92C554.149 78.2267 553.936 77.64 553.509 77.16C553.083 76.6533 552.416 76.2533 551.509 75.96L545.669 74.04C543.296 73.2667 541.509 72.1733 540.309 70.76C539.109 69.32 538.509 67.6 538.509 65.6C538.509 63.84 538.936 62.2933 539.789 60.96C540.669 59.6267 541.883 58.5867 543.429 57.84C545.003 57.0933 546.803 56.72 548.829 56.72C550.616 56.72 552.269 57.0267 553.789 57.64C555.309 58.2533 556.616 59.12 557.709 60.24C558.829 61.36 559.669 62.7067 560.229 64.28L555.189 66.56C554.629 65.1733 553.789 64.0933 552.669 63.32C551.549 62.52 550.269 62.12 548.829 62.12C548.003 62.12 547.269 62.2533 546.629 62.52C545.989 62.7867 545.496 63.1733 545.149 63.68C544.803 64.16 544.629 64.72 544.629 65.36C544.629 66.0533 544.856 66.6667 545.309 67.2C545.763 67.7067 546.443 68.1067 547.349 68.4L553.069 70.24C555.469 71.0133 557.256 72.0933 558.429 73.48C559.629 74.8667 560.229 76.56 560.229 78.56C560.229 80.2933 559.776 81.84 558.869 83.2C557.963 84.5333 556.709 85.5867 555.109 86.36C553.536 87.1067 551.696 87.48 549.589 87.48ZM574.928 87.48C572.741 87.48 570.768 86.9867 569.008 86C567.274 84.9867 565.888 83.6133 564.848 81.88C563.834 80.1467 563.328 78.2 563.328 76.04C563.328 73.88 563.834 71.9467 564.848 70.24C565.861 68.5067 567.248 67.1467 569.008 66.16C570.768 65.1733 572.741 64.68 574.928 64.68C576.554 64.68 578.061 64.96 579.448 65.52C580.834 66.08 582.021 66.8667 583.008 67.88C583.994 68.8667 584.701 70.04 585.128 71.4L579.928 73.64C579.554 72.5467 578.914 71.68 578.008 71.04C577.128 70.4 576.101 70.08 574.928 70.08C573.888 70.08 572.954 70.3333 572.128 70.84C571.328 71.3467 570.688 72.0533 570.208 72.96C569.754 73.8667 569.528 74.9067 569.528 76.08C569.528 77.2533 569.754 78.2933 570.208 79.2C570.688 80.1067 571.328 80.8133 572.128 81.32C572.954 81.8267 573.888 82.08 574.928 82.08C576.128 82.08 577.168 81.76 578.048 81.12C578.928 80.48 579.554 79.6133 579.928 78.52L585.128 80.8C584.728 82.08 584.034 83.2267 583.048 84.24C582.061 85.2533 580.874 86.0533 579.488 86.64C578.101 87.2 576.581 87.48 574.928 87.48ZM588.661 87V56.72H594.661V69.48L593.941 68.52C594.448 67.2133 595.261 66.2533 596.381 65.64C597.528 65 598.861 64.68 600.381 64.68C602.034 64.68 603.474 65.0267 604.701 65.72C605.954 66.4133 606.928 67.3867 607.621 68.64C608.314 69.8667 608.661 71.3067 608.661 72.96V87H602.661V74.24C602.661 73.3867 602.488 72.6533 602.141 72.04C601.821 71.4267 601.354 70.9467 600.741 70.6C600.154 70.2533 599.461 70.08 598.661 70.08C597.888 70.08 597.194 70.2533 596.581 70.6C595.968 70.9467 595.488 71.4267 595.141 72.04C594.821 72.6533 594.661 73.3867 594.661 74.24V87H588.661ZM623.446 87.48C621.286 87.48 619.313 86.9867 617.526 86C615.766 85.0133 614.353 83.6667 613.286 81.96C612.246 80.2267 611.726 78.2667 611.726 76.08C611.726 73.8667 612.246 71.9067 613.286 70.2C614.353 68.4933 615.766 67.1467 617.526 66.16C619.313 65.1733 621.286 64.68 623.446 64.68C625.606 64.68 627.566 65.1733 629.326 66.16C631.086 67.1467 632.486 68.4933 633.526 70.2C634.593 71.9067 635.126 73.8667 635.126 76.08C635.126 78.2667 634.593 80.2267 633.526 81.96C632.486 83.6667 631.086 85.0133 629.326 86C627.566 86.9867 625.606 87.48 623.446 87.48ZM623.446 82.08C624.54 82.08 625.486 81.8267 626.286 81.32C627.113 80.8133 627.753 80.1067 628.206 79.2C628.686 78.2933 628.926 77.2533 628.926 76.08C628.926 74.9067 628.686 73.88 628.206 73C627.753 72.0933 627.113 71.3867 626.286 70.88C625.486 70.3467 624.54 70.08 623.446 70.08C622.353 70.08 621.393 70.3467 620.566 70.88C619.74 71.3867 619.086 72.0933 618.606 73C618.153 73.88 617.926 74.9067 617.926 76.08C617.926 77.2533 618.153 78.2933 618.606 79.2C619.086 80.1067 619.74 80.8133 620.566 81.32C621.393 81.8267 622.353 82.08 623.446 82.08ZM649.501 87.48C647.341 87.48 645.368 86.9867 643.581 86C641.821 85.0133 640.408 83.6667 639.341 81.96C638.301 80.2267 637.781 78.2667 637.781 76.08C637.781 73.8667 638.301 71.9067 639.341 70.2C640.408 68.4933 641.821 67.1467 643.581 66.16C645.368 65.1733 647.341 64.68 649.501 64.68C651.661 64.68 653.621 65.1733 655.381 66.16C657.141 67.1467 658.541 68.4933 659.581 70.2C660.648 71.9067 661.181 73.8667 661.181 76.08C661.181 78.2667 660.648 80.2267 659.581 81.96C658.541 83.6667 657.141 85.0133 655.381 86C653.621 86.9867 651.661 87.48 649.501 87.48ZM649.501 82.08C650.594 82.08 651.541 81.8267 652.341 81.32C653.168 80.8133 653.808 80.1067 654.261 79.2C654.741 78.2933 654.981 77.2533 654.981 76.08C654.981 74.9067 654.741 73.88 654.261 73C653.808 72.0933 653.168 71.3867 652.341 70.88C651.541 70.3467 650.594 70.08 649.501 70.08C648.408 70.08 647.448 70.3467 646.621 70.88C645.794 71.3867 645.141 72.0933 644.661 73C644.208 73.88 643.981 74.9067 643.981 76.08C643.981 77.2533 644.208 78.2933 644.661 79.2C645.141 80.1067 645.794 80.8133 646.621 81.32C647.448 81.8267 648.408 82.08 649.501 82.08ZM664.716 87V56.72H670.716V87H664.716Z"
    fill="white"
  />
  <defs>
    <filter
      id="filter0_f_145_425"
      x="352"
      y="24"
      width="72"
      height="93"
      filterUnits="userSpaceOnUse"
      color-interpolation-filters="sRGB"
    >
      <feFlood flood-opacity="0" result="BackgroundImageFix" />
      <feBlend
        mode="normal"
        in="SourceGraphic"
        in2="BackgroundImageFix"
        result="shape"
      />
      <feGaussianBlur
        stdDeviation="2.5"
        result="effect1_foregroundBlur_145_425"
      />
    </filter>
  </defs>
</svg>
