<svg xmlns="http://www.w3.org/2000/svg" width="128" height="128" fill="none"><path fill="#fff" d="M114.906 84.145s-.172-1.04-.27-1.028l-18.823 1.817a3.06 3.06 0 0 0-2.77 2.84l-.516 7.413-14.566 1.04-.988-6.72a3.09 3.09 0 0 0-3.04-2.62H54.067a3.09 3.09 0 0 0-3.039 2.62l-.988 6.72-14.566-1.04-.516-7.414a3.06 3.06 0 0 0-2.77-2.84l-18.835-1.816c-.094-.012-.168 1.028-.266 1.028l-.024 4.074 15.954 2.574.52 7.477a3.085 3.085 0 0 0 2.843 2.847l20.059 1.434q.116.007.226.008a3.09 3.09 0 0 0 3.031-2.621l1.02-6.915h14.57l1.02 6.915a3.09 3.09 0 0 0 3.254 2.613l20.062-1.434a3.084 3.084 0 0 0 2.844-2.847l.52-7.477 15.945-2.586z"/><path fill="#478CBF" d="M13.086 53.422v30.723q.087 0 .168.007L32.09 85.97a2.03 2.03 0 0 1 1.828 1.875l.582 8.316 16.426 1.172 1.133-7.672a2.03 2.03 0 0 1 2.007-1.734h19.868a2.03 2.03 0 0 1 2.007 1.734l1.133 7.672 16.43-1.172.578-8.316a2.03 2.03 0 0 1 1.828-1.875l18.828-1.817q.082-.007.168-.007V81.69h.008V53.42c2.652-3.335 5.16-7.02 7.086-10.116-2.941-5.008-6.543-9.48-10.395-13.625a102 102 0 0 0-10.316 6.004c-1.64-1.633-3.484-2.965-5.3-4.36-1.782-1.43-3.79-2.48-5.696-3.703.566-4.223.848-8.38.96-12.72-4.913-2.475-10.155-4.112-15.456-5.292-2.117 3.559-4.055 7.41-5.738 11.176-2-.332-4.008-.457-6.02-.48V20.3c-.016 0-.027.004-.039.004q-.016-.002-.04-.004v.004c-2.01.023-4.019.148-6.019.48-1.683-3.765-3.62-7.617-5.738-11.176-5.3 1.18-10.543 2.817-15.457 5.293.113 4.34.395 8.496.961 12.72-1.906 1.222-3.914 2.273-5.695 3.702-1.813 1.395-3.66 2.727-5.301 4.36a102 102 0 0 0-10.316-6.004C12.543 33.824 8.94 38.297 6 43.305c2.313 3.629 4.793 7.273 7.086 10.117"/><path fill="#478CBF" d="m98.008 89.84-.582 8.36a2.024 2.024 0 0 1-1.88 1.878l-20.062 1.434c-.046.004-.097.004-.144.004-.996 0-1.86-.73-2.004-1.73l-1.152-7.806H55.816l-1.152 7.805a2.025 2.025 0 0 1-2.148 1.727l-20.063-1.434a2.025 2.025 0 0 1-1.879-1.879l-.582-8.36-16.937-1.632c.008 1.82.03 3.816.03 4.211 0 17.887 22.692 26.484 50.88 26.582h.07c28.188-.098 50.871-8.695 50.871-26.582 0-.402.024-2.39.031-4.211z"/><path fill="#fff" d="M48.652 65.895c0 6.27-5.082 11.35-11.35 11.35s-11.349-5.081-11.349-11.35c0-6.266 5.082-11.344 11.348-11.344 6.27 0 11.351 5.078 11.351 11.344"/><path fill="#414042" d="M45.922 66.566a7.53 7.53 0 0 1-7.535 7.532 7.534 7.534 0 0 1-7.535-7.532 7.534 7.534 0 0 1 10.418-6.958 7.53 7.53 0 0 1 4.652 6.958"/><path fill="#fff" d="M64 78.277c-2.02 0-3.652-1.488-3.652-3.32v-10.45c0-1.831 1.632-3.32 3.652-3.32 2.016 0 3.656 1.489 3.656 3.32v10.45c0 1.832-1.64 3.32-3.656 3.32m15.348-12.382c0 6.27 5.082 11.35 11.351 11.35 6.266 0 11.348-5.081 11.348-11.35 0-6.266-5.082-11.344-11.348-11.344-6.27 0-11.35 5.078-11.35 11.344"/><path fill="#414042" d="M82.078 66.566a7.532 7.532 0 1 0 15.062.003 7.532 7.532 0 0 0-15.06-.003"/></svg>