<svg xmlns="http://www.w3.org/2000/svg" width="128" height="128" fill="none"><path fill="#F05323" fill-rule="evenodd" d="M27.216 20.304c.864.38 1.807.322 2.71.432 6.884.834 12.467 4.156 17.314 8.928 3.96 3.899 7.384 8.27 11.01 12.462 2.97 3.434 6.153 6.628 10.013 9.075 4.074 2.579 8.502 4.015 13.335 4.138q.258.006.513.023c.015.001.026.042.08.143-1.797 1.248-3.751 2.167-5.885 2.67-4.824 1.136-9.183.176-13-3.032-1.066-.896-2.092-1.845-3.184-2.708-1.711-1.356-3.663-2.064-5.87-1.801-3.096.371-4.781 2.714-4.061 5.76 1.125 4.757 3.853 8.483 7.666 11.459 4.113 3.21 8.834 4.958 13.958 5.681 5.083.715 10.144.707 15.118-.789.325-.099.644-.135.805.229.15.348-.226.411-.396.55-1.172.946-2.334 1.904-3.544 2.803-4.375 3.243-9.29 5.114-14.714 5.512-3.93.286-7.36-1.083-10.4-3.522-2.396-1.919-4.262-4.332-6.23-6.65-1.64-1.929-3.263-3.869-4.914-5.786-1.022-1.187-2.116-2.305-3.411-3.207-2.041-1.417-4.276-1.899-6.722-1.409-3.333.668-5.152 3.429-4.255 6.728 1.946 7.153 6.49 11.612 13.845 13.067.208.041.466-.035.63.28-3.796.776-7.513.581-11.16-.615-7.353-2.415-13.288-6.619-16.901-13.66-2.258-4.398-3.212-9.132-3.445-14.036-.15-3.151-.032-6.32-.52-9.449-.578-3.696-1.465-7.296-3.616-10.452-2.424-3.558-5.762-5.375-10.097-5.287-.51.01-1.021.002-1.546.002-.005-.355.288-.423.468-.558 3.608-2.704 7.779-4.175 12.039-5.428 2.403-.707 4.868-1.121 7.359-1.379.18-.019.41.069.52-.174zM15.04 25.583c.925.978 1.899 1.657 3.154 1.844 1.537.229 3.127-.612 3.65-1.905.365-.9.32-.962-.62-.888-.507.039-1.017.064-1.524.121-1.537.17-3.071.362-4.66.828" clip-rule="evenodd"/><path fill="#F15524" fill-rule="evenodd" d="M127.923 80.218c-1.112.447-2.148 1.072-3.376 1.25-2.965.43-5.646-.118-7.922-2.167-.422-.38-.852-.756-1.231-1.174-1.862-2.05-4.166-3.19-6.921-3.433-.216-.02-.431-.08-.677-.126 2.675-2.362 7.299-2.821 10.673-1.1 1.39.71 2.554 1.699 3.595 2.83 1.628 1.773 3.55 3.057 5.859 3.746zm-44.38 27.479c-.315-.331-.77-.286-1.157-.414-2.234-.74-4.114-1.999-5.72-3.708-3.09-3.29-4.574-4.292-8.591-5.874.113-.255.346-.226.562-.231 1.967-.056 3.916.083 5.83.56 3.56.893 6.303 2.922 8.14 6.097.728 1.258 1.572 2.354 2.813 3.12.173.108.327.227.344.451zM77.89 96.334c-1.23-.315-2.377-.592-3.514-.907-3.73-1.03-7.487-.791-11.252-.28-1.941.262-3.878.563-5.827.764-5.938.613-11.45-.808-16.608-3.685-5.142-2.868-9.702-6.435-13.17-11.27-.263-.37-.511-.75-.762-1.128-.078-.117-.143-.243-.231-.394.418-.18.66.142.925.287 2.756 1.52 5.457 3.14 8.469 4.146 5.317 1.773 10.577 1.829 15.816-.313 2.525-1.033 5.072-1.187 7.568.142.233.124.543.178.657.514-1.101.293-2.192.555-3.265.878-.94.283-1.734.764-1.814 1.888-.068.938.452 1.619 1.64 2.135 2.418 1.048 4.98 1.312 7.579 1.352 2.979.046 5.88.456 8.632 1.684 1.572.702 2.958 1.68 4.29 2.746.426.34.74.759.867 1.44m32.327-38.96c-.247-.521-.389-.826-.535-1.127-2.335-4.841-6.256-6.668-11.447-5.266-2.38.643-4.698 1.556-7.163 1.832-11.79 1.324-21.997-1.7-29.903-10.972-.22-.258-.716-.631-.495-.862.377-.395.67.207.949.403 6.046 4.277 12.729 6.282 20.146 5.7 3.334-.262 6.524-1.175 9.713-2.121 2.819-.836 5.675-1.422 8.646-.817 6.453 1.313 10.411 6.384 10.089 13.23M80.66 82.614c.113-.048.185-.088.262-.111 2.92-.894 5.186-2.756 7.268-4.893 2.04-2.093 3.946-4.322 6.16-6.251 4.704-4.1 10.1-5.302 16.118-3.94 1.502.34 2.749 1.059 3.847 2.077-1.195-.092-2.253-.12-3.299-.262-2.123-.292-3.851.427-5.285 1.947a225 225 0 0 0-3.414 3.693c-4.105 4.544-9.348 6.776-15.308 7.557-1.806.235-3.612.416-5.438.365-.262-.005-.551.089-.911-.181m26.95-18.425c-1.039.222-1.82-.132-2.6-.258-4.854-.785-9.321-.01-13.534 2.67-6.398 4.07-13.373 4.74-20.65 2.958-.876-.216-1.756-.525-2.658-1.24 1.022-.058 1.806.173 2.595.288 3.68.538 6.973-.47 10.012-2.483 2.469-1.636 5.023-3.117 7.83-4.086 5.459-1.877 10.892-2.157 16.24.425.918.44 1.8.946 2.765 1.726" clip-rule="evenodd"/><path fill="#F15524" fill-rule="evenodd" d="M84.314 41.491c-2.88 1.65-5.792 2.001-8.819 1.796-8.64-.583-15.498-4.728-21.449-10.698-.18-.18-.426-.385-.327-.648.114-.313.448-.148.676-.147 5.767.01 11.056 1.456 15.582 5.202.941.778 1.922 1.51 2.9 2.242 2.98 2.237 6.304 3.022 9.97 2.316.42-.079.837-.116 1.467-.063" clip-rule="evenodd"/></svg>