<svg xmlns="http://www.w3.org/2000/svg" width="129" height="128" fill="none"><path fill="#C00" d="M123 72.3h-5.3v-2.7h10.5v-5.9h-10c-2.6 0-6.1 2.1-6.1 6.1v2c0 4 3.4 6 6.1 6h5v2.8l-10.8.1v5.9H123c2.2 0 5.9-1.6 6-6v-2.3c0-3.8-3.1-6-6-6m-61.6-.9c0-7.3-6.9-8-6.9-8H42.2v23.1h6.2V81l5.4 5.6H63l-7.3-7.4s5.7-.5 5.7-7.8m-8.1 3.1h-5v-5.3h5s1.4.5 1.4 2.6c0 2.2-1.4 2.7-1.4 2.7m23.4-10.9h-6.3c-4.5 0-6 4.1-6 6v16.9h6.3v-4h5.9v4h6.1V69.6c0-4.9-4.4-6-6-6m-.1 12.3h-6v-5.6s0-1.3 2-1.3h2.2c1.7 0 1.8 1.3 1.8 1.3zm9-12.3h6.6v22.9h-6.6zm15.8 0h-6.5v22.9h15.3v-5.9h-8.8z"/><path fill="#C00" d="M73.2 60.7c.6-.5 1.1-.9 1.1-.9S57.5 43 38.7 44.9c-9.4.8-21 9.4-27.8 20.7S3.2 86.5 3.2 86.5h25.6s-4.9-22.3 11.3-31.3c3.5-1.7 14.8-8.1 33.1 5.5M56.5 44.5c-.3-.2-1.1-.6-3.1-1.1l-.1 2.1c1.1.4 2.1.8 3.1 1.2z"/><path fill="#C00" d="m56.5 55.9.1-2c-1.1-.2-2.2-.3-3.2-.4l-.1 2c1.1 0 2.1.2 3.2.4M41.4 43.5h.3l-.6-2c-1 0-2 .1-3.1.2l.6 1.9c.9-.1 1.8-.1 2.8-.1m2.2 14.1c.9-.5 1.9-.8 2.8-1.1l-.7-2.1c-1 .2-2 .6-2.8 1zM28.2 46.9l-1.5-2.2c-.7.3-1.6.8-2.4 1.3l1.5 2.3c.8-.5 1.6-1 2.4-1.4m6.7 14.5 1.6 2.3c.6-.8 1.2-1.6 1.9-2.3l-1.5-2.2c-.8.7-1.4 1.5-2 2.2m-3.7 6.9c-.5 1.2-.8 2.4-1 3.5l2.6 2.1c.1-1.3.4-2.5.7-3.8zM16 56.5l-2.3-2c-.8.8-1.7 1.6-2.4 2.4l2.5 2.1c.7-.9 1.4-1.7 2.2-2.5M6.2 70.9l-3.7-1.4c-.6 1.4-1.3 3-1.6 3.9l3.7 1.4c.4-1.1 1.1-2.7 1.6-3.9M29.7 80c.1 1.7.2 3.1.4 4.1l3.9 1.4c-.3-1.3-.6-2.7-.8-4.2z"/></svg>