<svg xmlns="http://www.w3.org/2000/svg" width="659" height="165" fill="none"><g clip-path="url(#a)"><path fill="#fff" fill-rule="evenodd" d="M133.85 124.16c1.45 18.602 1.45 27.322 1.45 36.84H92.228c0-2.073.037-3.97.075-5.893.117-5.979.238-12.213-.731-24.803-1.282-18.432-9.225-22.528-23.83-22.528H0V74.24h69.792c18.449 0 27.673-5.608 27.673-20.456 0-13.056-9.224-20.968-27.673-20.968H0V0h77.479C119.245 0 140 19.712 140 51.2c0 23.552-14.605 38.912-34.335 41.472 16.655 3.328 26.392 12.8 28.185 31.488" clip-rule="evenodd"/><path fill="#fff" d="M0 161v-25h45.542c7.607 0 9.258 5.638 9.258 9v16z"/><path fill="url(#b)" d="M654.54 47.104h-42.752L592.332 74.24l-18.944-27.136h-45.824l41.216 56.064-44.8 58.112h42.752l22.784-30.976L612.3 161.28h45.824l-45.056-59.904z"/><path fill="#fff" d="M654.54 47.104h-42.752L592.332 74.24l-18.944-27.136h-45.824l41.216 56.064-44.8 58.112h42.752l22.784-30.976L612.3 161.28h45.824l-45.056-59.904z"/><path fill="url(#c)" d="M229.43 120.576c-3.84 8.96-11.008 12.8-22.272 12.8-12.544 0-22.784-6.656-23.808-20.736h80.128v-11.52c0-30.976-20.224-57.088-58.368-57.088-35.584 0-62.208 25.856-62.208 61.952 0 36.352 26.112 58.368 62.72 58.368 30.208 0 51.2-14.592 57.088-40.704zm-45.568-27.904c1.536-10.752 7.424-18.944 20.736-18.944 12.288 0 18.944 8.704 19.456 18.944z"/><path fill="#fff" d="M229.43 120.576c-3.84 8.96-11.008 12.8-22.272 12.8-12.544 0-22.784-6.656-23.808-20.736h80.128v-11.52c0-30.976-20.224-57.088-58.368-57.088-35.584 0-62.208 25.856-62.208 61.952 0 36.352 26.112 58.368 62.72 58.368 30.208 0 51.2-14.592 57.088-40.704zm-45.568-27.904c1.536-10.752 7.424-18.944 20.736-18.944 12.288 0 18.944 8.704 19.456 18.944z"/><path fill="url(#d)" d="M385.256 66.56c-4.864-13.312-15.36-22.528-35.584-22.528-17.152 0-29.44 7.68-35.584 20.224V47.104h-41.472V161.28h41.472v-56.064c0-17.152 4.864-28.416 18.432-28.416 12.544 0 15.616 8.192 15.616 23.808v60.672h41.472v-56.064c0-17.152 4.608-28.416 18.432-28.416 12.544 0 15.36 8.192 15.36 23.808v60.672h41.472V89.6c0-23.808-9.216-45.568-40.704-45.568-19.2 0-32.768 9.728-38.912 22.528"/><path fill="#fff" d="M385.256 66.56c-4.864-13.312-15.36-22.528-35.584-22.528-17.152 0-29.44 7.68-35.584 20.224V47.104h-41.472V161.28h41.472v-56.064c0-17.152 4.864-28.416 18.432-28.416 12.544 0 15.616 8.192 15.616 23.808v60.672h41.472v-56.064c0-17.152 4.608-28.416 18.432-28.416 12.544 0 15.36 8.192 15.36 23.808v60.672h41.472V89.6c0-23.808-9.216-45.568-40.704-45.568-19.2 0-32.768 9.728-38.912 22.528"/><path fill="url(#e)" d="M478.436 47.104V161.28h41.472V47.104zm-.256-10.752h41.984V0H478.18z"/><path fill="#fff" d="M478.436 47.104V161.28h41.472V47.104zm-.256-10.752h41.984V0H478.18z"/></g><defs><linearGradient id="b" x1="591.052" x2="591.052" y1="47.103" y2="161.28" gradientUnits="userSpaceOnUse"><stop/><stop offset="1" stop-opacity="0"/></linearGradient><linearGradient id="c" x1="203.19" x2="203.19" y1="44.032" y2="164.352" gradientUnits="userSpaceOnUse"><stop/><stop offset="1" stop-opacity="0"/></linearGradient><linearGradient id="d" x1="368.744" x2="368.744" y1="44.032" y2="161.28" gradientUnits="userSpaceOnUse"><stop/><stop offset="1" stop-opacity="0"/></linearGradient><linearGradient id="e" x1="499.172" x2="499.172" y1="0" y2="161.28" gradientUnits="userSpaceOnUse"><stop/><stop offset="1" stop-opacity="0"/></linearGradient><clipPath id="a"><path fill="#fff" d="M0 0h659v165H0z"/></clipPath></defs></svg>