<svg xmlns="http://www.w3.org/2000/svg" width="129" height="130" fill="none"><path fill="#77BC1F" d="M116.452 7.643a59 59 0 0 1-6.837 12.136A64.25 64.25 0 0 0 64.205.974C28.984.974 0 29.982 0 65.242a64.32 64.32 0 0 0 19.945 46.562l2.368 2.1a64.22 64.22 0 0 0 41.358 15.122c33.487 0 61.637-26.24 64.021-59.683 1.751-16.371-3.051-37.077-11.24-61.7M29.067 112.17a5.5 5.5 0 0 1-4.269 2.034c-3.018 0-5.487-2.484-5.487-5.502s2.485-5.501 5.487-5.501c1.25 0 2.485.433 3.452 1.234 2.351 1.9 2.718 5.384.817 7.735m87.119-19.238c-15.843 21.122-49.68 14.003-71.376 15.02 0 0-3.852.234-7.721.867 0 0 1.45-.617 3.335-1.334 15.226-5.301 22.43-6.335 31.685-11.086 17.427-8.869 34.654-28.274 38.24-48.463-6.637 19.422-26.75 36.11-45.077 42.895-12.557 4.635-35.238 9.136-35.238 9.136l-.917-.484c-15.442-7.518-15.91-40.977 12.157-51.78 12.291-4.735 24.048-2.134 37.323-5.302 14.175-3.367 30.568-14.004 37.238-27.874 7.471 22.19 16.46 56.932.35 78.405z"/></svg>